<svg width="32" height="32" viewBox="0 0 32 32" fill="none" xmlns="http://www.w3.org/2000/svg">
<rect x="0.5" y="0.5" width="31" height="31" rx="15.5" fill="#535353"/>
<rect x="0.5" y="0.5" width="31" height="31" rx="15.5" stroke="white"/>
<path fill-rule="evenodd" clip-rule="evenodd" d="M19.2004 11.0189V9.50943C19.2004 9.10911 19.0318 8.72518 18.7318 8.4421C18.4317 8.15903 18.0247 8 17.6004 8H14.4004C13.976 8 13.5691 8.15903 13.269 8.4421C12.969 8.72518 12.8004 9.10911 12.8004 9.50943V11.0189H7.20039C6.98822 11.0189 6.78473 11.0984 6.63471 11.2399C6.48468 11.3815 6.40039 11.5734 6.40039 11.7736V14.4574L6.60199 14.5223C9.73799 15.5079 12.8708 16 16.0004 16C19.13 16 22.2628 15.5079 25.3972 14.5208L25.6004 14.4589V11.7736C25.6004 11.5734 25.5161 11.3815 25.3661 11.2399C25.216 11.0984 25.0126 11.0189 24.8004 11.0189H19.2004ZM14.4004 9.50943V11.0189H17.6004V9.50943H14.4004Z" fill="white"/>
<path d="M25.6004 16C23.0119 16.8769 20.3222 17.4017 17.6004 17.561V18.2611C17.6004 18.4786 17.5161 18.6871 17.3661 18.8408C17.216 18.9946 17.0126 19.081 16.8004 19.081H15.2004C14.9882 19.081 14.7847 18.9946 14.6347 18.8408C14.4847 18.6871 14.4004 18.4786 14.4004 18.2611V17.561C11.6786 17.4017 8.9889 16.8769 6.40039 16V21.8996C6.40039 22.6538 6.89959 23.2999 7.62439 23.4196C9.09319 23.6606 11.8852 24 16.0004 24C20.1156 24 22.9076 23.6606 24.3764 23.4196C25.1012 23.2999 25.6004 22.6522 25.6004 21.8996V16Z" fill="white"/>
</svg>
