<svg width="100" height="100" viewBox="0 0 100 100" fill="none" xmlns="http://www.w3.org/2000/svg">
<g clip-path="url(#clip0_691_1975)">
<path d="M14 6L20 6.01V11.99L14 12V6ZM46.0039 6L48.1539 6.01V11.99L46.0039 12V6ZM62.1563 6L68.1563 6.01V11.99L62.1563 12V6ZM81.1563 6L87.1563 6.01V11.99L81.1563 12V6ZM100.154 6L102.304 6.01V11.99L100.154 12V6ZM116.307 6L118.457 6.01V11.99L116.307 12V6ZM144.459 6L150.459 6.01V11.99L144.459 12V6ZM176.463 6L178.613 6.01V11.99L176.463 12V6ZM192.615 6L198.615 6.01V11.99L192.615 12V6ZM211.615 6L217.615 6.01V11.99L211.615 12V6ZM242.613 6L248.613 6.01V11.99L242.613 12V6ZM274.617 6L276.767 6.01V11.99L274.617 12V6ZM290.77 6L296.77 6.01V11.99L290.77 12V6ZM309.77 6L315.77 6.01V11.99L309.77 12V6ZM328.768 6L330.918 6.01V11.99L328.768 12V6ZM344.92 6L347.07 6.01V11.99L344.92 12V6ZM373.072 6L379.072 6.01V11.99L373.072 12V6ZM405.076 6L407.226 6.01V11.99L405.076 12V6ZM421.229 6L427.229 6.01V11.99L421.229 12V6ZM440.229 6L446.229 6.01V11.99L440.229 12V6ZM471.227 6L477.227 6.01V11.99L471.227 12V6ZM503.23 6L505.38 6.01V11.99L503.23 12V6ZM519.383 6L525.383 6.01V11.99L519.383 12V6ZM538.383 6L544.383 6.01V11.99L538.383 12V6ZM557.381 6L559.531 6.01V11.99L557.381 12V6ZM573.533 6L575.683 6.01V11.99L573.533 12V6ZM601.686 6L607.686 6.01V11.99L601.686 12V6ZM633.689 6L635.839 6.01V11.99L633.689 12V6ZM649.842 6L655.842 6.01V11.99L649.842 12V6ZM668.842 6L674.842 6.01V11.99L668.842 12V6ZM699.84 6L705.84 6.01V11.99L699.84 12V6ZM731.844 6L733.994 6.01V11.99L731.844 12V6ZM747.996 6L753.996 6.01V11.99L747.996 12V6ZM766.996 6L772.996 6.01V11.99L766.996 12V6ZM785.994 6L788.144 6.01V11.99L785.994 12V6ZM802.146 6L804.296 6.01V11.99L802.146 12V6ZM830.299 6L836.299 6.01V11.99L830.299 12V6ZM862.303 6L864.453 6.01V11.99L862.303 12V6ZM878.455 6L884.455 6.01V11.99L878.455 12V6ZM897.455 6L903.455 6.01V11.99L897.455 12V6ZM928.453 6L934.453 6.01V11.99L928.453 12V6ZM960.457 6L962.607 6.01V11.99L960.457 12V6ZM976.609 6L982.609 6.01V11.99L976.609 12V6ZM995.609 6L1001.61 6.01V11.99L995.609 12V6ZM1014.61 6L1016.76 6.01V11.99L1014.61 12V6ZM1030.76 6L1032.91 6.01V11.99L1030.76 12V6ZM1058.91 6L1064.91 6.01V11.99L1058.91 12V6ZM1090.92 6L1093.07 6.01V11.99L1090.92 12V6ZM1107.07 6L1113.07 6.01V11.99L1107.07 12V6ZM1126.07 6L1132.07 6.01V11.99L1126.07 12V6ZM1157.07 6L1163.07 6.01V11.99L1157.07 12V6ZM1189.07 6L1191.22 6.01V11.99L1189.07 12V6ZM1205.22 6L1211.22 6.01V11.99L1205.22 12V6ZM1224.22 6L1230.22 6.01V11.99L1224.22 12V6ZM1243.22 6L1245.37 6.01V11.99L1243.22 12V6ZM1259.37 6L1261.52 6.01V11.99L1259.37 12V6ZM1287.53 6L1293.53 6.01V11.99L1287.53 12V6ZM1319.53 6L1321.68 6.01V11.99L1319.53 12V6ZM1335.68 6L1341.68 6.01V11.99L1335.68 12V6ZM1354.68 6L1360.68 6.01V11.99L1354.68 12V6ZM1385.68 6L1391.68 6.01V11.99L1385.68 12V6ZM1417.68 6L1419.83 6.01V11.99L1417.68 12V6ZM1433.84 6L1439.84 6.01V11.99L1433.84 12V6ZM1452.84 6L1458.84 6.01V11.99L1452.84 12V6ZM1471.83 6L1473.98 6.01V11.99L1471.83 12V6ZM1487.99 6L1490.14 6.01V11.99L1487.99 12V6ZM1516.14 6L1522.14 6.01V11.99L1516.14 12V6ZM1548.14 6L1550.29 6.01V11.99L1548.14 12V6ZM1564.29 6L1570.29 6.01V11.99L1564.29 12V6ZM1583.29 6L1589.29 6.01V11.99L1583.29 12V6ZM1614.29 6L1620.29 6.01V11.99L1614.29 12V6ZM2 21L4.15 21.01V26.99L2 27V21ZM18.1523 21L24.1523 21.01V26.99L18.1523 27V21ZM37.1523 21L43.1523 21.01V26.99L37.1523 27V21ZM56.1504 21L58.3004 21.01V26.99L56.1504 27V21ZM72.3027 21L74.4527 21.01V26.99L72.3027 27V21ZM100.455 21L106.455 21.01V26.99L100.455 27V21ZM132.459 21L134.609 21.01V26.99L132.459 27V21ZM148.611 21L154.611 21.01V26.99L148.611 27V21ZM167.611 21L173.611 21.01V26.99L167.611 27V21ZM198.609 21L204.609 21.01V26.99L198.609 27V21ZM230.613 21L232.763 21.01V26.99L230.613 27V21ZM246.766 21L252.766 21.01V26.99L246.766 27V21ZM265.766 21L271.766 21.01V26.99L265.766 27V21ZM284.764 21L286.914 21.01V26.99L284.764 27V21ZM300.916 21L303.066 21.01V26.99L300.916 27V21ZM329.068 21L335.068 21.01V26.99L329.068 27V21ZM361.072 21L363.222 21.01V26.99L361.072 27V21ZM377.225 21L383.225 21.01V26.99L377.225 27V21ZM396.225 21L402.225 21.01V26.99L396.225 27V21ZM427.223 21L433.223 21.01V26.99L427.223 27V21ZM459.227 21L461.377 21.01V26.99L459.227 27V21ZM475.379 21L481.379 21.01V26.99L475.379 27V21ZM494.379 21L500.379 21.01V26.99L494.379 27V21ZM513.377 21L515.527 21.01V26.99L513.377 27V21ZM529.529 21L531.679 21.01V26.99L529.529 27V21ZM557.682 21L563.682 21.01V26.99L557.682 27V21ZM589.686 21L591.836 21.01V26.99L589.686 27V21ZM605.838 21L611.838 21.01V26.99L605.838 27V21ZM624.838 21L630.838 21.01V26.99L624.838 27V21ZM655.836 21L661.836 21.01V26.99L655.836 27V21ZM687.84 21L689.99 21.01V26.99L687.84 27V21ZM703.992 21L709.992 21.01V26.99L703.992 27V21ZM722.992 21L728.992 21.01V26.99L722.992 27V21ZM741.99 21L744.14 21.01V26.99L741.99 27V21ZM758.143 21L760.293 21.01V26.99L758.143 27V21ZM786.295 21L792.295 21.01V26.99L786.295 27V21ZM818.299 21L820.449 21.01V26.99L818.299 27V21ZM834.451 21L840.451 21.01V26.99L834.451 27V21ZM853.451 21L859.451 21.01V26.99L853.451 27V21ZM884.449 21L890.449 21.01V26.99L884.449 27V21ZM916.453 21L918.603 21.01V26.99L916.453 27V21ZM932.605 21L938.605 21.01V26.99L932.605 27V21ZM951.605 21L957.605 21.01V26.99L951.605 27V21ZM970.604 21L972.754 21.01V26.99L970.604 27V21ZM986.756 21L988.906 21.01V26.99L986.756 27V21ZM1014.91 21L1020.91 21.01V26.99L1014.91 27V21ZM1046.91 21L1049.06 21.01V26.99L1046.91 27V21ZM1063.06 21L1069.06 21.01V26.99L1063.06 27V21ZM1082.06 21L1088.06 21.01V26.99L1082.06 27V21ZM1113.06 21L1119.06 21.01V26.99L1113.06 27V21ZM1145.07 21L1147.22 21.01V26.99L1145.07 27V21ZM1161.22 21L1167.22 21.01V26.99L1161.22 27V21ZM1180.22 21L1186.22 21.01V26.99L1180.22 27V21ZM1199.22 21L1201.37 21.01V26.99L1199.22 27V21ZM1215.37 21L1217.52 21.01V26.99L1215.37 27V21ZM1243.52 21L1249.52 21.01V26.99L1243.52 27V21ZM1275.53 21L1277.68 21.01V26.99L1275.53 27V21ZM1291.68 21L1297.68 21.01V26.99L1291.68 27V21ZM1310.68 21L1316.68 21.01V26.99L1310.68 27V21ZM1341.68 21L1347.68 21.01V26.99L1341.68 27V21ZM1373.68 21L1375.83 21.01V26.99L1373.68 27V21ZM1389.83 21L1395.83 21.01V26.99L1389.83 27V21ZM1408.83 21L1414.83 21.01V26.99L1408.83 27V21ZM1427.83 21L1429.98 21.01V26.99L1427.83 27V21ZM1443.98 21L1446.13 21.01V26.99L1443.98 27V21ZM1472.13 21L1478.13 21.01V26.99L1472.13 27V21ZM1504.14 21L1506.29 21.01V26.99L1504.14 27V21ZM1520.29 21L1526.29 21.01V26.99L1520.29 27V21ZM1539.29 21L1545.29 21.01V26.99L1539.29 27V21ZM1570.29 21L1576.29 21.01V26.99L1570.29 27V21ZM1602.29 21L1604.44 21.01V26.99L1602.29 27V21ZM1618.45 21L1624.45 21.01V26.99L1618.45 27V21ZM1 36L7 36.01V41.99L1 42V36ZM19.998 36L22.148 36.01V41.99L19.998 42V36ZM36.1504 36L38.3004 36.01V41.99L36.1504 42V36ZM64.3027 36L70.3027 36.01V41.99L64.3027 42V36ZM96.3066 36L98.4566 36.01V41.99L96.3066 42V36ZM112.459 36L118.459 36.01V41.99L112.459 42V36ZM131.459 36L137.459 36.01V41.99L131.459 42V36ZM162.457 36L168.457 36.01V41.99L162.457 42V36ZM194.461 36L196.611 36.01V41.99L194.461 42V36ZM210.613 36L216.613 36.01V41.99L210.613 42V36ZM229.613 36L235.613 36.01V41.99L229.613 42V36ZM248.611 36L250.761 36.01V41.99L248.611 42V36ZM264.764 36L266.914 36.01V41.99L264.764 42V36ZM292.916 36L298.916 36.01V41.99L292.916 42V36ZM324.92 36L327.07 36.01V41.99L324.92 42V36ZM341.072 36L347.072 36.01V41.99L341.072 42V36ZM360.072 36L366.072 36.01V41.99L360.072 42V36ZM391.07 36L397.07 36.01V41.99L391.07 42V36ZM423.074 36L425.224 36.01V41.99L423.074 42V36ZM439.227 36L445.227 36.01V41.99L439.227 42V36ZM458.227 36L464.227 36.01V41.99L458.227 42V36ZM477.225 36L479.375 36.01V41.99L477.225 42V36ZM493.377 36L495.527 36.01V41.99L493.377 42V36ZM521.529 36L527.529 36.01V41.99L521.529 42V36ZM553.533 36L555.683 36.01V41.99L553.533 42V36ZM569.686 36L575.686 36.01V41.99L569.686 42V36ZM588.686 36L594.686 36.01V41.99L588.686 42V36ZM619.684 36L625.684 36.01V41.99L619.684 42V36ZM651.688 36L653.838 36.01V41.99L651.688 42V36ZM667.84 36L673.84 36.01V41.99L667.84 42V36ZM686.84 36L692.84 36.01V41.99L686.84 42V36ZM705.838 36L707.988 36.01V41.99L705.838 42V36ZM721.99 36L724.14 36.01V41.99L721.99 42V36ZM750.143 36L756.143 36.01V41.99L750.143 42V36ZM782.146 36L784.296 36.01V41.99L782.146 42V36ZM798.299 36L804.299 36.01V41.99L798.299 42V36ZM817.299 36L823.299 36.01V41.99L817.299 42V36ZM848.297 36L854.297 36.01V41.99L848.297 42V36ZM880.301 36L882.451 36.01V41.99L880.301 42V36ZM896.453 36L902.453 36.01V41.99L896.453 42V36ZM915.453 36L921.453 36.01V41.99L915.453 42V36ZM934.451 36L936.601 36.01V41.99L934.451 42V36ZM950.604 36L952.754 36.01V41.99L950.604 42V36ZM978.756 36L984.756 36.01V41.99L978.756 42V36ZM1010.76 36L1012.91 36.01V41.99L1010.76 42V36ZM1026.91 36L1032.91 36.01V41.99L1026.91 42V36ZM1045.91 36L1051.91 36.01V41.99L1045.91 42V36ZM1076.91 36L1082.91 36.01V41.99L1076.91 42V36ZM1108.91 36L1111.06 36.01V41.99L1108.91 42V36ZM1125.07 36L1131.07 36.01V41.99L1125.07 42V36ZM1144.07 36L1150.07 36.01V41.99L1144.07 42V36ZM1163.06 36L1165.21 36.01V41.99L1163.06 42V36ZM1179.22 36L1181.37 36.01V41.99L1179.22 42V36ZM1207.37 36L1213.37 36.01V41.99L1207.37 42V36ZM1239.37 36L1241.52 36.01V41.99L1239.37 42V36ZM1255.53 36L1261.53 36.01V41.99L1255.53 42V36ZM1274.53 36L1280.53 36.01V41.99L1274.53 42V36ZM1305.52 36L1311.52 36.01V41.99L1305.52 42V36ZM1337.53 36L1339.68 36.01V41.99L1337.53 42V36ZM1353.68 36L1359.68 36.01V41.99L1353.68 42V36ZM1372.68 36L1378.68 36.01V41.99L1372.68 42V36ZM1391.68 36L1393.83 36.01V41.99L1391.68 42V36ZM1407.83 36L1409.98 36.01V41.99L1407.83 42V36ZM1435.98 36L1441.98 36.01V41.99L1435.98 42V36ZM1467.99 36L1470.14 36.01V41.99L1467.99 42V36ZM1484.14 36L1490.14 36.01V41.99L1484.14 42V36ZM1503.14 36L1509.14 36.01V41.99L1503.14 42V36ZM1534.14 36L1540.14 36.01V41.99L1534.14 42V36ZM1566.14 36L1568.29 36.01V41.99L1566.14 42V36ZM1582.29 36L1588.29 36.01V41.99L1582.29 42V36ZM1601.29 36L1607.29 36.01V41.99L1601.29 42V36ZM1620.29 36L1622.44 36.01V41.99L1620.29 42V36ZM2 51L4.15 51.01V56.99L2 57V51ZM30.1523 51L36.1523 51.01V56.99L30.1523 57V51ZM62.1563 51L64.3063 51.01V56.99L62.1563 57V51ZM78.3086 51L84.3086 51.01V56.99L78.3086 57V51ZM97.3086 51L103.309 51.01V56.99L97.3086 57V51ZM128.307 51L134.307 51.01V56.99L128.307 57V51ZM160.311 51L162.461 51.01V56.99L160.311 57V51ZM176.463 51L182.463 51.01V56.99L176.463 57V51ZM195.463 51L201.463 51.01V56.99L195.463 57V51ZM214.461 51L216.611 51.01V56.99L214.461 57V51ZM230.613 51L232.763 51.01V56.99L230.613 57V51ZM258.766 51L264.766 51.01V56.99L258.766 57V51ZM290.77 51L292.92 51.01V56.99L290.77 57V51ZM306.922 51L312.922 51.01V56.99L306.922 57V51ZM325.922 51L331.922 51.01V56.99L325.922 57V51ZM356.92 51L362.92 51.01V56.99L356.92 57V51ZM388.924 51L391.074 51.01V56.99L388.924 57V51ZM405.076 51L411.076 51.01V56.99L405.076 57V51ZM424.076 51L430.076 51.01V56.99L424.076 57V51ZM443.074 51L445.224 51.01V56.99L443.074 57V51ZM459.227 51L461.377 51.01V56.99L459.227 57V51ZM487.379 51L493.379 51.01V56.99L487.379 57V51ZM519.383 51L521.533 51.01V56.99L519.383 57V51ZM535.535 51L541.535 51.01V56.99L535.535 57V51ZM554.535 51L560.535 51.01V56.99L554.535 57V51ZM585.533 51L591.533 51.01V56.99L585.533 57V51ZM617.537 51L619.687 51.01V56.99L617.537 57V51ZM633.689 51L639.689 51.01V56.99L633.689 57V51ZM652.689 51L658.689 51.01V56.99L652.689 57V51ZM671.688 51L673.838 51.01V56.99L671.688 57V51ZM687.84 51L689.99 51.01V56.99L687.84 57V51ZM715.992 51L721.992 51.01V56.99L715.992 57V51ZM747.996 51L750.146 51.01V56.99L747.996 57V51ZM764.148 51L770.148 51.01V56.99L764.148 57V51ZM783.148 51L789.148 51.01V56.99L783.148 57V51ZM814.146 51L820.146 51.01V56.99L814.146 57V51ZM846.15 51L848.3 51.01V56.99L846.15 57V51ZM862.303 51L868.303 51.01V56.99L862.303 57V51ZM881.303 51L887.303 51.01V56.99L881.303 57V51ZM900.301 51L902.451 51.01V56.99L900.301 57V51ZM916.453 51L918.603 51.01V56.99L916.453 57V51ZM944.605 51L950.605 51.01V56.99L944.605 57V51ZM976.609 51L978.759 51.01V56.99L976.609 57V51ZM992.762 51L998.762 51.01V56.99L992.762 57V51ZM1011.76 51L1017.76 51.01V56.99L1011.76 57V51ZM1042.76 51L1048.76 51.01V56.99L1042.76 57V51ZM1074.76 51L1076.91 51.01V56.99L1074.76 57V51ZM1090.92 51L1096.92 51.01V56.99L1090.92 57V51ZM1109.92 51L1115.92 51.01V56.99L1109.92 57V51ZM1128.91 51L1131.06 51.01V56.99L1128.91 57V51ZM1145.07 51L1147.22 51.01V56.99L1145.07 57V51ZM1173.22 51L1179.22 51.01V56.99L1173.22 57V51ZM1205.22 51L1207.37 51.01V56.99L1205.22 57V51ZM1221.38 51L1227.38 51.01V56.99L1221.38 57V51ZM1240.38 51L1246.38 51.01V56.99L1240.38 57V51ZM1271.37 51L1277.37 51.01V56.99L1271.37 57V51ZM1303.38 51L1305.53 51.01V56.99L1303.38 57V51ZM1319.53 51L1325.53 51.01V56.99L1319.53 57V51ZM1338.53 51L1344.53 51.01V56.99L1338.53 57V51ZM1357.53 51L1359.68 51.01V56.99L1357.53 57V51ZM1373.68 51L1375.83 51.01V56.99L1373.68 57V51ZM1401.83 51L1407.83 51.01V56.99L1401.83 57V51ZM1433.84 51L1435.99 51.01V56.99L1433.84 57V51ZM1449.99 51L1455.99 51.01V56.99L1449.99 57V51ZM1468.99 51L1474.99 51.01V56.99L1468.99 57V51ZM1499.99 51L1505.99 51.01V56.99L1499.99 57V51ZM1531.99 51L1534.14 51.01V56.99L1531.99 57V51ZM1548.14 51L1554.14 51.01V56.99L1548.14 57V51ZM1567.14 51L1573.14 51.01V56.99L1567.14 57V51ZM1586.14 51L1588.29 51.01V56.99L1586.14 57V51ZM1602.29 51L1604.44 51.01V56.99L1602.29 57V51ZM14 66L20 66.01V71.99L14 72V66ZM46.0039 66L48.1539 66.01V71.99L46.0039 72V66ZM62.1563 66L68.1563 66.01V71.99L62.1563 72V66ZM81.1563 66L87.1563 66.01V71.99L81.1563 72V66ZM112.154 66L118.154 66.01V71.99L112.154 72V66ZM144.158 66L146.308 66.01V71.99L144.158 72V66ZM160.311 66L166.311 66.01V71.99L160.311 72V66ZM179.311 66L185.311 66.01V71.99L179.311 72V66ZM198.309 66L200.459 66.01V71.99L198.309 72V66ZM214.461 66L216.611 66.01V71.99L214.461 72V66ZM242.613 66L248.613 66.01V71.99L242.613 72V66ZM274.617 66L276.767 66.01V71.99L274.617 72V66ZM290.77 66L296.77 66.01V71.99L290.77 72V66ZM309.77 66L315.77 66.01V71.99L309.77 72V66ZM340.768 66L346.768 66.01V71.99L340.768 72V66ZM372.771 66L374.921 66.01V71.99L372.771 72V66ZM388.924 66L394.924 66.01V71.99L388.924 72V66ZM407.924 66L413.924 66.01V71.99L407.924 72V66ZM426.922 66L429.072 66.01V71.99L426.922 72V66ZM443.074 66L445.224 66.01V71.99L443.074 72V66ZM471.227 66L477.227 66.01V71.99L471.227 72V66ZM503.23 66L505.38 66.01V71.99L503.23 72V66ZM519.383 66L525.383 66.01V71.99L519.383 72V66ZM538.383 66L544.383 66.01V71.99L538.383 72V66ZM569.381 66L575.381 66.01V71.99L569.381 72V66ZM601.385 66L603.535 66.01V71.99L601.385 72V66ZM617.537 66L623.537 66.01V71.99L617.537 72V66ZM636.537 66L642.537 66.01V71.99L636.537 72V66ZM655.535 66L657.685 66.01V71.99L655.535 72V66ZM671.688 66L673.838 66.01V71.99L671.688 72V66ZM699.84 66L705.84 66.01V71.99L699.84 72V66ZM731.844 66L733.994 66.01V71.99L731.844 72V66ZM747.996 66L753.996 66.01V71.99L747.996 72V66ZM766.996 66L772.996 66.01V71.99L766.996 72V66ZM797.994 66L803.994 66.01V71.99L797.994 72V66ZM829.998 66L832.148 66.01V71.99L829.998 72V66ZM846.15 66L852.15 66.01V71.99L846.15 72V66ZM865.15 66L871.15 66.01V71.99L865.15 72V66ZM884.148 66L886.298 66.01V71.99L884.148 72V66ZM900.301 66L902.451 66.01V71.99L900.301 72V66ZM928.453 66L934.453 66.01V71.99L928.453 72V66ZM960.457 66L962.607 66.01V71.99L960.457 72V66ZM976.609 66L982.609 66.01V71.99L976.609 72V66ZM995.609 66L1001.61 66.01V71.99L995.609 72V66ZM1026.61 66L1032.61 66.01V71.99L1026.61 72V66ZM1058.61 66L1060.76 66.01V71.99L1058.61 72V66ZM1074.76 66L1080.76 66.01V71.99L1074.76 72V66ZM1093.76 66L1099.76 66.01V71.99L1093.76 72V66ZM1112.76 66L1114.91 66.01V71.99L1112.76 72V66ZM1128.91 66L1131.06 66.01V71.99L1128.91 72V66ZM1157.07 66L1163.07 66.01V71.99L1157.07 72V66ZM1189.07 66L1191.22 66.01V71.99L1189.07 72V66ZM1205.22 66L1211.22 66.01V71.99L1205.22 72V66ZM1224.22 66L1230.22 66.01V71.99L1224.22 72V66ZM1255.22 66L1261.22 66.01V71.99L1255.22 72V66ZM1287.22 66L1289.37 66.01V71.99L1287.22 72V66ZM1303.38 66L1309.38 66.01V71.99L1303.38 72V66ZM1322.38 66L1328.38 66.01V71.99L1322.38 72V66ZM1341.38 66L1343.53 66.01V71.99L1341.38 72V66ZM1357.53 66L1359.68 66.01V71.99L1357.53 72V66ZM1385.68 66L1391.68 66.01V71.99L1385.68 72V66ZM1417.68 66L1419.83 66.01V71.99L1417.68 72V66ZM1433.84 66L1439.84 66.01V71.99L1433.84 72V66ZM1452.84 66L1458.84 66.01V71.99L1452.84 72V66ZM1483.83 66L1489.83 66.01V71.99L1483.83 72V66ZM1515.84 66L1517.99 66.01V71.99L1515.84 72V66ZM1531.99 66L1537.99 66.01V71.99L1531.99 72V66ZM1550.99 66L1556.99 66.01V71.99L1550.99 72V66ZM1569.99 66L1572.14 66.01V71.99L1569.99 72V66ZM1586.14 66L1588.29 66.01V71.99L1586.14 72V66ZM1614.29 66L1620.29 66.01V71.99L1614.29 72V66ZM2 81L4.15 81.01V86.99L2 87V81ZM18.1523 81L24.1523 81.01V86.99L18.1523 87V81ZM37.1523 81L43.1523 81.01V86.99L37.1523 87V81ZM68.1504 81L74.1504 81.01V86.99L68.1504 87V81ZM100.154 81L102.304 81.01V86.99L100.154 87V81ZM116.307 81L122.307 81.01V86.99L116.307 87V81ZM135.307 81L141.307 81.01V86.99L135.307 87V81ZM154.305 81L156.455 81.01V86.99L154.305 87V81ZM170.457 81L172.607 81.01V86.99L170.457 87V81ZM198.609 81L204.609 81.01V86.99L198.609 87V81ZM230.613 81L232.763 81.01V86.99L230.613 87V81ZM246.766 81L252.766 81.01V86.99L246.766 87V81ZM265.766 81L271.766 81.01V86.99L265.766 87V81ZM296.764 81L302.764 81.01V86.99L296.764 87V81ZM328.768 81L330.918 81.01V86.99L328.768 87V81ZM344.92 81L350.92 81.01V86.99L344.92 87V81ZM363.92 81L369.92 81.01V86.99L363.92 87V81ZM382.918 81L385.068 81.01V86.99L382.918 87V81ZM399.07 81L401.22 81.01V86.99L399.07 87V81ZM427.223 81L433.223 81.01V86.99L427.223 87V81ZM459.227 81L461.377 81.01V86.99L459.227 87V81ZM475.379 81L481.379 81.01V86.99L475.379 87V81ZM494.379 81L500.379 81.01V86.99L494.379 87V81ZM525.377 81L531.377 81.01V86.99L525.377 87V81ZM557.381 81L559.531 81.01V86.99L557.381 87V81ZM573.533 81L579.533 81.01V86.99L573.533 87V81ZM592.533 81L598.533 81.01V86.99L592.533 87V81ZM611.531 81L613.681 81.01V86.99L611.531 87V81ZM627.684 81L629.834 81.01V86.99L627.684 87V81ZM655.836 81L661.836 81.01V86.99L655.836 87V81ZM687.84 81L689.99 81.01V86.99L687.84 87V81ZM703.992 81L709.992 81.01V86.99L703.992 87V81ZM722.992 81L728.992 81.01V86.99L722.992 87V81ZM753.99 81L759.99 81.01V86.99L753.99 87V81ZM785.994 81L788.144 81.01V86.99L785.994 87V81ZM802.146 81L808.146 81.01V86.99L802.146 87V81ZM821.146 81L827.146 81.01V86.99L821.146 87V81ZM840.145 81L842.295 81.01V86.99L840.145 87V81ZM856.297 81L858.447 81.01V86.99L856.297 87V81ZM884.449 81L890.449 81.01V86.99L884.449 87V81ZM916.453 81L918.603 81.01V86.99L916.453 87V81ZM932.605 81L938.605 81.01V86.99L932.605 87V81ZM951.605 81L957.605 81.01V86.99L951.605 87V81ZM982.604 81L988.604 81.01V86.99L982.604 87V81ZM1014.61 81L1016.76 81.01V86.99L1014.61 87V81ZM1030.76 81L1036.76 81.01V86.99L1030.76 87V81ZM1049.76 81L1055.76 81.01V86.99L1049.76 87V81ZM1068.76 81L1070.91 81.01V86.99L1068.76 87V81ZM1084.91 81L1087.06 81.01V86.99L1084.91 87V81ZM1113.06 81L1119.06 81.01V86.99L1113.06 87V81ZM1145.07 81L1147.22 81.01V86.99L1145.07 87V81ZM1161.22 81L1167.22 81.01V86.99L1161.22 87V81ZM1180.22 81L1186.22 81.01V86.99L1180.22 87V81ZM1211.22 81L1217.22 81.01V86.99L1211.22 87V81ZM1243.22 81L1245.37 81.01V86.99L1243.22 87V81ZM1259.37 81L1265.37 81.01V86.99L1259.37 87V81ZM1278.37 81L1284.37 81.01V86.99L1278.37 87V81ZM1297.37 81L1299.52 81.01V86.99L1297.37 87V81ZM1313.52 81L1315.67 81.01V86.99L1313.52 87V81ZM1341.68 81L1347.68 81.01V86.99L1341.68 87V81ZM1373.68 81L1375.83 81.01V86.99L1373.68 87V81ZM1389.83 81L1395.83 81.01V86.99L1389.83 87V81ZM1408.83 81L1414.83 81.01V86.99L1408.83 87V81ZM1439.83 81L1445.83 81.01V86.99L1439.83 87V81ZM1471.83 81L1473.98 81.01V86.99L1471.83 87V81ZM1487.99 81L1493.99 81.01V86.99L1487.99 87V81ZM1506.99 81L1512.99 81.01V86.99L1506.99 87V81ZM1525.98 81L1528.13 81.01V86.99L1525.98 87V81ZM1542.14 81L1544.29 81.01V86.99L1542.14 87V81ZM1570.29 81L1576.29 81.01V86.99L1570.29 87V81ZM1602.29 81L1604.44 81.01V86.99L1602.29 87V81ZM1618.45 81L1624.45 81.01V86.99L1618.45 87V81ZM1 96L7 96.01V101.99L1 102V96ZM31.998 96L37.998 96.01V101.99L31.998 102V96ZM64.002 96L66.152 96.01V101.99L64.002 102V96ZM80.1543 96L86.1543 96.01V101.99L80.1543 102V96ZM99.1543 96L105.154 96.01V101.99L99.1543 102V96ZM118.152 96L120.302 96.01V101.99L118.152 102V96ZM134.305 96L136.455 96.01V101.99L134.305 102V96ZM162.457 96L168.457 96.01V101.99L162.457 102V96ZM194.461 96L196.611 96.01V101.99L194.461 102V96ZM210.613 96L216.613 96.01V101.99L210.613 102V96ZM229.613 96L235.613 96.01V101.99L229.613 102V96ZM260.611 96L266.611 96.01V101.99L260.611 102V96ZM292.615 96L294.765 96.01V101.99L292.615 102V96ZM308.768 96L314.768 96.01V101.99L308.768 102V96ZM327.768 96L333.768 96.01V101.99L327.768 102V96ZM346.766 96L348.916 96.01V101.99L346.766 102V96ZM362.918 96L365.068 96.01V101.99L362.918 102V96ZM391.07 96L397.07 96.01V101.99L391.07 102V96ZM423.074 96L425.224 96.01V101.99L423.074 102V96ZM439.227 96L445.227 96.01V101.99L439.227 102V96ZM458.227 96L464.227 96.01V101.99L458.227 102V96ZM489.225 96L495.225 96.01V101.99L489.225 102V96ZM521.229 96L523.379 96.01V101.99L521.229 102V96ZM537.381 96L543.381 96.01V101.99L537.381 102V96ZM556.381 96L562.381 96.01V101.99L556.381 102V96ZM575.379 96L577.529 96.01V101.99L575.379 102V96ZM591.531 96L593.681 96.01V101.99L591.531 102V96ZM619.684 96L625.684 96.01V101.99L619.684 102V96ZM651.688 96L653.838 96.01V101.99L651.688 102V96ZM667.84 96L673.84 96.01V101.99L667.84 102V96ZM686.84 96L692.84 96.01V101.99L686.84 102V96ZM717.838 96L723.838 96.01V101.99L717.838 102V96ZM749.842 96L751.992 96.01V101.99L749.842 102V96ZM765.994 96L771.994 96.01V101.99L765.994 102V96ZM784.994 96L790.994 96.01V101.99L784.994 102V96ZM803.992 96L806.142 96.01V101.99L803.992 102V96ZM820.145 96L822.295 96.01V101.99L820.145 102V96ZM848.297 96L854.297 96.01V101.99L848.297 102V96ZM880.301 96L882.451 96.01V101.99L880.301 102V96ZM896.453 96L902.453 96.01V101.99L896.453 102V96ZM915.453 96L921.453 96.01V101.99L915.453 102V96ZM946.451 96L952.451 96.01V101.99L946.451 102V96ZM978.455 96L980.605 96.01V101.99L978.455 102V96ZM994.607 96L1000.61 96.01V101.99L994.607 102V96ZM1013.61 96L1019.61 96.01V101.99L1013.61 102V96ZM1032.61 96L1034.76 96.01V101.99L1032.61 102V96ZM1048.76 96L1050.91 96.01V101.99L1048.76 102V96ZM1076.91 96L1082.91 96.01V101.99L1076.91 102V96ZM1108.91 96L1111.06 96.01V101.99L1108.91 102V96ZM1125.07 96L1131.07 96.01V101.99L1125.07 102V96ZM1144.07 96L1150.07 96.01V101.99L1144.07 102V96ZM1175.06 96L1181.06 96.01V101.99L1175.06 102V96ZM1207.07 96L1209.22 96.01V101.99L1207.07 102V96ZM1223.22 96L1229.22 96.01V101.99L1223.22 102V96ZM1242.22 96L1248.22 96.01V101.99L1242.22 102V96ZM1261.22 96L1263.37 96.01V101.99L1261.22 102V96ZM1277.37 96L1279.52 96.01V101.99L1277.37 102V96ZM1305.52 96L1311.52 96.01V101.99L1305.52 102V96ZM1337.53 96L1339.68 96.01V101.99L1337.53 102V96ZM1353.68 96L1359.68 96.01V101.99L1353.68 102V96ZM1372.68 96L1378.68 96.01V101.99L1372.68 102V96ZM1403.68 96L1409.68 96.01V101.99L1403.68 102V96ZM1435.68 96L1437.83 96.01V101.99L1435.68 102V96ZM1451.83 96L1457.83 96.01V101.99L1451.83 102V96ZM1470.83 96L1476.83 96.01V101.99L1470.83 102V96ZM1489.83 96L1491.98 96.01V101.99L1489.83 102V96ZM1505.98 96L1508.13 96.01V101.99L1505.98 102V96ZM1534.14 96L1540.14 96.01V101.99L1534.14 102V96ZM1566.14 96L1568.29 96.01V101.99L1566.14 102V96ZM1582.29 96L1588.29 96.01V101.99L1582.29 102V96ZM1601.29 96L1607.29 96.01V101.99L1601.29 102V96ZM14 111L20 111.01V116.99L14 117V111ZM46.0039 111L48.1539 111.01V116.99L46.0039 117V111ZM62.1563 111L68.1563 111.01V116.99L62.1563 117V111ZM81.1563 111L87.1563 111.01V116.99L81.1563 117V111ZM100.154 111L102.304 111.01V116.99L100.154 117V111ZM116.307 111L118.457 111.01V116.99L116.307 117V111ZM144.459 111L150.459 111.01V116.99L144.459 117V111ZM176.463 111L178.613 111.01V116.99L176.463 117V111ZM192.615 111L198.615 111.01V116.99L192.615 117V111ZM211.615 111L217.615 111.01V116.99L211.615 117V111ZM242.613 111L248.613 111.01V116.99L242.613 117V111ZM274.617 111L276.767 111.01V116.99L274.617 117V111ZM290.77 111L296.77 111.01V116.99L290.77 117V111ZM309.77 111L315.77 111.01V116.99L309.77 117V111ZM328.768 111L330.918 111.01V116.99L328.768 117V111ZM344.92 111L347.07 111.01V116.99L344.92 117V111ZM373.072 111L379.072 111.01V116.99L373.072 117V111ZM405.076 111L407.226 111.01V116.99L405.076 117V111ZM421.229 111L427.229 111.01V116.99L421.229 117V111ZM440.229 111L446.229 111.01V116.99L440.229 117V111ZM471.227 111L477.227 111.01V116.99L471.227 117V111ZM503.23 111L505.38 111.01V116.99L503.23 117V111ZM519.383 111L525.383 111.01V116.99L519.383 117V111ZM538.383 111L544.383 111.01V116.99L538.383 117V111ZM557.381 111L559.531 111.01V116.99L557.381 117V111ZM573.533 111L575.683 111.01V116.99L573.533 117V111ZM601.686 111L607.686 111.01V116.99L601.686 117V111ZM633.689 111L635.839 111.01V116.99L633.689 117V111ZM649.842 111L655.842 111.01V116.99L649.842 117V111ZM668.842 111L674.842 111.01V116.99L668.842 117V111ZM699.84 111L705.84 111.01V116.99L699.84 117V111ZM731.844 111L733.994 111.01V116.99L731.844 117V111ZM747.996 111L753.996 111.01V116.99L747.996 117V111ZM766.996 111L772.996 111.01V116.99L766.996 117V111ZM785.994 111L788.144 111.01V116.99L785.994 117V111ZM802.146 111L804.296 111.01V116.99L802.146 117V111ZM830.299 111L836.299 111.01V116.99L830.299 117V111ZM862.303 111L864.453 111.01V116.99L862.303 117V111ZM878.455 111L884.455 111.01V116.99L878.455 117V111ZM897.455 111L903.455 111.01V116.99L897.455 117V111ZM928.453 111L934.453 111.01V116.99L928.453 117V111ZM960.457 111L962.607 111.01V116.99L960.457 117V111ZM976.609 111L982.609 111.01V116.99L976.609 117V111ZM995.609 111L1001.61 111.01V116.99L995.609 117V111ZM1014.61 111L1016.76 111.01V116.99L1014.61 117V111ZM1030.76 111L1032.91 111.01V116.99L1030.76 117V111ZM1058.91 111L1064.91 111.01V116.99L1058.91 117V111ZM1090.92 111L1093.07 111.01V116.99L1090.92 117V111ZM1107.07 111L1113.07 111.01V116.99L1107.07 117V111ZM1126.07 111L1132.07 111.01V116.99L1126.07 117V111ZM1157.07 111L1163.07 111.01V116.99L1157.07 117V111ZM1189.07 111L1191.22 111.01V116.99L1189.07 117V111ZM1205.22 111L1211.22 111.01V116.99L1205.22 117V111ZM1224.22 111L1230.22 111.01V116.99L1224.22 117V111ZM1243.22 111L1245.37 111.01V116.99L1243.22 117V111ZM1259.37 111L1261.52 111.01V116.99L1259.37 117V111ZM1287.53 111L1293.53 111.01V116.99L1287.53 117V111ZM1319.53 111L1321.68 111.01V116.99L1319.53 117V111ZM1335.68 111L1341.68 111.01V116.99L1335.68 117V111ZM1354.68 111L1360.68 111.01V116.99L1354.68 117V111ZM1385.68 111L1391.68 111.01V116.99L1385.68 117V111ZM1417.68 111L1419.83 111.01V116.99L1417.68 117V111ZM1433.84 111L1439.84 111.01V116.99L1433.84 117V111ZM1452.84 111L1458.84 111.01V116.99L1452.84 117V111ZM1471.83 111L1473.98 111.01V116.99L1471.83 117V111ZM1487.99 111L1490.14 111.01V116.99L1487.99 117V111ZM1516.14 111L1522.14 111.01V116.99L1516.14 117V111ZM1548.14 111L1550.29 111.01V116.99L1548.14 117V111ZM1564.29 111L1570.29 111.01V116.99L1564.29 117V111ZM1583.29 111L1589.29 111.01V116.99L1583.29 117V111ZM1614.29 111L1620.29 111.01V116.99L1614.29 117V111ZM2 126L4.15 126.01V131.99L2 132V126ZM18.1523 126L24.1523 126.01V131.99L18.1523 132V126ZM37.1523 126L43.1523 126.01V131.99L37.1523 132V126ZM56.1504 126L58.3004 126.01V131.99L56.1504 132V126ZM72.3027 126L74.4527 126.01V131.99L72.3027 132V126ZM100.455 126L106.455 126.01V131.99L100.455 132V126ZM132.459 126L134.609 126.01V131.99L132.459 132V126ZM148.611 126L154.611 126.01V131.99L148.611 132V126ZM167.611 126L173.611 126.01V131.99L167.611 132V126ZM198.609 126L204.609 126.01V131.99L198.609 132V126ZM230.613 126L232.763 126.01V131.99L230.613 132V126ZM246.766 126L252.766 126.01V131.99L246.766 132V126ZM265.766 126L271.766 126.01V131.99L265.766 132V126ZM284.764 126L286.914 126.01V131.99L284.764 132V126ZM300.916 126L303.066 126.01V131.99L300.916 132V126ZM329.068 126L335.068 126.01V131.99L329.068 132V126ZM361.072 126L363.222 126.01V131.99L361.072 132V126ZM377.225 126L383.225 126.01V131.99L377.225 132V126ZM396.225 126L402.225 126.01V131.99L396.225 132V126ZM427.223 126L433.223 126.01V131.99L427.223 132V126ZM459.227 126L461.377 126.01V131.99L459.227 132V126ZM475.379 126L481.379 126.01V131.99L475.379 132V126ZM494.379 126L500.379 126.01V131.99L494.379 132V126ZM513.377 126L515.527 126.01V131.99L513.377 132V126ZM529.529 126L531.679 126.01V131.99L529.529 132V126ZM557.682 126L563.682 126.01V131.99L557.682 132V126ZM589.686 126L591.836 126.01V131.99L589.686 132V126ZM605.838 126L611.838 126.01V131.99L605.838 132V126ZM624.838 126L630.838 126.01V131.99L624.838 132V126ZM655.836 126L661.836 126.01V131.99L655.836 132V126ZM687.84 126L689.99 126.01V131.99L687.84 132V126ZM703.992 126L709.992 126.01V131.99L703.992 132V126ZM722.992 126L728.992 126.01V131.99L722.992 132V126ZM741.99 126L744.14 126.01V131.99L741.99 132V126ZM758.143 126L760.293 126.01V131.99L758.143 132V126ZM786.295 126L792.295 126.01V131.99L786.295 132V126ZM818.299 126L820.449 126.01V131.99L818.299 132V126ZM834.451 126L840.451 126.01V131.99L834.451 132V126ZM853.451 126L859.451 126.01V131.99L853.451 132V126ZM884.449 126L890.449 126.01V131.99L884.449 132V126ZM916.453 126L918.603 126.01V131.99L916.453 132V126ZM932.605 126L938.605 126.01V131.99L932.605 132V126ZM951.605 126L957.605 126.01V131.99L951.605 132V126ZM970.604 126L972.754 126.01V131.99L970.604 132V126ZM986.756 126L988.906 126.01V131.99L986.756 132V126ZM1014.91 126L1020.91 126.01V131.99L1014.91 132V126ZM1046.91 126L1049.06 126.01V131.99L1046.91 132V126ZM1063.06 126L1069.06 126.01V131.99L1063.06 132V126ZM1082.06 126L1088.06 126.01V131.99L1082.06 132V126ZM1113.06 126L1119.06 126.01V131.99L1113.06 132V126ZM1145.07 126L1147.22 126.01V131.99L1145.07 132V126ZM1161.22 126L1167.22 126.01V131.99L1161.22 132V126ZM1180.22 126L1186.22 126.01V131.99L1180.22 132V126ZM1199.22 126L1201.37 126.01V131.99L1199.22 132V126ZM1215.37 126L1217.52 126.01V131.99L1215.37 132V126ZM1243.52 126L1249.52 126.01V131.99L1243.52 132V126ZM1275.53 126L1277.68 126.01V131.99L1275.53 132V126ZM1291.68 126L1297.68 126.01V131.99L1291.68 132V126ZM1310.68 126L1316.68 126.01V131.99L1310.68 132V126ZM1341.68 126L1347.68 126.01V131.99L1341.68 132V126ZM1373.68 126L1375.83 126.01V131.99L1373.68 132V126ZM1389.83 126L1395.83 126.01V131.99L1389.83 132V126ZM1408.83 126L1414.83 126.01V131.99L1408.83 132V126ZM1427.83 126L1429.98 126.01V131.99L1427.83 132V126ZM1443.98 126L1446.13 126.01V131.99L1443.98 132V126ZM1472.13 126L1478.13 126.01V131.99L1472.13 132V126ZM1504.14 126L1506.29 126.01V131.99L1504.14 132V126ZM1520.29 126L1526.29 126.01V131.99L1520.29 132V126ZM1539.29 126L1545.29 126.01V131.99L1539.29 132V126ZM1570.29 126L1576.29 126.01V131.99L1570.29 132V126ZM1602.29 126L1604.44 126.01V131.99L1602.29 132V126ZM1618.45 126L1624.45 126.01V131.99L1618.45 132V126ZM1 141L7 141.01V146.99L1 147V141ZM19.998 141L22.148 141.01V146.99L19.998 147V141ZM36.1504 141L38.3004 141.01V146.99L36.1504 147V141ZM64.3027 141L70.3027 141.01V146.99L64.3027 147V141ZM96.3066 141L98.4566 141.01V146.99L96.3066 147V141ZM112.459 141L118.459 141.01V146.99L112.459 147V141ZM131.459 141L137.459 141.01V146.99L131.459 147V141ZM162.457 141L168.457 141.01V146.99L162.457 147V141ZM194.461 141L196.611 141.01V146.99L194.461 147V141ZM210.613 141L216.613 141.01V146.99L210.613 147V141ZM229.613 141L235.613 141.01V146.99L229.613 147V141ZM248.611 141L250.761 141.01V146.99L248.611 147V141ZM264.764 141L266.914 141.01V146.99L264.764 147V141ZM292.916 141L298.916 141.01V146.99L292.916 147V141ZM324.92 141L327.07 141.01V146.99L324.92 147V141ZM341.072 141L347.072 141.01V146.99L341.072 147V141ZM360.072 141L366.072 141.01V146.99L360.072 147V141ZM391.07 141L397.07 141.01V146.99L391.07 147V141ZM423.074 141L425.224 141.01V146.99L423.074 147V141ZM439.227 141L445.227 141.01V146.99L439.227 147V141ZM458.227 141L464.227 141.01V146.99L458.227 147V141ZM477.225 141L479.375 141.01V146.99L477.225 147V141ZM493.377 141L495.527 141.01V146.99L493.377 147V141ZM521.529 141L527.529 141.01V146.99L521.529 147V141ZM553.533 141L555.683 141.01V146.99L553.533 147V141ZM569.686 141L575.686 141.01V146.99L569.686 147V141ZM588.686 141L594.686 141.01V146.99L588.686 147V141ZM619.684 141L625.684 141.01V146.99L619.684 147V141ZM651.688 141L653.838 141.01V146.99L651.688 147V141ZM667.84 141L673.84 141.01V146.99L667.84 147V141ZM686.84 141L692.84 141.01V146.99L686.84 147V141ZM705.838 141L707.988 141.01V146.99L705.838 147V141ZM721.99 141L724.14 141.01V146.99L721.99 147V141ZM750.143 141L756.143 141.01V146.99L750.143 147V141ZM782.146 141L784.296 141.01V146.99L782.146 147V141ZM798.299 141L804.299 141.01V146.99L798.299 147V141ZM817.299 141L823.299 141.01V146.99L817.299 147V141ZM848.297 141L854.297 141.01V146.99L848.297 147V141ZM880.301 141L882.451 141.01V146.99L880.301 147V141ZM896.453 141L902.453 141.01V146.99L896.453 147V141ZM915.453 141L921.453 141.01V146.99L915.453 147V141ZM934.451 141L936.601 141.01V146.99L934.451 147V141ZM950.604 141L952.754 141.01V146.99L950.604 147V141ZM978.756 141L984.756 141.01V146.99L978.756 147V141ZM1010.76 141L1012.91 141.01V146.99L1010.76 147V141ZM1026.91 141L1032.91 141.01V146.99L1026.91 147V141ZM1045.91 141L1051.91 141.01V146.99L1045.91 147V141ZM1076.91 141L1082.91 141.01V146.99L1076.91 147V141ZM1108.91 141L1111.06 141.01V146.99L1108.91 147V141ZM1125.07 141L1131.07 141.01V146.99L1125.07 147V141ZM1144.07 141L1150.07 141.01V146.99L1144.07 147V141ZM1163.06 141L1165.21 141.01V146.99L1163.06 147V141ZM1179.22 141L1181.37 141.01V146.99L1179.22 147V141ZM1207.37 141L1213.37 141.01V146.99L1207.37 147V141ZM1239.37 141L1241.52 141.01V146.99L1239.37 147V141ZM1255.53 141L1261.53 141.01V146.99L1255.53 147V141ZM1274.53 141L1280.53 141.01V146.99L1274.53 147V141ZM1305.52 141L1311.52 141.01V146.99L1305.52 147V141ZM1337.53 141L1339.68 141.01V146.99L1337.53 147V141ZM1353.68 141L1359.68 141.01V146.99L1353.68 147V141ZM1372.68 141L1378.68 141.01V146.99L1372.68 147V141ZM1391.68 141L1393.83 141.01V146.99L1391.68 147V141ZM1407.83 141L1409.98 141.01V146.99L1407.83 147V141ZM1435.98 141L1441.98 141.01V146.99L1435.98 147V141ZM1467.99 141L1470.14 141.01V146.99L1467.99 147V141ZM1484.14 141L1490.14 141.01V146.99L1484.14 147V141ZM1503.14 141L1509.14 141.01V146.99L1503.14 147V141ZM1534.14 141L1540.14 141.01V146.99L1534.14 147V141ZM1566.14 141L1568.29 141.01V146.99L1566.14 147V141ZM1582.29 141L1588.29 141.01V146.99L1582.29 147V141ZM1601.29 141L1607.29 141.01V146.99L1601.29 147V141ZM1620.29 141L1622.44 141.01V146.99L1620.29 147V141ZM2 156L4.15 156.01V161.99L2 162V156ZM30.1523 156L36.1523 156.01V161.99L30.1523 162V156ZM62.1563 156L64.3063 156.01V161.99L62.1563 162V156ZM78.3086 156L84.3086 156.01V161.99L78.3086 162V156ZM97.3086 156L103.309 156.01V161.99L97.3086 162V156ZM128.307 156L134.307 156.01V161.99L128.307 162V156ZM160.311 156L162.461 156.01V161.99L160.311 162V156ZM176.463 156L182.463 156.01V161.99L176.463 162V156ZM195.463 156L201.463 156.01V161.99L195.463 162V156ZM214.461 156L216.611 156.01V161.99L214.461 162V156ZM230.613 156L232.763 156.01V161.99L230.613 162V156ZM258.766 156L264.766 156.01V161.99L258.766 162V156ZM290.77 156L292.92 156.01V161.99L290.77 162V156ZM306.922 156L312.922 156.01V161.99L306.922 162V156ZM325.922 156L331.922 156.01V161.99L325.922 162V156ZM356.92 156L362.92 156.01V161.99L356.92 162V156ZM388.924 156L391.074 156.01V161.99L388.924 162V156ZM405.076 156L411.076 156.01V161.99L405.076 162V156ZM424.076 156L430.076 156.01V161.99L424.076 162V156ZM443.074 156L445.224 156.01V161.99L443.074 162V156ZM459.227 156L461.377 156.01V161.99L459.227 162V156ZM487.379 156L493.379 156.01V161.99L487.379 162V156ZM519.383 156L521.533 156.01V161.99L519.383 162V156ZM535.535 156L541.535 156.01V161.99L535.535 162V156ZM554.535 156L560.535 156.01V161.99L554.535 162V156ZM585.533 156L591.533 156.01V161.99L585.533 162V156ZM617.537 156L619.687 156.01V161.99L617.537 162V156ZM633.689 156L639.689 156.01V161.99L633.689 162V156ZM652.689 156L658.689 156.01V161.99L652.689 162V156ZM671.688 156L673.838 156.01V161.99L671.688 162V156ZM687.84 156L689.99 156.01V161.99L687.84 162V156ZM715.992 156L721.992 156.01V161.99L715.992 162V156ZM747.996 156L750.146 156.01V161.99L747.996 162V156ZM764.148 156L770.148 156.01V161.99L764.148 162V156ZM783.148 156L789.148 156.01V161.99L783.148 162V156ZM814.146 156L820.146 156.01V161.99L814.146 162V156ZM846.15 156L848.3 156.01V161.99L846.15 162V156ZM862.303 156L868.303 156.01V161.99L862.303 162V156ZM881.303 156L887.303 156.01V161.99L881.303 162V156ZM900.301 156L902.451 156.01V161.99L900.301 162V156ZM916.453 156L918.603 156.01V161.99L916.453 162V156ZM944.605 156L950.605 156.01V161.99L944.605 162V156ZM976.609 156L978.759 156.01V161.99L976.609 162V156ZM992.762 156L998.762 156.01V161.99L992.762 162V156ZM1011.76 156L1017.76 156.01V161.99L1011.76 162V156ZM1042.76 156L1048.76 156.01V161.99L1042.76 162V156ZM1074.76 156L1076.91 156.01V161.99L1074.76 162V156ZM1090.92 156L1096.92 156.01V161.99L1090.92 162V156ZM1109.92 156L1115.92 156.01V161.99L1109.92 162V156ZM1128.91 156L1131.06 156.01V161.99L1128.91 162V156ZM1145.07 156L1147.22 156.01V161.99L1145.07 162V156ZM1173.22 156L1179.22 156.01V161.99L1173.22 162V156ZM1205.22 156L1207.37 156.01V161.99L1205.22 162V156ZM1221.38 156L1227.38 156.01V161.99L1221.38 162V156ZM1240.38 156L1246.38 156.01V161.99L1240.38 162V156ZM1271.37 156L1277.37 156.01V161.99L1271.37 162V156ZM1303.38 156L1305.53 156.01V161.99L1303.38 162V156ZM1319.53 156L1325.53 156.01V161.99L1319.53 162V156ZM1338.53 156L1344.53 156.01V161.99L1338.53 162V156ZM1357.53 156L1359.68 156.01V161.99L1357.53 162V156ZM1373.68 156L1375.83 156.01V161.99L1373.68 162V156ZM1401.83 156L1407.83 156.01V161.99L1401.83 162V156ZM1433.84 156L1435.99 156.01V161.99L1433.84 162V156ZM1449.99 156L1455.99 156.01V161.99L1449.99 162V156ZM1468.99 156L1474.99 156.01V161.99L1468.99 162V156ZM1499.99 156L1505.99 156.01V161.99L1499.99 162V156ZM1531.99 156L1534.14 156.01V161.99L1531.99 162V156ZM1548.14 156L1554.14 156.01V161.99L1548.14 162V156ZM1567.14 156L1573.14 156.01V161.99L1567.14 162V156ZM1586.14 156L1588.29 156.01V161.99L1586.14 162V156ZM1602.29 156L1604.44 156.01V161.99L1602.29 162V156ZM14 171L20 171.01V176.99L14 177V171ZM46.0039 171L48.1539 171.01V176.99L46.0039 177V171ZM62.1563 171L68.1563 171.01V176.99L62.1563 177V171ZM81.1563 171L87.1563 171.01V176.99L81.1563 177V171ZM112.154 171L118.154 171.01V176.99L112.154 177V171ZM144.158 171L146.308 171.01V176.99L144.158 177V171ZM160.311 171L166.311 171.01V176.99L160.311 177V171ZM179.311 171L185.311 171.01V176.99L179.311 177V171ZM198.309 171L200.459 171.01V176.99L198.309 177V171ZM214.461 171L216.611 171.01V176.99L214.461 177V171ZM242.613 171L248.613 171.01V176.99L242.613 177V171ZM274.617 171L276.767 171.01V176.99L274.617 177V171ZM290.77 171L296.77 171.01V176.99L290.77 177V171ZM309.77 171L315.77 171.01V176.99L309.77 177V171ZM340.768 171L346.768 171.01V176.99L340.768 177V171ZM372.771 171L374.921 171.01V176.99L372.771 177V171ZM388.924 171L394.924 171.01V176.99L388.924 177V171ZM407.924 171L413.924 171.01V176.99L407.924 177V171ZM426.922 171L429.072 171.01V176.99L426.922 177V171ZM443.074 171L445.224 171.01V176.99L443.074 177V171ZM471.227 171L477.227 171.01V176.99L471.227 177V171ZM503.23 171L505.38 171.01V176.99L503.23 177V171ZM519.383 171L525.383 171.01V176.99L519.383 177V171ZM538.383 171L544.383 171.01V176.99L538.383 177V171ZM569.381 171L575.381 171.01V176.99L569.381 177V171ZM601.385 171L603.535 171.01V176.99L601.385 177V171ZM617.537 171L623.537 171.01V176.99L617.537 177V171ZM636.537 171L642.537 171.01V176.99L636.537 177V171ZM655.535 171L657.685 171.01V176.99L655.535 177V171ZM671.688 171L673.838 171.01V176.99L671.688 177V171ZM699.84 171L705.84 171.01V176.99L699.84 177V171ZM731.844 171L733.994 171.01V176.99L731.844 177V171ZM747.996 171L753.996 171.01V176.99L747.996 177V171ZM766.996 171L772.996 171.01V176.99L766.996 177V171ZM797.994 171L803.994 171.01V176.99L797.994 177V171ZM829.998 171L832.148 171.01V176.99L829.998 177V171ZM846.15 171L852.15 171.01V176.99L846.15 177V171ZM865.15 171L871.15 171.01V176.99L865.15 177V171ZM884.148 171L886.298 171.01V176.99L884.148 177V171ZM900.301 171L902.451 171.01V176.99L900.301 177V171ZM928.453 171L934.453 171.01V176.99L928.453 177V171ZM960.457 171L962.607 171.01V176.99L960.457 177V171ZM976.609 171L982.609 171.01V176.99L976.609 177V171ZM995.609 171L1001.61 171.01V176.99L995.609 177V171ZM1026.61 171L1032.61 171.01V176.99L1026.61 177V171ZM1058.61 171L1060.76 171.01V176.99L1058.61 177V171ZM1074.76 171L1080.76 171.01V176.99L1074.76 177V171ZM1093.76 171L1099.76 171.01V176.99L1093.76 177V171ZM1112.76 171L1114.91 171.01V176.99L1112.76 177V171ZM1128.91 171L1131.06 171.01V176.99L1128.91 177V171ZM1157.07 171L1163.07 171.01V176.99L1157.07 177V171ZM1189.07 171L1191.22 171.01V176.99L1189.07 177V171ZM1205.22 171L1211.22 171.01V176.99L1205.22 177V171ZM1224.22 171L1230.22 171.01V176.99L1224.22 177V171ZM1255.22 171L1261.22 171.01V176.99L1255.22 177V171ZM1287.22 171L1289.37 171.01V176.99L1287.22 177V171ZM1303.38 171L1309.38 171.01V176.99L1303.38 177V171ZM1322.38 171L1328.38 171.01V176.99L1322.38 177V171ZM1341.38 171L1343.53 171.01V176.99L1341.38 177V171ZM1357.53 171L1359.68 171.01V176.99L1357.53 177V171ZM1385.68 171L1391.68 171.01V176.99L1385.68 177V171ZM1417.68 171L1419.83 171.01V176.99L1417.68 177V171ZM1433.84 171L1439.84 171.01V176.99L1433.84 177V171ZM1452.84 171L1458.84 171.01V176.99L1452.84 177V171ZM1483.83 171L1489.83 171.01V176.99L1483.83 177V171ZM1515.84 171L1517.99 171.01V176.99L1515.84 177V171ZM1531.99 171L1537.99 171.01V176.99L1531.99 177V171ZM1550.99 171L1556.99 171.01V176.99L1550.99 177V171ZM1569.99 171L1572.14 171.01V176.99L1569.99 177V171ZM1586.14 171L1588.29 171.01V176.99L1586.14 177V171ZM1614.29 171L1620.29 171.01V176.99L1614.29 177V171ZM2 186L4.15 186.01V191.99L2 192V186ZM18.1523 186L24.1523 186.01V191.99L18.1523 192V186ZM37.1523 186L43.1523 186.01V191.99L37.1523 192V186ZM68.1504 186L74.1504 186.01V191.99L68.1504 192V186ZM100.154 186L102.304 186.01V191.99L100.154 192V186ZM116.307 186L122.307 186.01V191.99L116.307 192V186ZM135.307 186L141.307 186.01V191.99L135.307 192V186ZM154.305 186L156.455 186.01V191.99L154.305 192V186ZM170.457 186L172.607 186.01V191.99L170.457 192V186ZM198.609 186L204.609 186.01V191.99L198.609 192V186ZM230.613 186L232.763 186.01V191.99L230.613 192V186ZM246.766 186L252.766 186.01V191.99L246.766 192V186ZM265.766 186L271.766 186.01V191.99L265.766 192V186ZM296.764 186L302.764 186.01V191.99L296.764 192V186ZM328.768 186L330.918 186.01V191.99L328.768 192V186ZM344.92 186L350.92 186.01V191.99L344.92 192V186ZM363.92 186L369.92 186.01V191.99L363.92 192V186ZM382.918 186L385.068 186.01V191.99L382.918 192V186ZM399.07 186L401.22 186.01V191.99L399.07 192V186ZM427.223 186L433.223 186.01V191.99L427.223 192V186ZM459.227 186L461.377 186.01V191.99L459.227 192V186ZM475.379 186L481.379 186.01V191.99L475.379 192V186ZM494.379 186L500.379 186.01V191.99L494.379 192V186ZM525.377 186L531.377 186.01V191.99L525.377 192V186ZM557.381 186L559.531 186.01V191.99L557.381 192V186ZM573.533 186L579.533 186.01V191.99L573.533 192V186ZM592.533 186L598.533 186.01V191.99L592.533 192V186ZM611.531 186L613.681 186.01V191.99L611.531 192V186ZM627.684 186L629.834 186.01V191.99L627.684 192V186ZM655.836 186L661.836 186.01V191.99L655.836 192V186ZM687.84 186L689.99 186.01V191.99L687.84 192V186ZM703.992 186L709.992 186.01V191.99L703.992 192V186ZM722.992 186L728.992 186.01V191.99L722.992 192V186ZM753.99 186L759.99 186.01V191.99L753.99 192V186ZM785.994 186L788.144 186.01V191.99L785.994 192V186ZM802.146 186L808.146 186.01V191.99L802.146 192V186ZM821.146 186L827.146 186.01V191.99L821.146 192V186ZM840.145 186L842.295 186.01V191.99L840.145 192V186ZM856.297 186L858.447 186.01V191.99L856.297 192V186ZM884.449 186L890.449 186.01V191.99L884.449 192V186ZM916.453 186L918.603 186.01V191.99L916.453 192V186ZM932.605 186L938.605 186.01V191.99L932.605 192V186ZM951.605 186L957.605 186.01V191.99L951.605 192V186ZM982.604 186L988.604 186.01V191.99L982.604 192V186ZM1014.61 186L1016.76 186.01V191.99L1014.61 192V186ZM1030.76 186L1036.76 186.01V191.99L1030.76 192V186ZM1049.76 186L1055.76 186.01V191.99L1049.76 192V186ZM1068.76 186L1070.91 186.01V191.99L1068.76 192V186ZM1084.91 186L1087.06 186.01V191.99L1084.91 192V186ZM1113.06 186L1119.06 186.01V191.99L1113.06 192V186ZM1145.07 186L1147.22 186.01V191.99L1145.07 192V186ZM1161.22 186L1167.22 186.01V191.99L1161.22 192V186ZM1180.22 186L1186.22 186.01V191.99L1180.22 192V186ZM1211.22 186L1217.22 186.01V191.99L1211.22 192V186ZM1243.22 186L1245.37 186.01V191.99L1243.22 192V186ZM1259.37 186L1265.37 186.01V191.99L1259.37 192V186ZM1278.37 186L1284.37 186.01V191.99L1278.37 192V186ZM1297.37 186L1299.52 186.01V191.99L1297.37 192V186ZM1313.52 186L1315.67 186.01V191.99L1313.52 192V186ZM1341.68 186L1347.68 186.01V191.99L1341.68 192V186ZM1373.68 186L1375.83 186.01V191.99L1373.68 192V186ZM1389.83 186L1395.83 186.01V191.99L1389.83 192V186ZM1408.83 186L1414.83 186.01V191.99L1408.83 192V186ZM1439.83 186L1445.83 186.01V191.99L1439.83 192V186ZM1471.83 186L1473.98 186.01V191.99L1471.83 192V186ZM1487.99 186L1493.99 186.01V191.99L1487.99 192V186ZM1506.99 186L1512.99 186.01V191.99L1506.99 192V186ZM1525.98 186L1528.13 186.01V191.99L1525.98 192V186ZM1542.14 186L1544.29 186.01V191.99L1542.14 192V186ZM1570.29 186L1576.29 186.01V191.99L1570.29 192V186ZM1602.29 186L1604.44 186.01V191.99L1602.29 192V186ZM1618.45 186L1624.45 186.01V191.99L1618.45 192V186ZM1 201L7 201.01V206.99L1 207V201ZM31.998 201L37.998 201.01V206.99L31.998 207V201ZM64.002 201L66.152 201.01V206.99L64.002 207V201ZM80.1543 201L86.1543 201.01V206.99L80.1543 207V201ZM99.1543 201L105.154 201.01V206.99L99.1543 207V201ZM118.152 201L120.302 201.01V206.99L118.152 207V201ZM134.305 201L136.455 201.01V206.99L134.305 207V201ZM162.457 201L168.457 201.01V206.99L162.457 207V201ZM194.461 201L196.611 201.01V206.99L194.461 207V201ZM210.613 201L216.613 201.01V206.99L210.613 207V201ZM229.613 201L235.613 201.01V206.99L229.613 207V201ZM260.611 201L266.611 201.01V206.99L260.611 207V201ZM292.615 201L294.765 201.01V206.99L292.615 207V201ZM308.768 201L314.768 201.01V206.99L308.768 207V201ZM327.768 201L333.768 201.01V206.99L327.768 207V201ZM346.766 201L348.916 201.01V206.99L346.766 207V201ZM362.918 201L365.068 201.01V206.99L362.918 207V201ZM391.07 201L397.07 201.01V206.99L391.07 207V201ZM423.074 201L425.224 201.01V206.99L423.074 207V201ZM439.227 201L445.227 201.01V206.99L439.227 207V201ZM458.227 201L464.227 201.01V206.99L458.227 207V201ZM489.225 201L495.225 201.01V206.99L489.225 207V201ZM521.229 201L523.379 201.01V206.99L521.229 207V201ZM537.381 201L543.381 201.01V206.99L537.381 207V201ZM556.381 201L562.381 201.01V206.99L556.381 207V201ZM575.379 201L577.529 201.01V206.99L575.379 207V201ZM591.531 201L593.681 201.01V206.99L591.531 207V201ZM619.684 201L625.684 201.01V206.99L619.684 207V201ZM651.688 201L653.838 201.01V206.99L651.688 207V201ZM667.84 201L673.84 201.01V206.99L667.84 207V201ZM686.84 201L692.84 201.01V206.99L686.84 207V201ZM717.838 201L723.838 201.01V206.99L717.838 207V201ZM749.842 201L751.992 201.01V206.99L749.842 207V201ZM765.994 201L771.994 201.01V206.99L765.994 207V201ZM784.994 201L790.994 201.01V206.99L784.994 207V201ZM803.992 201L806.142 201.01V206.99L803.992 207V201ZM820.145 201L822.295 201.01V206.99L820.145 207V201ZM848.297 201L854.297 201.01V206.99L848.297 207V201ZM880.301 201L882.451 201.01V206.99L880.301 207V201ZM896.453 201L902.453 201.01V206.99L896.453 207V201ZM915.453 201L921.453 201.01V206.99L915.453 207V201ZM946.451 201L952.451 201.01V206.99L946.451 207V201ZM978.455 201L980.605 201.01V206.99L978.455 207V201ZM994.607 201L1000.61 201.01V206.99L994.607 207V201ZM1013.61 201L1019.61 201.01V206.99L1013.61 207V201ZM1032.61 201L1034.76 201.01V206.99L1032.61 207V201ZM1048.76 201L1050.91 201.01V206.99L1048.76 207V201ZM1076.91 201L1082.91 201.01V206.99L1076.91 207V201ZM1108.91 201L1111.06 201.01V206.99L1108.91 207V201ZM1125.07 201L1131.07 201.01V206.99L1125.07 207V201ZM1144.07 201L1150.07 201.01V206.99L1144.07 207V201ZM1175.06 201L1181.06 201.01V206.99L1175.06 207V201ZM1207.07 201L1209.22 201.01V206.99L1207.07 207V201ZM1223.22 201L1229.22 201.01V206.99L1223.22 207V201ZM1242.22 201L1248.22 201.01V206.99L1242.22 207V201ZM1261.22 201L1263.37 201.01V206.99L1261.22 207V201ZM1277.37 201L1279.52 201.01V206.99L1277.37 207V201ZM1305.52 201L1311.52 201.01V206.99L1305.52 207V201ZM1337.53 201L1339.68 201.01V206.99L1337.53 207V201ZM1353.68 201L1359.68 201.01V206.99L1353.68 207V201ZM1372.68 201L1378.68 201.01V206.99L1372.68 207V201ZM1403.68 201L1409.68 201.01V206.99L1403.68 207V201ZM1435.68 201L1437.83 201.01V206.99L1435.68 207V201ZM1451.83 201L1457.83 201.01V206.99L1451.83 207V201ZM1470.83 201L1476.83 201.01V206.99L1470.83 207V201ZM1489.83 201L1491.98 201.01V206.99L1489.83 207V201ZM1505.98 201L1508.13 201.01V206.99L1505.98 207V201ZM1534.14 201L1540.14 201.01V206.99L1534.14 207V201ZM1566.14 201L1568.29 201.01V206.99L1566.14 207V201ZM1582.29 201L1588.29 201.01V206.99L1582.29 207V201ZM1601.29 201L1607.29 201.01V206.99L1601.29 207V201ZM14 216L20 216.01V221.99L14 222V216ZM46.0039 216L48.1539 216.01V221.99L46.0039 222V216ZM62.1563 216L68.1563 216.01V221.99L62.1563 222V216ZM81.1563 216L87.1563 216.01V221.99L81.1563 222V216ZM100.154 216L102.304 216.01V221.99L100.154 222V216ZM116.307 216L118.457 216.01V221.99L116.307 222V216ZM144.459 216L150.459 216.01V221.99L144.459 222V216ZM176.463 216L178.613 216.01V221.99L176.463 222V216ZM192.615 216L198.615 216.01V221.99L192.615 222V216ZM211.615 216L217.615 216.01V221.99L211.615 222V216ZM242.613 216L248.613 216.01V221.99L242.613 222V216ZM274.617 216L276.767 216.01V221.99L274.617 222V216ZM290.77 216L296.77 216.01V221.99L290.77 222V216ZM309.77 216L315.77 216.01V221.99L309.77 222V216ZM328.768 216L330.918 216.01V221.99L328.768 222V216ZM344.92 216L347.07 216.01V221.99L344.92 222V216ZM373.072 216L379.072 216.01V221.99L373.072 222V216ZM405.076 216L407.226 216.01V221.99L405.076 222V216ZM421.229 216L427.229 216.01V221.99L421.229 222V216ZM440.229 216L446.229 216.01V221.99L440.229 222V216ZM471.227 216L477.227 216.01V221.99L471.227 222V216ZM503.23 216L505.38 216.01V221.99L503.23 222V216ZM519.383 216L525.383 216.01V221.99L519.383 222V216ZM538.383 216L544.383 216.01V221.99L538.383 222V216ZM557.381 216L559.531 216.01V221.99L557.381 222V216ZM573.533 216L575.683 216.01V221.99L573.533 222V216ZM601.686 216L607.686 216.01V221.99L601.686 222V216ZM633.689 216L635.839 216.01V221.99L633.689 222V216ZM649.842 216L655.842 216.01V221.99L649.842 222V216ZM668.842 216L674.842 216.01V221.99L668.842 222V216ZM699.84 216L705.84 216.01V221.99L699.84 222V216ZM731.844 216L733.994 216.01V221.99L731.844 222V216ZM747.996 216L753.996 216.01V221.99L747.996 222V216ZM766.996 216L772.996 216.01V221.99L766.996 222V216ZM785.994 216L788.144 216.01V221.99L785.994 222V216ZM802.146 216L804.296 216.01V221.99L802.146 222V216ZM830.299 216L836.299 216.01V221.99L830.299 222V216ZM862.303 216L864.453 216.01V221.99L862.303 222V216ZM878.455 216L884.455 216.01V221.99L878.455 222V216ZM897.455 216L903.455 216.01V221.99L897.455 222V216ZM928.453 216L934.453 216.01V221.99L928.453 222V216ZM960.457 216L962.607 216.01V221.99L960.457 222V216ZM976.609 216L982.609 216.01V221.99L976.609 222V216ZM995.609 216L1001.61 216.01V221.99L995.609 222V216ZM1014.61 216L1016.76 216.01V221.99L1014.61 222V216ZM1030.76 216L1032.91 216.01V221.99L1030.76 222V216ZM1058.91 216L1064.91 216.01V221.99L1058.91 222V216ZM1090.92 216L1093.07 216.01V221.99L1090.92 222V216ZM1107.07 216L1113.07 216.01V221.99L1107.07 222V216ZM1126.07 216L1132.07 216.01V221.99L1126.07 222V216ZM1157.07 216L1163.07 216.01V221.99L1157.07 222V216ZM1189.07 216L1191.22 216.01V221.99L1189.07 222V216ZM1205.22 216L1211.22 216.01V221.99L1205.22 222V216ZM1224.22 216L1230.22 216.01V221.99L1224.22 222V216ZM1243.22 216L1245.37 216.01V221.99L1243.22 222V216ZM1259.37 216L1261.52 216.01V221.99L1259.37 222V216ZM1287.53 216L1293.53 216.01V221.99L1287.53 222V216ZM1319.53 216L1321.68 216.01V221.99L1319.53 222V216ZM1335.68 216L1341.68 216.01V221.99L1335.68 222V216ZM1354.68 216L1360.68 216.01V221.99L1354.68 222V216ZM1385.68 216L1391.68 216.01V221.99L1385.68 222V216ZM1417.68 216L1419.83 216.01V221.99L1417.68 222V216ZM1433.84 216L1439.84 216.01V221.99L1433.84 222V216ZM1452.84 216L1458.84 216.01V221.99L1452.84 222V216ZM1471.83 216L1473.98 216.01V221.99L1471.83 222V216ZM1487.99 216L1490.14 216.01V221.99L1487.99 222V216ZM1516.14 216L1522.14 216.01V221.99L1516.14 222V216ZM1548.14 216L1550.29 216.01V221.99L1548.14 222V216ZM1564.29 216L1570.29 216.01V221.99L1564.29 222V216ZM1583.29 216L1589.29 216.01V221.99L1583.29 222V216ZM1614.29 216L1620.29 216.01V221.99L1614.29 222V216ZM2 231L4.15 231.01V236.99L2 237V231ZM18.1523 231L24.1523 231.01V236.99L18.1523 237V231ZM37.1523 231L43.1523 231.01V236.99L37.1523 237V231ZM56.1504 231L58.3004 231.01V236.99L56.1504 237V231ZM72.3027 231L74.4527 231.01V236.99L72.3027 237V231ZM100.455 231L106.455 231.01V236.99L100.455 237V231ZM132.459 231L134.609 231.01V236.99L132.459 237V231ZM148.611 231L154.611 231.01V236.99L148.611 237V231ZM167.611 231L173.611 231.01V236.99L167.611 237V231ZM198.609 231L204.609 231.01V236.99L198.609 237V231ZM230.613 231L232.763 231.01V236.99L230.613 237V231ZM246.766 231L252.766 231.01V236.99L246.766 237V231ZM265.766 231L271.766 231.01V236.99L265.766 237V231ZM284.764 231L286.914 231.01V236.99L284.764 237V231ZM300.916 231L303.066 231.01V236.99L300.916 237V231ZM329.068 231L335.068 231.01V236.99L329.068 237V231ZM361.072 231L363.222 231.01V236.99L361.072 237V231ZM377.225 231L383.225 231.01V236.99L377.225 237V231ZM396.225 231L402.225 231.01V236.99L396.225 237V231ZM427.223 231L433.223 231.01V236.99L427.223 237V231ZM459.227 231L461.377 231.01V236.99L459.227 237V231ZM475.379 231L481.379 231.01V236.99L475.379 237V231ZM494.379 231L500.379 231.01V236.99L494.379 237V231ZM513.377 231L515.527 231.01V236.99L513.377 237V231ZM529.529 231L531.679 231.01V236.99L529.529 237V231ZM557.682 231L563.682 231.01V236.99L557.682 237V231ZM589.686 231L591.836 231.01V236.99L589.686 237V231ZM605.838 231L611.838 231.01V236.99L605.838 237V231ZM624.838 231L630.838 231.01V236.99L624.838 237V231ZM655.836 231L661.836 231.01V236.99L655.836 237V231ZM687.84 231L689.99 231.01V236.99L687.84 237V231ZM703.992 231L709.992 231.01V236.99L703.992 237V231ZM722.992 231L728.992 231.01V236.99L722.992 237V231ZM741.99 231L744.14 231.01V236.99L741.99 237V231ZM758.143 231L760.293 231.01V236.99L758.143 237V231ZM786.295 231L792.295 231.01V236.99L786.295 237V231ZM818.299 231L820.449 231.01V236.99L818.299 237V231ZM834.451 231L840.451 231.01V236.99L834.451 237V231ZM853.451 231L859.451 231.01V236.99L853.451 237V231ZM884.449 231L890.449 231.01V236.99L884.449 237V231ZM916.453 231L918.603 231.01V236.99L916.453 237V231ZM932.605 231L938.605 231.01V236.99L932.605 237V231ZM951.605 231L957.605 231.01V236.99L951.605 237V231ZM970.604 231L972.754 231.01V236.99L970.604 237V231ZM986.756 231L988.906 231.01V236.99L986.756 237V231ZM1014.91 231L1020.91 231.01V236.99L1014.91 237V231ZM1046.91 231L1049.06 231.01V236.99L1046.91 237V231ZM1063.06 231L1069.06 231.01V236.99L1063.06 237V231ZM1082.06 231L1088.06 231.01V236.99L1082.06 237V231ZM1113.06 231L1119.06 231.01V236.99L1113.06 237V231ZM1145.07 231L1147.22 231.01V236.99L1145.07 237V231ZM1161.22 231L1167.22 231.01V236.99L1161.22 237V231ZM1180.22 231L1186.22 231.01V236.99L1180.22 237V231ZM1199.22 231L1201.37 231.01V236.99L1199.22 237V231ZM1215.37 231L1217.52 231.01V236.99L1215.37 237V231ZM1243.52 231L1249.52 231.01V236.99L1243.52 237V231ZM1275.53 231L1277.68 231.01V236.99L1275.53 237V231ZM1291.68 231L1297.68 231.01V236.99L1291.68 237V231ZM1310.68 231L1316.68 231.01V236.99L1310.68 237V231ZM1341.68 231L1347.68 231.01V236.99L1341.68 237V231ZM1373.68 231L1375.83 231.01V236.99L1373.68 237V231ZM1389.83 231L1395.83 231.01V236.99L1389.83 237V231ZM1408.83 231L1414.83 231.01V236.99L1408.83 237V231ZM1427.83 231L1429.98 231.01V236.99L1427.83 237V231ZM1443.98 231L1446.13 231.01V236.99L1443.98 237V231ZM1472.13 231L1478.13 231.01V236.99L1472.13 237V231ZM1504.14 231L1506.29 231.01V236.99L1504.14 237V231ZM1520.29 231L1526.29 231.01V236.99L1520.29 237V231ZM1539.29 231L1545.29 231.01V236.99L1539.29 237V231ZM1570.29 231L1576.29 231.01V236.99L1570.29 237V231ZM1602.29 231L1604.44 231.01V236.99L1602.29 237V231ZM1618.45 231L1624.45 231.01V236.99L1618.45 237V231ZM1 246L7 246.01V251.99L1 252V246ZM19.998 246L22.148 246.01V251.99L19.998 252V246ZM36.1504 246L38.3004 246.01V251.99L36.1504 252V246ZM64.3027 246L70.3027 246.01V251.99L64.3027 252V246ZM96.3066 246L98.4566 246.01V251.99L96.3066 252V246ZM112.459 246L118.459 246.01V251.99L112.459 252V246ZM131.459 246L137.459 246.01V251.99L131.459 252V246ZM162.457 246L168.457 246.01V251.99L162.457 252V246ZM194.461 246L196.611 246.01V251.99L194.461 252V246ZM210.613 246L216.613 246.01V251.99L210.613 252V246ZM229.613 246L235.613 246.01V251.99L229.613 252V246ZM248.611 246L250.761 246.01V251.99L248.611 252V246ZM264.764 246L266.914 246.01V251.99L264.764 252V246ZM292.916 246L298.916 246.01V251.99L292.916 252V246ZM324.92 246L327.07 246.01V251.99L324.92 252V246ZM341.072 246L347.072 246.01V251.99L341.072 252V246ZM360.072 246L366.072 246.01V251.99L360.072 252V246ZM391.07 246L397.07 246.01V251.99L391.07 252V246ZM423.074 246L425.224 246.01V251.99L423.074 252V246ZM439.227 246L445.227 246.01V251.99L439.227 252V246ZM458.227 246L464.227 246.01V251.99L458.227 252V246ZM477.225 246L479.375 246.01V251.99L477.225 252V246ZM493.377 246L495.527 246.01V251.99L493.377 252V246ZM521.529 246L527.529 246.01V251.99L521.529 252V246ZM553.533 246L555.683 246.01V251.99L553.533 252V246ZM569.686 246L575.686 246.01V251.99L569.686 252V246ZM588.686 246L594.686 246.01V251.99L588.686 252V246ZM619.684 246L625.684 246.01V251.99L619.684 252V246ZM651.688 246L653.838 246.01V251.99L651.688 252V246ZM667.84 246L673.84 246.01V251.99L667.84 252V246ZM686.84 246L692.84 246.01V251.99L686.84 252V246ZM705.838 246L707.988 246.01V251.99L705.838 252V246ZM721.99 246L724.14 246.01V251.99L721.99 252V246ZM750.143 246L756.143 246.01V251.99L750.143 252V246ZM782.146 246L784.296 246.01V251.99L782.146 252V246ZM798.299 246L804.299 246.01V251.99L798.299 252V246ZM817.299 246L823.299 246.01V251.99L817.299 252V246ZM848.297 246L854.297 246.01V251.99L848.297 252V246ZM880.301 246L882.451 246.01V251.99L880.301 252V246ZM896.453 246L902.453 246.01V251.99L896.453 252V246ZM915.453 246L921.453 246.01V251.99L915.453 252V246ZM934.451 246L936.601 246.01V251.99L934.451 252V246ZM950.604 246L952.754 246.01V251.99L950.604 252V246ZM978.756 246L984.756 246.01V251.99L978.756 252V246ZM1010.76 246L1012.91 246.01V251.99L1010.76 252V246ZM1026.91 246L1032.91 246.01V251.99L1026.91 252V246ZM1045.91 246L1051.91 246.01V251.99L1045.91 252V246ZM1076.91 246L1082.91 246.01V251.99L1076.91 252V246ZM1108.91 246L1111.06 246.01V251.99L1108.91 252V246ZM1125.07 246L1131.07 246.01V251.99L1125.07 252V246ZM1144.07 246L1150.07 246.01V251.99L1144.07 252V246ZM1163.06 246L1165.21 246.01V251.99L1163.06 252V246ZM1179.22 246L1181.37 246.01V251.99L1179.22 252V246ZM1207.37 246L1213.37 246.01V251.99L1207.37 252V246ZM1239.37 246L1241.52 246.01V251.99L1239.37 252V246ZM1255.53 246L1261.53 246.01V251.99L1255.53 252V246ZM1274.53 246L1280.53 246.01V251.99L1274.53 252V246ZM1305.52 246L1311.52 246.01V251.99L1305.52 252V246ZM1337.53 246L1339.68 246.01V251.99L1337.53 252V246ZM1353.68 246L1359.68 246.01V251.99L1353.68 252V246ZM1372.68 246L1378.68 246.01V251.99L1372.68 252V246ZM1391.68 246L1393.83 246.01V251.99L1391.68 252V246ZM1407.83 246L1409.98 246.01V251.99L1407.83 252V246ZM1435.98 246L1441.98 246.01V251.99L1435.98 252V246ZM1467.99 246L1470.14 246.01V251.99L1467.99 252V246ZM1484.14 246L1490.14 246.01V251.99L1484.14 252V246ZM1503.14 246L1509.14 246.01V251.99L1503.14 252V246ZM1534.14 246L1540.14 246.01V251.99L1534.14 252V246ZM1566.14 246L1568.29 246.01V251.99L1566.14 252V246ZM1582.29 246L1588.29 246.01V251.99L1582.29 252V246ZM1601.29 246L1607.29 246.01V251.99L1601.29 252V246ZM1620.29 246L1622.44 246.01V251.99L1620.29 252V246ZM2 261L4.15 261.01V266.99L2 267V261ZM30.1523 261L36.1523 261.01V266.99L30.1523 267V261ZM62.1563 261L64.3063 261.01V266.99L62.1563 267V261ZM78.3086 261L84.3086 261.01V266.99L78.3086 267V261ZM97.3086 261L103.309 261.01V266.99L97.3086 267V261ZM128.307 261L134.307 261.01V266.99L128.307 267V261ZM160.311 261L162.461 261.01V266.99L160.311 267V261ZM176.463 261L182.463 261.01V266.99L176.463 267V261ZM195.463 261L201.463 261.01V266.99L195.463 267V261ZM214.461 261L216.611 261.01V266.99L214.461 267V261ZM230.613 261L232.763 261.01V266.99L230.613 267V261ZM258.766 261L264.766 261.01V266.99L258.766 267V261ZM290.77 261L292.92 261.01V266.99L290.77 267V261ZM306.922 261L312.922 261.01V266.99L306.922 267V261ZM325.922 261L331.922 261.01V266.99L325.922 267V261ZM356.92 261L362.92 261.01V266.99L356.92 267V261ZM388.924 261L391.074 261.01V266.99L388.924 267V261ZM405.076 261L411.076 261.01V266.99L405.076 267V261ZM424.076 261L430.076 261.01V266.99L424.076 267V261ZM443.074 261L445.224 261.01V266.99L443.074 267V261ZM459.227 261L461.377 261.01V266.99L459.227 267V261ZM487.379 261L493.379 261.01V266.99L487.379 267V261ZM519.383 261L521.533 261.01V266.99L519.383 267V261ZM535.535 261L541.535 261.01V266.99L535.535 267V261ZM554.535 261L560.535 261.01V266.99L554.535 267V261ZM585.533 261L591.533 261.01V266.99L585.533 267V261ZM617.537 261L619.687 261.01V266.99L617.537 267V261ZM633.689 261L639.689 261.01V266.99L633.689 267V261ZM652.689 261L658.689 261.01V266.99L652.689 267V261ZM671.688 261L673.838 261.01V266.99L671.688 267V261ZM687.84 261L689.99 261.01V266.99L687.84 267V261ZM715.992 261L721.992 261.01V266.99L715.992 267V261ZM747.996 261L750.146 261.01V266.99L747.996 267V261ZM764.148 261L770.148 261.01V266.99L764.148 267V261ZM783.148 261L789.148 261.01V266.99L783.148 267V261ZM814.146 261L820.146 261.01V266.99L814.146 267V261ZM846.15 261L848.3 261.01V266.99L846.15 267V261ZM862.303 261L868.303 261.01V266.99L862.303 267V261ZM881.303 261L887.303 261.01V266.99L881.303 267V261ZM900.301 261L902.451 261.01V266.99L900.301 267V261ZM916.453 261L918.603 261.01V266.99L916.453 267V261ZM944.605 261L950.605 261.01V266.99L944.605 267V261ZM976.609 261L978.759 261.01V266.99L976.609 267V261ZM992.762 261L998.762 261.01V266.99L992.762 267V261ZM1011.76 261L1017.76 261.01V266.99L1011.76 267V261ZM1042.76 261L1048.76 261.01V266.99L1042.76 267V261ZM1074.76 261L1076.91 261.01V266.99L1074.76 267V261ZM1090.92 261L1096.92 261.01V266.99L1090.92 267V261ZM1109.92 261L1115.92 261.01V266.99L1109.92 267V261ZM1128.91 261L1131.06 261.01V266.99L1128.91 267V261ZM1145.07 261L1147.22 261.01V266.99L1145.07 267V261ZM1173.22 261L1179.22 261.01V266.99L1173.22 267V261ZM1205.22 261L1207.37 261.01V266.99L1205.22 267V261ZM1221.38 261L1227.38 261.01V266.99L1221.38 267V261ZM1240.38 261L1246.38 261.01V266.99L1240.38 267V261ZM1271.37 261L1277.37 261.01V266.99L1271.37 267V261ZM1303.38 261L1305.53 261.01V266.99L1303.38 267V261ZM1319.53 261L1325.53 261.01V266.99L1319.53 267V261ZM1338.53 261L1344.53 261.01V266.99L1338.53 267V261ZM1357.53 261L1359.68 261.01V266.99L1357.53 267V261ZM1373.68 261L1375.83 261.01V266.99L1373.68 267V261ZM1401.83 261L1407.83 261.01V266.99L1401.83 267V261ZM1433.84 261L1435.99 261.01V266.99L1433.84 267V261ZM1449.99 261L1455.99 261.01V266.99L1449.99 267V261ZM1468.99 261L1474.99 261.01V266.99L1468.99 267V261ZM1499.99 261L1505.99 261.01V266.99L1499.99 267V261ZM1531.99 261L1534.14 261.01V266.99L1531.99 267V261ZM1548.14 261L1554.14 261.01V266.99L1548.14 267V261ZM1567.14 261L1573.14 261.01V266.99L1567.14 267V261ZM1586.14 261L1588.29 261.01V266.99L1586.14 267V261ZM1602.29 261L1604.44 261.01V266.99L1602.29 267V261ZM14 276L20 276.01V281.99L14 282V276ZM46.0039 276L48.1539 276.01V281.99L46.0039 282V276ZM62.1563 276L68.1563 276.01V281.99L62.1563 282V276ZM81.1563 276L87.1563 276.01V281.99L81.1563 282V276ZM112.154 276L118.154 276.01V281.99L112.154 282V276ZM144.158 276L146.308 276.01V281.99L144.158 282V276ZM160.311 276L166.311 276.01V281.99L160.311 282V276ZM179.311 276L185.311 276.01V281.99L179.311 282V276ZM198.309 276L200.459 276.01V281.99L198.309 282V276ZM214.461 276L216.611 276.01V281.99L214.461 282V276ZM242.613 276L248.613 276.01V281.99L242.613 282V276ZM274.617 276L276.767 276.01V281.99L274.617 282V276ZM290.77 276L296.77 276.01V281.99L290.77 282V276ZM309.77 276L315.77 276.01V281.99L309.77 282V276ZM340.768 276L346.768 276.01V281.99L340.768 282V276ZM372.771 276L374.921 276.01V281.99L372.771 282V276ZM388.924 276L394.924 276.01V281.99L388.924 282V276ZM407.924 276L413.924 276.01V281.99L407.924 282V276ZM426.922 276L429.072 276.01V281.99L426.922 282V276ZM443.074 276L445.224 276.01V281.99L443.074 282V276ZM471.227 276L477.227 276.01V281.99L471.227 282V276ZM503.23 276L505.38 276.01V281.99L503.23 282V276ZM519.383 276L525.383 276.01V281.99L519.383 282V276ZM538.383 276L544.383 276.01V281.99L538.383 282V276ZM569.381 276L575.381 276.01V281.99L569.381 282V276ZM601.385 276L603.535 276.01V281.99L601.385 282V276ZM617.537 276L623.537 276.01V281.99L617.537 282V276ZM636.537 276L642.537 276.01V281.99L636.537 282V276ZM655.535 276L657.685 276.01V281.99L655.535 282V276ZM671.688 276L673.838 276.01V281.99L671.688 282V276ZM699.84 276L705.84 276.01V281.99L699.84 282V276ZM731.844 276L733.994 276.01V281.99L731.844 282V276ZM747.996 276L753.996 276.01V281.99L747.996 282V276ZM766.996 276L772.996 276.01V281.99L766.996 282V276ZM797.994 276L803.994 276.01V281.99L797.994 282V276ZM829.998 276L832.148 276.01V281.99L829.998 282V276ZM846.15 276L852.15 276.01V281.99L846.15 282V276ZM865.15 276L871.15 276.01V281.99L865.15 282V276ZM884.148 276L886.298 276.01V281.99L884.148 282V276ZM900.301 276L902.451 276.01V281.99L900.301 282V276ZM928.453 276L934.453 276.01V281.99L928.453 282V276ZM960.457 276L962.607 276.01V281.99L960.457 282V276ZM976.609 276L982.609 276.01V281.99L976.609 282V276ZM995.609 276L1001.61 276.01V281.99L995.609 282V276ZM1026.61 276L1032.61 276.01V281.99L1026.61 282V276ZM1058.61 276L1060.76 276.01V281.99L1058.61 282V276ZM1074.76 276L1080.76 276.01V281.99L1074.76 282V276ZM1093.76 276L1099.76 276.01V281.99L1093.76 282V276ZM1112.76 276L1114.91 276.01V281.99L1112.76 282V276ZM1128.91 276L1131.06 276.01V281.99L1128.91 282V276ZM1157.07 276L1163.07 276.01V281.99L1157.07 282V276ZM1189.07 276L1191.22 276.01V281.99L1189.07 282V276ZM1205.22 276L1211.22 276.01V281.99L1205.22 282V276ZM1224.22 276L1230.22 276.01V281.99L1224.22 282V276ZM1255.22 276L1261.22 276.01V281.99L1255.22 282V276ZM1287.22 276L1289.37 276.01V281.99L1287.22 282V276ZM1303.38 276L1309.38 276.01V281.99L1303.38 282V276ZM1322.38 276L1328.38 276.01V281.99L1322.38 282V276ZM1341.38 276L1343.53 276.01V281.99L1341.38 282V276ZM1357.53 276L1359.68 276.01V281.99L1357.53 282V276ZM1385.68 276L1391.68 276.01V281.99L1385.68 282V276ZM1417.68 276L1419.83 276.01V281.99L1417.68 282V276ZM1433.84 276L1439.84 276.01V281.99L1433.84 282V276ZM1452.84 276L1458.84 276.01V281.99L1452.84 282V276ZM1483.83 276L1489.83 276.01V281.99L1483.83 282V276ZM1515.84 276L1517.99 276.01V281.99L1515.84 282V276ZM1531.99 276L1537.99 276.01V281.99L1531.99 282V276ZM1550.99 276L1556.99 276.01V281.99L1550.99 282V276ZM1569.99 276L1572.14 276.01V281.99L1569.99 282V276ZM1586.14 276L1588.29 276.01V281.99L1586.14 282V276ZM1614.29 276L1620.29 276.01V281.99L1614.29 282V276ZM2 291L4.15 291.01V296.99L2 297V291ZM18.1523 291L24.1523 291.01V296.99L18.1523 297V291ZM37.1523 291L43.1523 291.01V296.99L37.1523 297V291ZM68.1504 291L74.1504 291.01V296.99L68.1504 297V291ZM100.154 291L102.304 291.01V296.99L100.154 297V291ZM116.307 291L122.307 291.01V296.99L116.307 297V291ZM135.307 291L141.307 291.01V296.99L135.307 297V291ZM154.305 291L156.455 291.01V296.99L154.305 297V291ZM170.457 291L172.607 291.01V296.99L170.457 297V291ZM198.609 291L204.609 291.01V296.99L198.609 297V291ZM230.613 291L232.763 291.01V296.99L230.613 297V291ZM246.766 291L252.766 291.01V296.99L246.766 297V291ZM265.766 291L271.766 291.01V296.99L265.766 297V291ZM296.764 291L302.764 291.01V296.99L296.764 297V291ZM328.768 291L330.918 291.01V296.99L328.768 297V291ZM344.92 291L350.92 291.01V296.99L344.92 297V291ZM363.92 291L369.92 291.01V296.99L363.92 297V291ZM382.918 291L385.068 291.01V296.99L382.918 297V291ZM399.07 291L401.22 291.01V296.99L399.07 297V291ZM427.223 291L433.223 291.01V296.99L427.223 297V291ZM459.227 291L461.377 291.01V296.99L459.227 297V291ZM475.379 291L481.379 291.01V296.99L475.379 297V291ZM494.379 291L500.379 291.01V296.99L494.379 297V291ZM525.377 291L531.377 291.01V296.99L525.377 297V291ZM557.381 291L559.531 291.01V296.99L557.381 297V291ZM573.533 291L579.533 291.01V296.99L573.533 297V291ZM592.533 291L598.533 291.01V296.99L592.533 297V291ZM611.531 291L613.681 291.01V296.99L611.531 297V291ZM627.684 291L629.834 291.01V296.99L627.684 297V291ZM655.836 291L661.836 291.01V296.99L655.836 297V291ZM687.84 291L689.99 291.01V296.99L687.84 297V291ZM703.992 291L709.992 291.01V296.99L703.992 297V291ZM722.992 291L728.992 291.01V296.99L722.992 297V291ZM753.99 291L759.99 291.01V296.99L753.99 297V291ZM785.994 291L788.144 291.01V296.99L785.994 297V291ZM802.146 291L808.146 291.01V296.99L802.146 297V291ZM821.146 291L827.146 291.01V296.99L821.146 297V291ZM840.145 291L842.295 291.01V296.99L840.145 297V291ZM856.297 291L858.447 291.01V296.99L856.297 297V291ZM884.449 291L890.449 291.01V296.99L884.449 297V291ZM916.453 291L918.603 291.01V296.99L916.453 297V291ZM932.605 291L938.605 291.01V296.99L932.605 297V291ZM951.605 291L957.605 291.01V296.99L951.605 297V291ZM982.604 291L988.604 291.01V296.99L982.604 297V291ZM1014.61 291L1016.76 291.01V296.99L1014.61 297V291ZM1030.76 291L1036.76 291.01V296.99L1030.76 297V291ZM1049.76 291L1055.76 291.01V296.99L1049.76 297V291ZM1068.76 291L1070.91 291.01V296.99L1068.76 297V291ZM1084.91 291L1087.06 291.01V296.99L1084.91 297V291ZM1113.06 291L1119.06 291.01V296.99L1113.06 297V291ZM1145.07 291L1147.22 291.01V296.99L1145.07 297V291ZM1161.22 291L1167.22 291.01V296.99L1161.22 297V291ZM1180.22 291L1186.22 291.01V296.99L1180.22 297V291ZM1211.22 291L1217.22 291.01V296.99L1211.22 297V291ZM1243.22 291L1245.37 291.01V296.99L1243.22 297V291ZM1259.37 291L1265.37 291.01V296.99L1259.37 297V291ZM1278.37 291L1284.37 291.01V296.99L1278.37 297V291ZM1297.37 291L1299.52 291.01V296.99L1297.37 297V291ZM1313.52 291L1315.67 291.01V296.99L1313.52 297V291ZM1341.68 291L1347.68 291.01V296.99L1341.68 297V291ZM1373.68 291L1375.83 291.01V296.99L1373.68 297V291ZM1389.83 291L1395.83 291.01V296.99L1389.83 297V291ZM1408.83 291L1414.83 291.01V296.99L1408.83 297V291ZM1439.83 291L1445.83 291.01V296.99L1439.83 297V291ZM1471.83 291L1473.98 291.01V296.99L1471.83 297V291ZM1487.99 291L1493.99 291.01V296.99L1487.99 297V291ZM1506.99 291L1512.99 291.01V296.99L1506.99 297V291ZM1525.98 291L1528.13 291.01V296.99L1525.98 297V291ZM1542.14 291L1544.29 291.01V296.99L1542.14 297V291ZM1570.29 291L1576.29 291.01V296.99L1570.29 297V291ZM1602.29 291L1604.44 291.01V296.99L1602.29 297V291ZM1618.45 291L1624.45 291.01V296.99L1618.45 297V291ZM1 306L7 306.01V311.99L1 312V306ZM31.998 306L37.998 306.01V311.99L31.998 312V306ZM64.002 306L66.152 306.01V311.99L64.002 312V306ZM80.1543 306L86.1543 306.01V311.99L80.1543 312V306ZM99.1543 306L105.154 306.01V311.99L99.1543 312V306ZM118.152 306L120.302 306.01V311.99L118.152 312V306ZM134.305 306L136.455 306.01V311.99L134.305 312V306ZM162.457 306L168.457 306.01V311.99L162.457 312V306ZM194.461 306L196.611 306.01V311.99L194.461 312V306ZM210.613 306L216.613 306.01V311.99L210.613 312V306ZM229.613 306L235.613 306.01V311.99L229.613 312V306ZM260.611 306L266.611 306.01V311.99L260.611 312V306ZM292.615 306L294.765 306.01V311.99L292.615 312V306ZM308.768 306L314.768 306.01V311.99L308.768 312V306ZM327.768 306L333.768 306.01V311.99L327.768 312V306ZM346.766 306L348.916 306.01V311.99L346.766 312V306ZM362.918 306L365.068 306.01V311.99L362.918 312V306ZM391.07 306L397.07 306.01V311.99L391.07 312V306ZM423.074 306L425.224 306.01V311.99L423.074 312V306ZM439.227 306L445.227 306.01V311.99L439.227 312V306ZM458.227 306L464.227 306.01V311.99L458.227 312V306ZM489.225 306L495.225 306.01V311.99L489.225 312V306ZM521.229 306L523.379 306.01V311.99L521.229 312V306ZM537.381 306L543.381 306.01V311.99L537.381 312V306ZM556.381 306L562.381 306.01V311.99L556.381 312V306ZM575.379 306L577.529 306.01V311.99L575.379 312V306ZM591.531 306L593.681 306.01V311.99L591.531 312V306ZM619.684 306L625.684 306.01V311.99L619.684 312V306ZM651.688 306L653.838 306.01V311.99L651.688 312V306ZM667.84 306L673.84 306.01V311.99L667.84 312V306ZM686.84 306L692.84 306.01V311.99L686.84 312V306ZM717.838 306L723.838 306.01V311.99L717.838 312V306ZM749.842 306L751.992 306.01V311.99L749.842 312V306ZM765.994 306L771.994 306.01V311.99L765.994 312V306ZM784.994 306L790.994 306.01V311.99L784.994 312V306ZM803.992 306L806.142 306.01V311.99L803.992 312V306ZM820.145 306L822.295 306.01V311.99L820.145 312V306ZM848.297 306L854.297 306.01V311.99L848.297 312V306ZM880.301 306L882.451 306.01V311.99L880.301 312V306ZM896.453 306L902.453 306.01V311.99L896.453 312V306ZM915.453 306L921.453 306.01V311.99L915.453 312V306ZM946.451 306L952.451 306.01V311.99L946.451 312V306ZM978.455 306L980.605 306.01V311.99L978.455 312V306ZM994.607 306L1000.61 306.01V311.99L994.607 312V306ZM1013.61 306L1019.61 306.01V311.99L1013.61 312V306ZM1032.61 306L1034.76 306.01V311.99L1032.61 312V306ZM1048.76 306L1050.91 306.01V311.99L1048.76 312V306ZM1076.91 306L1082.91 306.01V311.99L1076.91 312V306ZM1108.91 306L1111.06 306.01V311.99L1108.91 312V306ZM1125.07 306L1131.07 306.01V311.99L1125.07 312V306ZM1144.07 306L1150.07 306.01V311.99L1144.07 312V306ZM1175.06 306L1181.06 306.01V311.99L1175.06 312V306ZM1207.07 306L1209.22 306.01V311.99L1207.07 312V306ZM1223.22 306L1229.22 306.01V311.99L1223.22 312V306ZM1242.22 306L1248.22 306.01V311.99L1242.22 312V306ZM1261.22 306L1263.37 306.01V311.99L1261.22 312V306ZM1277.37 306L1279.52 306.01V311.99L1277.37 312V306ZM1305.52 306L1311.52 306.01V311.99L1305.52 312V306ZM1337.53 306L1339.68 306.01V311.99L1337.53 312V306ZM1353.68 306L1359.68 306.01V311.99L1353.68 312V306ZM1372.68 306L1378.68 306.01V311.99L1372.68 312V306ZM1403.68 306L1409.68 306.01V311.99L1403.68 312V306ZM1435.68 306L1437.83 306.01V311.99L1435.68 312V306ZM1451.83 306L1457.83 306.01V311.99L1451.83 312V306ZM1470.83 306L1476.83 306.01V311.99L1470.83 312V306ZM1489.83 306L1491.98 306.01V311.99L1489.83 312V306ZM1505.98 306L1508.13 306.01V311.99L1505.98 312V306ZM1534.14 306L1540.14 306.01V311.99L1534.14 312V306ZM1566.14 306L1568.29 306.01V311.99L1566.14 312V306ZM1582.29 306L1588.29 306.01V311.99L1582.29 312V306ZM1601.29 306L1607.29 306.01V311.99L1601.29 312V306ZM14 321L20 321.01V326.99L14 327V321ZM46.0039 321L48.1539 321.01V326.99L46.0039 327V321ZM62.1563 321L68.1563 321.01V326.99L62.1563 327V321ZM81.1563 321L87.1563 321.01V326.99L81.1563 327V321ZM100.154 321L102.304 321.01V326.99L100.154 327V321ZM116.307 321L118.457 321.01V326.99L116.307 327V321ZM144.459 321L150.459 321.01V326.99L144.459 327V321ZM176.463 321L178.613 321.01V326.99L176.463 327V321ZM192.615 321L198.615 321.01V326.99L192.615 327V321ZM211.615 321L217.615 321.01V326.99L211.615 327V321ZM242.613 321L248.613 321.01V326.99L242.613 327V321ZM274.617 321L276.767 321.01V326.99L274.617 327V321ZM290.77 321L296.77 321.01V326.99L290.77 327V321ZM309.77 321L315.77 321.01V326.99L309.77 327V321ZM328.768 321L330.918 321.01V326.99L328.768 327V321ZM344.92 321L347.07 321.01V326.99L344.92 327V321ZM373.072 321L379.072 321.01V326.99L373.072 327V321ZM405.076 321L407.226 321.01V326.99L405.076 327V321ZM421.229 321L427.229 321.01V326.99L421.229 327V321ZM440.229 321L446.229 321.01V326.99L440.229 327V321ZM471.227 321L477.227 321.01V326.99L471.227 327V321ZM503.23 321L505.38 321.01V326.99L503.23 327V321ZM519.383 321L525.383 321.01V326.99L519.383 327V321ZM538.383 321L544.383 321.01V326.99L538.383 327V321ZM557.381 321L559.531 321.01V326.99L557.381 327V321ZM573.533 321L575.683 321.01V326.99L573.533 327V321ZM601.686 321L607.686 321.01V326.99L601.686 327V321ZM633.689 321L635.839 321.01V326.99L633.689 327V321ZM649.842 321L655.842 321.01V326.99L649.842 327V321ZM668.842 321L674.842 321.01V326.99L668.842 327V321ZM699.84 321L705.84 321.01V326.99L699.84 327V321ZM731.844 321L733.994 321.01V326.99L731.844 327V321ZM747.996 321L753.996 321.01V326.99L747.996 327V321ZM766.996 321L772.996 321.01V326.99L766.996 327V321ZM785.994 321L788.144 321.01V326.99L785.994 327V321ZM802.146 321L804.296 321.01V326.99L802.146 327V321ZM830.299 321L836.299 321.01V326.99L830.299 327V321ZM862.303 321L864.453 321.01V326.99L862.303 327V321ZM878.455 321L884.455 321.01V326.99L878.455 327V321ZM897.455 321L903.455 321.01V326.99L897.455 327V321ZM928.453 321L934.453 321.01V326.99L928.453 327V321ZM960.457 321L962.607 321.01V326.99L960.457 327V321ZM976.609 321L982.609 321.01V326.99L976.609 327V321ZM995.609 321L1001.61 321.01V326.99L995.609 327V321ZM1014.61 321L1016.76 321.01V326.99L1014.61 327V321ZM1030.76 321L1032.91 321.01V326.99L1030.76 327V321ZM1058.91 321L1064.91 321.01V326.99L1058.91 327V321ZM1090.92 321L1093.07 321.01V326.99L1090.92 327V321ZM1107.07 321L1113.07 321.01V326.99L1107.07 327V321ZM1126.07 321L1132.07 321.01V326.99L1126.07 327V321ZM1157.07 321L1163.07 321.01V326.99L1157.07 327V321ZM1189.07 321L1191.22 321.01V326.99L1189.07 327V321ZM1205.22 321L1211.22 321.01V326.99L1205.22 327V321ZM1224.22 321L1230.22 321.01V326.99L1224.22 327V321ZM1243.22 321L1245.37 321.01V326.99L1243.22 327V321ZM1259.37 321L1261.52 321.01V326.99L1259.37 327V321ZM1287.53 321L1293.53 321.01V326.99L1287.53 327V321ZM1319.53 321L1321.68 321.01V326.99L1319.53 327V321ZM1335.68 321L1341.68 321.01V326.99L1335.68 327V321ZM1354.68 321L1360.68 321.01V326.99L1354.68 327V321ZM1385.68 321L1391.68 321.01V326.99L1385.68 327V321ZM1417.68 321L1419.83 321.01V326.99L1417.68 327V321ZM1433.84 321L1439.84 321.01V326.99L1433.84 327V321ZM1452.84 321L1458.84 321.01V326.99L1452.84 327V321ZM1471.83 321L1473.98 321.01V326.99L1471.83 327V321ZM1487.99 321L1490.14 321.01V326.99L1487.99 327V321ZM1516.14 321L1522.14 321.01V326.99L1516.14 327V321ZM1548.14 321L1550.29 321.01V326.99L1548.14 327V321ZM1564.29 321L1570.29 321.01V326.99L1564.29 327V321ZM1583.29 321L1589.29 321.01V326.99L1583.29 327V321ZM1614.29 321L1620.29 321.01V326.99L1614.29 327V321ZM2 336L4.15 336.01V341.99L2 342V336ZM18.1523 336L24.1523 336.01V341.99L18.1523 342V336ZM37.1523 336L43.1523 336.01V341.99L37.1523 342V336ZM56.1504 336L58.3004 336.01V341.99L56.1504 342V336ZM72.3027 336L74.4527 336.01V341.99L72.3027 342V336ZM100.455 336L106.455 336.01V341.99L100.455 342V336ZM132.459 336L134.609 336.01V341.99L132.459 342V336ZM148.611 336L154.611 336.01V341.99L148.611 342V336ZM167.611 336L173.611 336.01V341.99L167.611 342V336ZM198.609 336L204.609 336.01V341.99L198.609 342V336ZM230.613 336L232.763 336.01V341.99L230.613 342V336ZM246.766 336L252.766 336.01V341.99L246.766 342V336ZM265.766 336L271.766 336.01V341.99L265.766 342V336ZM284.764 336L286.914 336.01V341.99L284.764 342V336ZM300.916 336L303.066 336.01V341.99L300.916 342V336ZM329.068 336L335.068 336.01V341.99L329.068 342V336ZM361.072 336L363.222 336.01V341.99L361.072 342V336ZM377.225 336L383.225 336.01V341.99L377.225 342V336ZM396.225 336L402.225 336.01V341.99L396.225 342V336ZM427.223 336L433.223 336.01V341.99L427.223 342V336ZM459.227 336L461.377 336.01V341.99L459.227 342V336ZM475.379 336L481.379 336.01V341.99L475.379 342V336ZM494.379 336L500.379 336.01V341.99L494.379 342V336ZM513.377 336L515.527 336.01V341.99L513.377 342V336ZM529.529 336L531.679 336.01V341.99L529.529 342V336ZM557.682 336L563.682 336.01V341.99L557.682 342V336ZM589.686 336L591.836 336.01V341.99L589.686 342V336ZM605.838 336L611.838 336.01V341.99L605.838 342V336ZM624.838 336L630.838 336.01V341.99L624.838 342V336ZM655.836 336L661.836 336.01V341.99L655.836 342V336ZM687.84 336L689.99 336.01V341.99L687.84 342V336ZM703.992 336L709.992 336.01V341.99L703.992 342V336ZM722.992 336L728.992 336.01V341.99L722.992 342V336ZM741.99 336L744.14 336.01V341.99L741.99 342V336ZM758.143 336L760.293 336.01V341.99L758.143 342V336ZM786.295 336L792.295 336.01V341.99L786.295 342V336ZM818.299 336L820.449 336.01V341.99L818.299 342V336ZM834.451 336L840.451 336.01V341.99L834.451 342V336ZM853.451 336L859.451 336.01V341.99L853.451 342V336ZM884.449 336L890.449 336.01V341.99L884.449 342V336ZM916.453 336L918.603 336.01V341.99L916.453 342V336ZM932.605 336L938.605 336.01V341.99L932.605 342V336ZM951.605 336L957.605 336.01V341.99L951.605 342V336ZM970.604 336L972.754 336.01V341.99L970.604 342V336ZM986.756 336L988.906 336.01V341.99L986.756 342V336ZM1014.91 336L1020.91 336.01V341.99L1014.91 342V336ZM1046.91 336L1049.06 336.01V341.99L1046.91 342V336ZM1063.06 336L1069.06 336.01V341.99L1063.06 342V336ZM1082.06 336L1088.06 336.01V341.99L1082.06 342V336ZM1113.06 336L1119.06 336.01V341.99L1113.06 342V336ZM1145.07 336L1147.22 336.01V341.99L1145.07 342V336ZM1161.22 336L1167.22 336.01V341.99L1161.22 342V336ZM1180.22 336L1186.22 336.01V341.99L1180.22 342V336ZM1199.22 336L1201.37 336.01V341.99L1199.22 342V336ZM1215.37 336L1217.52 336.01V341.99L1215.37 342V336ZM1243.52 336L1249.52 336.01V341.99L1243.52 342V336ZM1275.53 336L1277.68 336.01V341.99L1275.53 342V336ZM1291.68 336L1297.68 336.01V341.99L1291.68 342V336ZM1310.68 336L1316.68 336.01V341.99L1310.68 342V336ZM1341.68 336L1347.68 336.01V341.99L1341.68 342V336ZM1373.68 336L1375.83 336.01V341.99L1373.68 342V336ZM1389.83 336L1395.83 336.01V341.99L1389.83 342V336ZM1408.83 336L1414.83 336.01V341.99L1408.83 342V336ZM1427.83 336L1429.98 336.01V341.99L1427.83 342V336ZM1443.98 336L1446.13 336.01V341.99L1443.98 342V336ZM1472.13 336L1478.13 336.01V341.99L1472.13 342V336ZM1504.14 336L1506.29 336.01V341.99L1504.14 342V336ZM1520.29 336L1526.29 336.01V341.99L1520.29 342V336ZM1539.29 336L1545.29 336.01V341.99L1539.29 342V336ZM1570.29 336L1576.29 336.01V341.99L1570.29 342V336ZM1602.29 336L1604.44 336.01V341.99L1602.29 342V336ZM1618.45 336L1624.45 336.01V341.99L1618.45 342V336ZM1 351L7 351.01V356.99L1 357V351ZM19.998 351L22.148 351.01V356.99L19.998 357V351ZM36.1504 351L38.3004 351.01V356.99L36.1504 357V351ZM64.3027 351L70.3027 351.01V356.99L64.3027 357V351ZM96.3066 351L98.4566 351.01V356.99L96.3066 357V351ZM112.459 351L118.459 351.01V356.99L112.459 357V351ZM131.459 351L137.459 351.01V356.99L131.459 357V351ZM162.457 351L168.457 351.01V356.99L162.457 357V351ZM194.461 351L196.611 351.01V356.99L194.461 357V351ZM210.613 351L216.613 351.01V356.99L210.613 357V351ZM229.613 351L235.613 351.01V356.99L229.613 357V351ZM248.611 351L250.761 351.01V356.99L248.611 357V351ZM264.764 351L266.914 351.01V356.99L264.764 357V351ZM292.916 351L298.916 351.01V356.99L292.916 357V351ZM324.92 351L327.07 351.01V356.99L324.92 357V351ZM341.072 351L347.072 351.01V356.99L341.072 357V351ZM360.072 351L366.072 351.01V356.99L360.072 357V351ZM391.07 351L397.07 351.01V356.99L391.07 357V351ZM423.074 351L425.224 351.01V356.99L423.074 357V351ZM439.227 351L445.227 351.01V356.99L439.227 357V351ZM458.227 351L464.227 351.01V356.99L458.227 357V351ZM477.225 351L479.375 351.01V356.99L477.225 357V351ZM493.377 351L495.527 351.01V356.99L493.377 357V351ZM521.529 351L527.529 351.01V356.99L521.529 357V351ZM553.533 351L555.683 351.01V356.99L553.533 357V351ZM569.686 351L575.686 351.01V356.99L569.686 357V351ZM588.686 351L594.686 351.01V356.99L588.686 357V351ZM619.684 351L625.684 351.01V356.99L619.684 357V351ZM651.688 351L653.838 351.01V356.99L651.688 357V351ZM667.84 351L673.84 351.01V356.99L667.84 357V351ZM686.84 351L692.84 351.01V356.99L686.84 357V351ZM705.838 351L707.988 351.01V356.99L705.838 357V351ZM721.99 351L724.14 351.01V356.99L721.99 357V351ZM750.143 351L756.143 351.01V356.99L750.143 357V351ZM782.146 351L784.296 351.01V356.99L782.146 357V351ZM798.299 351L804.299 351.01V356.99L798.299 357V351ZM817.299 351L823.299 351.01V356.99L817.299 357V351ZM848.297 351L854.297 351.01V356.99L848.297 357V351ZM880.301 351L882.451 351.01V356.99L880.301 357V351ZM896.453 351L902.453 351.01V356.99L896.453 357V351ZM915.453 351L921.453 351.01V356.99L915.453 357V351ZM934.451 351L936.601 351.01V356.99L934.451 357V351ZM950.604 351L952.754 351.01V356.99L950.604 357V351ZM978.756 351L984.756 351.01V356.99L978.756 357V351ZM1010.76 351L1012.91 351.01V356.99L1010.76 357V351ZM1026.91 351L1032.91 351.01V356.99L1026.91 357V351ZM1045.91 351L1051.91 351.01V356.99L1045.91 357V351ZM1076.91 351L1082.91 351.01V356.99L1076.91 357V351ZM1108.91 351L1111.06 351.01V356.99L1108.91 357V351ZM1125.07 351L1131.07 351.01V356.99L1125.07 357V351ZM1144.07 351L1150.07 351.01V356.99L1144.07 357V351ZM1163.06 351L1165.21 351.01V356.99L1163.06 357V351ZM1179.22 351L1181.37 351.01V356.99L1179.22 357V351ZM1207.37 351L1213.37 351.01V356.99L1207.37 357V351ZM1239.37 351L1241.52 351.01V356.99L1239.37 357V351ZM1255.53 351L1261.53 351.01V356.99L1255.53 357V351ZM1274.53 351L1280.53 351.01V356.99L1274.53 357V351ZM1305.52 351L1311.52 351.01V356.99L1305.52 357V351ZM1337.53 351L1339.68 351.01V356.99L1337.53 357V351ZM1353.68 351L1359.68 351.01V356.99L1353.68 357V351ZM1372.68 351L1378.68 351.01V356.99L1372.68 357V351ZM1391.68 351L1393.83 351.01V356.99L1391.68 357V351ZM1407.83 351L1409.98 351.01V356.99L1407.83 357V351ZM1435.98 351L1441.98 351.01V356.99L1435.98 357V351ZM1467.99 351L1470.14 351.01V356.99L1467.99 357V351ZM1484.14 351L1490.14 351.01V356.99L1484.14 357V351ZM1503.14 351L1509.14 351.01V356.99L1503.14 357V351ZM1534.14 351L1540.14 351.01V356.99L1534.14 357V351ZM1566.14 351L1568.29 351.01V356.99L1566.14 357V351ZM1582.29 351L1588.29 351.01V356.99L1582.29 357V351ZM1601.29 351L1607.29 351.01V356.99L1601.29 357V351ZM1620.29 351L1622.44 351.01V356.99L1620.29 357V351ZM2 366L4.15 366.01V371.99L2 372V366ZM30.1523 366L36.1523 366.01V371.99L30.1523 372V366ZM62.1563 366L64.3063 366.01V371.99L62.1563 372V366ZM78.3086 366L84.3086 366.01V371.99L78.3086 372V366ZM97.3086 366L103.309 366.01V371.99L97.3086 372V366ZM128.307 366L134.307 366.01V371.99L128.307 372V366ZM160.311 366L162.461 366.01V371.99L160.311 372V366ZM176.463 366L182.463 366.01V371.99L176.463 372V366ZM195.463 366L201.463 366.01V371.99L195.463 372V366ZM214.461 366L216.611 366.01V371.99L214.461 372V366ZM230.613 366L232.763 366.01V371.99L230.613 372V366ZM258.766 366L264.766 366.01V371.99L258.766 372V366ZM290.77 366L292.92 366.01V371.99L290.77 372V366ZM306.922 366L312.922 366.01V371.99L306.922 372V366ZM325.922 366L331.922 366.01V371.99L325.922 372V366ZM356.92 366L362.92 366.01V371.99L356.92 372V366ZM388.924 366L391.074 366.01V371.99L388.924 372V366ZM405.076 366L411.076 366.01V371.99L405.076 372V366ZM424.076 366L430.076 366.01V371.99L424.076 372V366ZM443.074 366L445.224 366.01V371.99L443.074 372V366ZM459.227 366L461.377 366.01V371.99L459.227 372V366ZM487.379 366L493.379 366.01V371.99L487.379 372V366ZM519.383 366L521.533 366.01V371.99L519.383 372V366ZM535.535 366L541.535 366.01V371.99L535.535 372V366ZM554.535 366L560.535 366.01V371.99L554.535 372V366ZM585.533 366L591.533 366.01V371.99L585.533 372V366ZM617.537 366L619.687 366.01V371.99L617.537 372V366ZM633.689 366L639.689 366.01V371.99L633.689 372V366ZM652.689 366L658.689 366.01V371.99L652.689 372V366ZM671.688 366L673.838 366.01V371.99L671.688 372V366ZM687.84 366L689.99 366.01V371.99L687.84 372V366ZM715.992 366L721.992 366.01V371.99L715.992 372V366ZM747.996 366L750.146 366.01V371.99L747.996 372V366ZM764.148 366L770.148 366.01V371.99L764.148 372V366ZM783.148 366L789.148 366.01V371.99L783.148 372V366ZM814.146 366L820.146 366.01V371.99L814.146 372V366ZM846.15 366L848.3 366.01V371.99L846.15 372V366ZM862.303 366L868.303 366.01V371.99L862.303 372V366ZM881.303 366L887.303 366.01V371.99L881.303 372V366ZM900.301 366L902.451 366.01V371.99L900.301 372V366ZM916.453 366L918.603 366.01V371.99L916.453 372V366ZM944.605 366L950.605 366.01V371.99L944.605 372V366ZM976.609 366L978.759 366.01V371.99L976.609 372V366ZM992.762 366L998.762 366.01V371.99L992.762 372V366ZM1011.76 366L1017.76 366.01V371.99L1011.76 372V366ZM1042.76 366L1048.76 366.01V371.99L1042.76 372V366ZM1074.76 366L1076.91 366.01V371.99L1074.76 372V366ZM1090.92 366L1096.92 366.01V371.99L1090.92 372V366ZM1109.92 366L1115.92 366.01V371.99L1109.92 372V366ZM1128.91 366L1131.06 366.01V371.99L1128.91 372V366ZM1145.07 366L1147.22 366.01V371.99L1145.07 372V366ZM1173.22 366L1179.22 366.01V371.99L1173.22 372V366ZM1205.22 366L1207.37 366.01V371.99L1205.22 372V366ZM1221.38 366L1227.38 366.01V371.99L1221.38 372V366ZM1240.38 366L1246.38 366.01V371.99L1240.38 372V366ZM1271.37 366L1277.37 366.01V371.99L1271.37 372V366ZM1303.38 366L1305.53 366.01V371.99L1303.38 372V366ZM1319.53 366L1325.53 366.01V371.99L1319.53 372V366ZM1338.53 366L1344.53 366.01V371.99L1338.53 372V366ZM1357.53 366L1359.68 366.01V371.99L1357.53 372V366ZM1373.68 366L1375.83 366.01V371.99L1373.68 372V366ZM1401.83 366L1407.83 366.01V371.99L1401.83 372V366ZM1433.84 366L1435.99 366.01V371.99L1433.84 372V366ZM1449.99 366L1455.99 366.01V371.99L1449.99 372V366ZM1468.99 366L1474.99 366.01V371.99L1468.99 372V366ZM1499.99 366L1505.99 366.01V371.99L1499.99 372V366ZM1531.99 366L1534.14 366.01V371.99L1531.99 372V366ZM1548.14 366L1554.14 366.01V371.99L1548.14 372V366ZM1567.14 366L1573.14 366.01V371.99L1567.14 372V366ZM1586.14 366L1588.29 366.01V371.99L1586.14 372V366ZM1602.29 366L1604.44 366.01V371.99L1602.29 372V366ZM14 381L20 381.01V386.99L14 387V381ZM46.0039 381L48.1539 381.01V386.99L46.0039 387V381ZM62.1563 381L68.1563 381.01V386.99L62.1563 387V381ZM81.1563 381L87.1563 381.01V386.99L81.1563 387V381ZM112.154 381L118.154 381.01V386.99L112.154 387V381ZM144.158 381L146.308 381.01V386.99L144.158 387V381ZM160.311 381L166.311 381.01V386.99L160.311 387V381ZM179.311 381L185.311 381.01V386.99L179.311 387V381ZM198.309 381L200.459 381.01V386.99L198.309 387V381ZM214.461 381L216.611 381.01V386.99L214.461 387V381ZM242.613 381L248.613 381.01V386.99L242.613 387V381ZM274.617 381L276.767 381.01V386.99L274.617 387V381ZM290.77 381L296.77 381.01V386.99L290.77 387V381ZM309.77 381L315.77 381.01V386.99L309.77 387V381ZM340.768 381L346.768 381.01V386.99L340.768 387V381ZM372.771 381L374.921 381.01V386.99L372.771 387V381ZM388.924 381L394.924 381.01V386.99L388.924 387V381ZM407.924 381L413.924 381.01V386.99L407.924 387V381ZM426.922 381L429.072 381.01V386.99L426.922 387V381ZM443.074 381L445.224 381.01V386.99L443.074 387V381ZM471.227 381L477.227 381.01V386.99L471.227 387V381ZM503.23 381L505.38 381.01V386.99L503.23 387V381ZM519.383 381L525.383 381.01V386.99L519.383 387V381ZM538.383 381L544.383 381.01V386.99L538.383 387V381ZM569.381 381L575.381 381.01V386.99L569.381 387V381ZM601.385 381L603.535 381.01V386.99L601.385 387V381ZM617.537 381L623.537 381.01V386.99L617.537 387V381ZM636.537 381L642.537 381.01V386.99L636.537 387V381ZM655.535 381L657.685 381.01V386.99L655.535 387V381ZM671.688 381L673.838 381.01V386.99L671.688 387V381ZM699.84 381L705.84 381.01V386.99L699.84 387V381ZM731.844 381L733.994 381.01V386.99L731.844 387V381ZM747.996 381L753.996 381.01V386.99L747.996 387V381ZM766.996 381L772.996 381.01V386.99L766.996 387V381ZM797.994 381L803.994 381.01V386.99L797.994 387V381ZM829.998 381L832.148 381.01V386.99L829.998 387V381ZM846.15 381L852.15 381.01V386.99L846.15 387V381ZM865.15 381L871.15 381.01V386.99L865.15 387V381ZM884.148 381L886.298 381.01V386.99L884.148 387V381ZM900.301 381L902.451 381.01V386.99L900.301 387V381ZM928.453 381L934.453 381.01V386.99L928.453 387V381ZM960.457 381L962.607 381.01V386.99L960.457 387V381ZM976.609 381L982.609 381.01V386.99L976.609 387V381ZM995.609 381L1001.61 381.01V386.99L995.609 387V381ZM1026.61 381L1032.61 381.01V386.99L1026.61 387V381ZM1058.61 381L1060.76 381.01V386.99L1058.61 387V381ZM1074.76 381L1080.76 381.01V386.99L1074.76 387V381ZM1093.76 381L1099.76 381.01V386.99L1093.76 387V381ZM1112.76 381L1114.91 381.01V386.99L1112.76 387V381ZM1128.91 381L1131.06 381.01V386.99L1128.91 387V381ZM1157.07 381L1163.07 381.01V386.99L1157.07 387V381ZM1189.07 381L1191.22 381.01V386.99L1189.07 387V381ZM1205.22 381L1211.22 381.01V386.99L1205.22 387V381ZM1224.22 381L1230.22 381.01V386.99L1224.22 387V381ZM1255.22 381L1261.22 381.01V386.99L1255.22 387V381ZM1287.22 381L1289.37 381.01V386.99L1287.22 387V381ZM1303.38 381L1309.38 381.01V386.99L1303.38 387V381ZM1322.38 381L1328.38 381.01V386.99L1322.38 387V381ZM1341.38 381L1343.53 381.01V386.99L1341.38 387V381ZM1357.53 381L1359.68 381.01V386.99L1357.53 387V381ZM1385.68 381L1391.68 381.01V386.99L1385.68 387V381ZM1417.68 381L1419.83 381.01V386.99L1417.68 387V381ZM1433.84 381L1439.84 381.01V386.99L1433.84 387V381ZM1452.84 381L1458.84 381.01V386.99L1452.84 387V381ZM1483.83 381L1489.83 381.01V386.99L1483.83 387V381ZM1515.84 381L1517.99 381.01V386.99L1515.84 387V381ZM1531.99 381L1537.99 381.01V386.99L1531.99 387V381ZM1550.99 381L1556.99 381.01V386.99L1550.99 387V381ZM1569.99 381L1572.14 381.01V386.99L1569.99 387V381ZM1586.14 381L1588.29 381.01V386.99L1586.14 387V381ZM1614.29 381L1620.29 381.01V386.99L1614.29 387V381ZM2 396L4.15 396.01V401.99L2 402V396ZM18.1523 396L24.1523 396.01V401.99L18.1523 402V396ZM37.1523 396L43.1523 396.01V401.99L37.1523 402V396ZM68.1504 396L74.1504 396.01V401.99L68.1504 402V396ZM100.154 396L102.304 396.01V401.99L100.154 402V396ZM116.307 396L122.307 396.01V401.99L116.307 402V396ZM135.307 396L141.307 396.01V401.99L135.307 402V396ZM154.305 396L156.455 396.01V401.99L154.305 402V396ZM170.457 396L172.607 396.01V401.99L170.457 402V396ZM198.609 396L204.609 396.01V401.99L198.609 402V396ZM230.613 396L232.763 396.01V401.99L230.613 402V396ZM246.766 396L252.766 396.01V401.99L246.766 402V396ZM265.766 396L271.766 396.01V401.99L265.766 402V396ZM296.764 396L302.764 396.01V401.99L296.764 402V396ZM328.768 396L330.918 396.01V401.99L328.768 402V396ZM344.92 396L350.92 396.01V401.99L344.92 402V396ZM363.92 396L369.92 396.01V401.99L363.92 402V396ZM382.918 396L385.068 396.01V401.99L382.918 402V396ZM399.07 396L401.22 396.01V401.99L399.07 402V396ZM427.223 396L433.223 396.01V401.99L427.223 402V396ZM459.227 396L461.377 396.01V401.99L459.227 402V396ZM475.379 396L481.379 396.01V401.99L475.379 402V396ZM494.379 396L500.379 396.01V401.99L494.379 402V396ZM525.377 396L531.377 396.01V401.99L525.377 402V396ZM557.381 396L559.531 396.01V401.99L557.381 402V396ZM573.533 396L579.533 396.01V401.99L573.533 402V396ZM592.533 396L598.533 396.01V401.99L592.533 402V396ZM611.531 396L613.681 396.01V401.99L611.531 402V396ZM627.684 396L629.834 396.01V401.99L627.684 402V396ZM655.836 396L661.836 396.01V401.99L655.836 402V396ZM687.84 396L689.99 396.01V401.99L687.84 402V396ZM703.992 396L709.992 396.01V401.99L703.992 402V396ZM722.992 396L728.992 396.01V401.99L722.992 402V396ZM753.99 396L759.99 396.01V401.99L753.99 402V396ZM785.994 396L788.144 396.01V401.99L785.994 402V396ZM802.146 396L808.146 396.01V401.99L802.146 402V396ZM821.146 396L827.146 396.01V401.99L821.146 402V396ZM840.145 396L842.295 396.01V401.99L840.145 402V396ZM856.297 396L858.447 396.01V401.99L856.297 402V396ZM884.449 396L890.449 396.01V401.99L884.449 402V396ZM916.453 396L918.603 396.01V401.99L916.453 402V396ZM932.605 396L938.605 396.01V401.99L932.605 402V396ZM951.605 396L957.605 396.01V401.99L951.605 402V396ZM982.604 396L988.604 396.01V401.99L982.604 402V396ZM1014.61 396L1016.76 396.01V401.99L1014.61 402V396ZM1030.76 396L1036.76 396.01V401.99L1030.76 402V396ZM1049.76 396L1055.76 396.01V401.99L1049.76 402V396ZM1068.76 396L1070.91 396.01V401.99L1068.76 402V396ZM1084.91 396L1087.06 396.01V401.99L1084.91 402V396ZM1113.06 396L1119.06 396.01V401.99L1113.06 402V396ZM1145.07 396L1147.22 396.01V401.99L1145.07 402V396ZM1161.22 396L1167.22 396.01V401.99L1161.22 402V396ZM1180.22 396L1186.22 396.01V401.99L1180.22 402V396ZM1211.22 396L1217.22 396.01V401.99L1211.22 402V396ZM1243.22 396L1245.37 396.01V401.99L1243.22 402V396ZM1259.37 396L1265.37 396.01V401.99L1259.37 402V396ZM1278.37 396L1284.37 396.01V401.99L1278.37 402V396ZM1297.37 396L1299.52 396.01V401.99L1297.37 402V396ZM1313.52 396L1315.67 396.01V401.99L1313.52 402V396ZM1341.68 396L1347.68 396.01V401.99L1341.68 402V396ZM1373.68 396L1375.83 396.01V401.99L1373.68 402V396ZM1389.83 396L1395.83 396.01V401.99L1389.83 402V396ZM1408.83 396L1414.83 396.01V401.99L1408.83 402V396Z" fill="#F23F27"/>
</g>
<defs>
<clipPath id="clip0_691_1975">
<rect width="100" height="100" fill="white"/>
</clipPath>
</defs>
</svg>
