<?xml version="1.0" encoding="utf-8"?><svg xmlns="http://www.w3.org/2000/svg" xmlns:xlink="http://www.w3.org/1999/xlink"><symbol fill="none" viewBox="0 0 13 13" id="arrow-down" xmlns="http://www.w3.org/2000/svg"><g clip-path="url(#aclip0_1423_6452)"><path d="M1 3L0 4.022 6.5 10.5 13 4.022l-.882-.913L6.5 8.5 1 3z" fill="currentColor"/></g><defs><clipPath id="aclip0_1423_6452"><path fill="#fff" d="M0 0h13v13H0z"/></clipPath></defs></symbol><symbol fill="none" viewBox="0 0 32 32" id="arrow-right" xmlns="http://www.w3.org/2000/svg"><g clip-path="url(#bclip0_1423_42)"><path d="M13.333 8l-1.88 1.88L17.56 16l-6.107 6.12 1.88 1.88 8-8-8-8z" fill="currentColor"/></g><defs><clipPath id="bclip0_1423_42"><path fill="#fff" d="M0 0h32v32H0z"/></clipPath></defs></symbol><symbol fill="none" viewBox="0 0 32 32" id="arrow-right-2" xmlns="http://www.w3.org/2000/svg"><path d="M16.167 5l-1.88 1.88 7.44 7.453H5.5V17h16.227l-7.44 7.453 1.88 1.88 10.666-10.666L16.167 5z" fill="#F23F27"/></symbol><symbol fill="none" viewBox="0 0 247 50" id="button-clip" xmlns="http://www.w3.org/2000/svg"/><symbol fill="none" viewBox="0 0 19 32" id="decision-arrow" xmlns="http://www.w3.org/2000/svg"><path d="M2.666 0L.5 2l14 14-14 13.5L2.666 32l16-16-16-16z" fill="currentColor"/></symbol><symbol fill="none" viewBox="0 0 100 100" id="intro-photo" xmlns="http://www.w3.org/2000/svg"><g clip-path="url(#fclip0_691_1975)"><path d="M14 6l6 .01v5.98L14 12V6zm32.004 0l2.15.01v5.98l-2.15.01V6zm16.152 0l6 .01v5.98l-6 .01V6zm19 0l6 .01v5.98l-6 .01V6zm18.998 0l2.15.01v5.98l-2.15.01V6zm16.153 0l2.15.01v5.98l-2.15.01V6zm28.152 0l6 .01v5.98l-6 .01V6zm32.004 0l2.15.01v5.98l-2.15.01V6zm16.152 0l6 .01v5.98l-6 .01V6zm19 0l6 .01v5.98l-6 .01V6zm30.998 0l6 .01v5.98l-6 .01V6zm32.004 0l2.15.01v5.98l-2.15.01V6zm16.153 0l6 .01v5.98l-6 .01V6zm19 0l6 .01v5.98l-6 .01V6zm18.998 0l2.15.01v5.98l-2.15.01V6zm16.152 0l2.15.01v5.98l-2.15.01V6zm28.152 0l6 .01v5.98l-6 .01V6zm32.004 0l2.15.01v5.98l-2.15.01V6zm16.153 0l6 .01v5.98l-6 .01V6zm19 0l6 .01v5.98l-6 .01V6zm30.998 0l6 .01v5.98l-6 .01V6zm32.003 0l2.15.01v5.98l-2.15.01V6zm16.153 0l6 .01v5.98l-6 .01V6zm19 0l6 .01v5.98l-6 .01V6zm18.998 0l2.15.01v5.98l-2.15.01V6zm16.152 0l2.15.01v5.98l-2.15.01V6zm28.153 0l6 .01v5.98l-6 .01V6zm32.003 0l2.15.01v5.98l-2.15.01V6zm16.153 0l6 .01v5.98l-6 .01V6zm19 0l6 .01v5.98l-6 .01V6zm30.998 0l6 .01v5.98l-6 .01V6zm32.004 0l2.15.01v5.98l-2.15.01V6zm16.152 0l6 .01v5.98l-6 .01V6zm19 0l6 .01v5.98l-6 .01V6zm18.998 0l2.15.01v5.98l-2.15.01V6zm16.152 0l2.15.01v5.98l-2.15.01V6zm28.153 0l6 .01v5.98l-6 .01V6zm32.004 0l2.15.01v5.98l-2.15.01V6zm16.152 0l6 .01v5.98l-6 .01V6zm19 0l6 .01v5.98l-6 .01V6zm30.998 0l6 .01v5.98l-6 .01V6zm32.004 0l2.15.01v5.98l-2.15.01V6zm16.152 0l6 .01v5.98l-6 .01V6zm19 0l6.001.01v5.98l-6.001.01V6zm19.001 0l2.15.01v5.98l-2.15.01V6zm16.15 0l2.15.01v5.98l-2.15.01V6zm28.15 0l6 .01v5.98l-6 .01V6zm32.01 0l2.15.01v5.98l-2.15.01V6zm16.15 0l6 .01v5.98l-6 .01V6zm19 0l6 .01v5.98l-6 .01V6zm31 0l6 .01v5.98l-6 .01V6zm32 0l2.15.01v5.98l-2.15.01V6zm16.15 0l6 .01v5.98l-6 .01V6zm19 0l6 .01v5.98l-6 .01V6zm19 0l2.15.01v5.98l-2.15.01V6zm16.15 0l2.15.01v5.98l-2.15.01V6zm28.16 0l6 .01v5.98l-6 .01V6zm32 0l2.15.01v5.98l-2.15.01V6zm16.15 0l6 .01v5.98l-6 .01V6zm19 0l6 .01v5.98l-6 .01V6zm31 0l6 .01v5.98l-6 .01V6zm32 0l2.15.01v5.98l-2.15.01V6zm16.16 0l6 .01v5.98l-6 .01V6zm19 0l6 .01v5.98l-6 .01V6zm18.99 0l2.15.01v5.98l-2.15.01V6zm16.16 0l2.15.01v5.98l-2.15.01V6zm28.15 0l6 .01v5.98l-6 .01V6zm32 0l2.15.01v5.98l-2.15.01V6zm16.15 0l6 .01v5.98l-6 .01V6zm19 0l6 .01v5.98l-6 .01V6zm31 0l6 .01v5.98l-6 .01V6zM2 21l2.15.01v5.98L2 27v-6zm16.152 0l6 .01v5.98l-6 .01v-6zm19 0l6 .01v5.98l-6 .01v-6zm18.998 0l2.15.01v5.98l-2.15.01v-6zm16.153 0l2.15.01v5.98l-2.15.01v-6zm28.152 0l6 .01v5.98l-6 .01v-6zm32.004 0l2.15.01v5.98l-2.15.01v-6zm16.152 0l6 .01v5.98l-6 .01v-6zm19 0l6 .01v5.98l-6 .01v-6zm30.998 0l6 .01v5.98l-6 .01v-6zm32.004 0l2.15.01v5.98l-2.15.01v-6zm16.153 0l6 .01v5.98l-6 .01v-6zm19 0l6 .01v5.98l-6 .01v-6zm18.998 0l2.15.01v5.98l-2.15.01v-6zm16.152 0l2.15.01v5.98l-2.15.01v-6zm28.152 0l6 .01v5.98l-6 .01v-6zm32.004 0l2.15.01v5.98l-2.15.01v-6zm16.153 0l6 .01v5.98l-6 .01v-6zm19 0l6 .01v5.98l-6 .01v-6zm30.998 0l6 .01v5.98l-6 .01v-6zm32.004 0l2.15.01v5.98l-2.15.01v-6zm16.152 0l6 .01v5.98l-6 .01v-6zm19 0l6 .01v5.98l-6 .01v-6zm18.998 0l2.15.01v5.98l-2.15.01v-6zm16.152 0l2.15.01v5.98l-2.15.01v-6zm28.153 0l6 .01v5.98l-6 .01v-6zm32.004 0l2.15.01v5.98l-2.15.01v-6zm16.152 0l6 .01v5.98l-6 .01v-6zm19 0l6 .01v5.98l-6 .01v-6zm30.998 0l6 .01v5.98l-6 .01v-6zm32.004 0l2.15.01v5.98l-2.15.01v-6zm16.152 0l6 .01v5.98l-6 .01v-6zm19 0l6 .01v5.98l-6 .01v-6zm18.998 0l2.15.01v5.98l-2.15.01v-6zm16.153 0l2.15.01v5.98l-2.15.01v-6zm28.152 0l6 .01v5.98l-6 .01v-6zm32.004 0l2.15.01v5.98l-2.15.01v-6zm16.152 0l6 .01v5.98l-6 .01v-6zm19 0l6 .01v5.98l-6 .01v-6zm30.998 0l6 .01v5.98l-6 .01v-6zm32.004 0l2.15.01v5.98l-2.15.01v-6zm16.152 0l6 .01v5.98l-6 .01v-6zm19 0l6 .01v5.98l-6 .01v-6zm18.999 0l2.15.01v5.98l-2.15.01v-6zm16.152 0l2.15.01v5.98l-2.15.01v-6zm28.154 0l6 .01v5.98l-6 .01v-6zm32 0l2.15.01v5.98l-2.15.01v-6zm16.15 0l6 .01v5.98l-6 .01v-6zm19 0l6 .01v5.98l-6 .01v-6zm31 0l6 .01v5.98l-6 .01v-6zm32.01 0l2.15.01v5.98l-2.15.01v-6zm16.15 0l6 .01v5.98l-6 .01v-6zm19 0l6 .01v5.98l-6 .01v-6zm19 0l2.15.01v5.98l-2.15.01v-6zm16.15 0l2.15.01v5.98l-2.15.01v-6zm28.15 0l6 .01v5.98l-6 .01v-6zm32.01 0l2.15.01v5.98l-2.15.01v-6zm16.15 0l6 .01v5.98l-6 .01v-6zm19 0l6 .01v5.98l-6 .01v-6zm31 0l6 .01v5.98l-6 .01v-6zm32 0l2.15.01v5.98l-2.15.01v-6zm16.15 0l6 .01v5.98l-6 .01v-6zm19 0l6 .01v5.98l-6 .01v-6zm19 0l2.15.01v5.98l-2.15.01v-6zm16.15 0l2.15.01v5.98l-2.15.01v-6zm28.15 0l6 .01v5.98l-6 .01v-6zm32.01 0l2.15.01v5.98l-2.15.01v-6zm16.15 0l6 .01v5.98l-6 .01v-6zm19 0l6 .01v5.98l-6 .01v-6zm31 0l6 .01v5.98l-6 .01v-6zm32 0l2.15.01v5.98l-2.15.01v-6zm16.16 0l6 .01v5.98l-6 .01v-6zM1 36l6 .01v5.98L1 42v-6zm18.998 0l2.15.01v5.98l-2.15.01v-6zm16.152 0l2.15.01v5.98l-2.15.01v-6zm28.153 0l6 .01v5.98l-6 .01v-6zm32.004 0l2.15.01v5.98l-2.15.01v-6zm16.152 0l6 .01v5.98l-6 .01v-6zm19 0l6 .01v5.98l-6 .01v-6zm30.998 0l6 .01v5.98l-6 .01v-6zm32.004 0l2.15.01v5.98l-2.15.01v-6zm16.152 0l6 .01v5.98l-6 .01v-6zm19 0l6 .01v5.98l-6 .01v-6zm18.998 0l2.15.01v5.98l-2.15.01v-6zm16.153 0l2.15.01v5.98l-2.15.01v-6zm28.152 0l6 .01v5.98l-6 .01v-6zm32.004 0l2.15.01v5.98l-2.15.01v-6zm16.152 0l6 .01v5.98l-6 .01v-6zm19 0l6 .01v5.98l-6 .01v-6zm30.998 0l6 .01v5.98l-6 .01v-6zm32.004 0l2.15.01v5.98l-2.15.01v-6zm16.153 0l6 .01v5.98l-6 .01v-6zm19 0l6 .01v5.98l-6 .01v-6zm18.998 0l2.15.01v5.98l-2.15.01v-6zm16.152 0l2.15.01v5.98l-2.15.01v-6zm28.152 0l6 .01v5.98l-6 .01v-6zm32.004 0l2.15.01v5.98l-2.15.01v-6zm16.153 0l6 .01v5.98l-6 .01v-6zm19 0l6 .01v5.98l-6 .01v-6zm30.998 0l6 .01v5.98l-6 .01v-6zm32.004 0l2.15.01v5.98l-2.15.01v-6zm16.152 0l6 .01v5.98l-6 .01v-6zm19 0l6 .01v5.98l-6 .01v-6zm18.998 0l2.15.01v5.98l-2.15.01v-6zm16.152 0l2.15.01v5.98l-2.15.01v-6zm28.153 0l6 .01v5.98l-6 .01v-6zm32.003 0l2.15.01v5.98l-2.15.01v-6zm16.153 0l6 .01v5.98l-6 .01v-6zm19 0l6 .01v5.98l-6 .01v-6zm30.998 0l6 .01v5.98l-6 .01v-6zm32.004 0l2.15.01v5.98l-2.15.01v-6zm16.152 0l6 .01v5.98l-6 .01v-6zm19 0l6 .01v5.98l-6 .01v-6zm18.998 0l2.15.01v5.98l-2.15.01v-6zm16.153 0l2.15.01v5.98l-2.15.01v-6zm28.152 0l6 .01v5.98l-6 .01v-6zm32.004 0l2.15.01v5.98l-2.15.01v-6zm16.15 0l6 .01v5.98l-6 .01v-6zm19 0l6 .01v5.98l-6 .01v-6zm31 0l6 .01v5.98l-6 .01v-6zm32 0l2.15.01v5.98l-2.15.01v-6zm16.16 0l6 .01v5.98l-6 .01v-6zm19 0l6 .01v5.98l-6 .01v-6zm18.99 0l2.15.01v5.98l-2.15.01v-6zm16.16 0l2.15.01v5.98l-2.15.01v-6zm28.15 0l6 .01v5.98l-6 .01v-6zm32 0l2.15.01v5.98l-2.15.01v-6zm16.16 0l6 .01v5.98l-6 .01v-6zm19 0l6 .01v5.98l-6 .01v-6zm30.99 0l6 .01v5.98l-6 .01v-6zm32.01 0l2.15.01v5.98l-2.15.01v-6zm16.15 0l6 .01v5.98l-6 .01v-6zm19 0l6 .01v5.98l-6 .01v-6zm19 0l2.15.01v5.98l-2.15.01v-6zm16.15 0l2.15.01v5.98l-2.15.01v-6zm28.15 0l6 .01v5.98l-6 .01v-6zm32.01 0l2.15.01v5.98l-2.15.01v-6zm16.15 0l6 .01v5.98l-6 .01v-6zm19 0l6 .01v5.98l-6 .01v-6zm31 0l6 .01v5.98l-6 .01v-6zm32 0l2.15.01v5.98l-2.15.01v-6zm16.15 0l6 .01v5.98l-6 .01v-6zm19 0l6 .01v5.98l-6 .01v-6zm19 0l2.15.01v5.98l-2.15.01v-6zM2 51l2.15.01v5.98L2 57v-6zm28.152 0l6 .01v5.98l-6 .01v-6zm32.004 0l2.15.01v5.98l-2.15.01v-6zm16.153 0l6 .01v5.98l-6 .01v-6zm19 0l6 .01v5.98l-6 .01v-6zm30.998 0l6 .01v5.98l-6 .01v-6zm32.004 0l2.15.01v5.98l-2.15.01v-6zm16.152 0l6 .01v5.98l-6 .01v-6zm19 0l6 .01v5.98l-6 .01v-6zm18.998 0l2.15.01v5.98l-2.15.01v-6zm16.152 0l2.15.01v5.98l-2.15.01v-6zm28.153 0l6 .01v5.98l-6 .01v-6zm32.004 0l2.15.01v5.98l-2.15.01v-6zm16.152 0l6 .01v5.98l-6 .01v-6zm19 0l6 .01v5.98l-6 .01v-6zm30.998 0l6 .01v5.98l-6 .01v-6zm32.004 0l2.15.01v5.98l-2.15.01v-6zm16.152 0l6 .01v5.98l-6 .01v-6zm19 0l6 .01v5.98l-6 .01v-6zm18.998 0l2.15.01v5.98l-2.15.01v-6zm16.153 0l2.15.01v5.98l-2.15.01v-6zm28.152 0l6 .01v5.98l-6 .01v-6zm32.004 0l2.15.01v5.98l-2.15.01v-6zm16.152 0l6 .01v5.98l-6 .01v-6zm19 0l6 .01v5.98l-6 .01v-6zm30.998 0l6 .01v5.98l-6 .01v-6zm32.004 0l2.15.01v5.98l-2.15.01v-6zm16.152 0l6 .01v5.98l-6 .01v-6zm19 0l6 .01v5.98l-6 .01v-6zm18.999 0l2.15.01v5.98l-2.15.01v-6zm16.152 0l2.15.01v5.98l-2.15.01v-6zm28.152 0l6 .01v5.98l-6 .01v-6zm32.004 0l2.15.01v5.98l-2.15.01v-6zm16.152 0l6 .01v5.98l-6 .01v-6zm19 0l6 .01v5.98l-6 .01v-6zm30.998 0l6 .01v5.98l-6 .01v-6zm32.004 0l2.15.01v5.98l-2.15.01v-6zm16.153 0l6 .01v5.98l-6 .01v-6zm19 0l6 .01v5.98l-6 .01v-6zm18.998 0l2.15.01v5.98l-2.15.01v-6zm16.152 0l2.15.01v5.98l-2.15.01v-6zm28.152 0l6 .01v5.98l-6 .01v-6zm32.004 0l2.15.01v5.98l-2.15.01v-6zm16.153 0l6 .01v5.98l-6 .01v-6zm18.998 0l6 .01v5.98l-6 .01v-6zm31 0l6 .01v5.98l-6 .01v-6zm32 0l2.15.01v5.98l-2.15.01v-6zm16.16 0l6 .01v5.98l-6 .01v-6zm19 0l6 .01v5.98l-6 .01v-6zm18.99 0l2.15.01v5.98l-2.15.01v-6zm16.16 0l2.15.01v5.98l-2.15.01v-6zm28.15 0l6 .01v5.98l-6 .01v-6zm32 0l2.15.01v5.98l-2.15.01v-6zm16.16 0l6 .01v5.98l-6 .01v-6zm19 0l6 .01v5.98l-6 .01v-6zm30.99 0l6 .01v5.98l-6 .01v-6zm32.01 0l2.15.01v5.98l-2.15.01v-6zm16.15 0l6 .01v5.98l-6 .01v-6zm19 0l6 .01v5.98l-6 .01v-6zm19 0l2.15.01v5.98l-2.15.01v-6zm16.15 0l2.15.01v5.98l-2.15.01v-6zm28.15 0l6 .01v5.98l-6 .01v-6zm32.01 0l2.15.01v5.98l-2.15.01v-6zm16.15 0l6 .01v5.98l-6 .01v-6zm19 0l6 .01v5.98l-6 .01v-6zm31 0l6 .01v5.98l-6 .01v-6zm32 0l2.15.01v5.98l-2.15.01v-6zm16.15 0l6 .01v5.98l-6 .01v-6zm19 0l6 .01v5.98l-6 .01v-6zm19 0l2.15.01v5.98l-2.15.01v-6zm16.15 0l2.15.01v5.98l-2.15.01v-6zM14 66l6 .01v5.98L14 72v-6zm32.004 0l2.15.01v5.98l-2.15.01v-6zm16.152 0l6 .01v5.98l-6 .01v-6zm19 0l6 .01v5.98l-6 .01v-6zm30.998 0l6 .01v5.98l-6 .01v-6zm32.004 0l2.15.01v5.98l-2.15.01v-6zm16.153 0l6 .01v5.98l-6 .01v-6zm19 0l6 .01v5.98l-6 .01v-6zm18.998 0l2.15.01v5.98l-2.15.01v-6zm16.152 0l2.15.01v5.98l-2.15.01v-6zm28.152 0l6 .01v5.98l-6 .01v-6zm32.004 0l2.15.01v5.98l-2.15.01v-6zm16.153 0l6 .01v5.98l-6 .01v-6zm19 0l6 .01v5.98l-6 .01v-6zm30.998 0l6 .01v5.98l-6 .01v-6zm32.003 0l2.15.01v5.98l-2.15.01v-6zm16.153 0l6 .01v5.98l-6 .01v-6zm19 0l6 .01v5.98l-6 .01v-6zm18.998 0l2.15.01v5.98l-2.15.01v-6zm16.152 0l2.15.01v5.98l-2.15.01v-6zm28.153 0l6 .01v5.98l-6 .01v-6zm32.003 0l2.15.01v5.98l-2.15.01v-6zm16.153 0l6 .01v5.98l-6 .01v-6zm19 0l6 .01v5.98l-6 .01v-6zm30.998 0l6 .01v5.98l-6 .01v-6zm32.004 0l2.15.01v5.98l-2.15.01v-6zm16.152 0l6 .01v5.98l-6 .01v-6zm19 0l6 .01v5.98l-6 .01v-6zm18.998 0l2.15.01v5.98l-2.15.01v-6zm16.153 0l2.15.01v5.98l-2.15.01v-6zm28.152 0l6 .01v5.98l-6 .01v-6zm32.004 0l2.15.01v5.98l-2.15.01v-6zm16.152 0l6 .01v5.98l-6 .01v-6zm19 0l6 .01v5.98l-6 .01v-6zm30.998 0l6 .01v5.98l-6 .01v-6zm32.004 0l2.15.01v5.98l-2.15.01v-6zm16.152 0l6 .01v5.98l-6 .01v-6zm19 0l6 .01v5.98l-6 .01v-6zm18.998 0l2.15.01v5.98l-2.15.01v-6zm16.153 0l2.15.01v5.98l-2.15.01v-6zm28.152 0l6 .01v5.98l-6 .01v-6zm32.004 0l2.15.01v5.98l-2.15.01v-6zm16.152 0l6 .01v5.98l-6 .01v-6zm19 0l6.001.01v5.98l-6.001.01v-6zm31.001 0l6 .01v5.98l-6 .01v-6zm32 0l2.15.01v5.98l-2.15.01v-6zm16.15 0l6 .01v5.98l-6 .01v-6zm19 0l6 .01v5.98l-6 .01v-6zm19 0l2.15.01v5.98l-2.15.01v-6zm16.15 0l2.15.01v5.98l-2.15.01v-6zm28.16 0l6 .01v5.98l-6 .01v-6zm32 0l2.15.01v5.98l-2.15.01v-6zm16.15 0l6 .01v5.98l-6 .01v-6zm19 0l6 .01v5.98l-6 .01v-6zm31 0l6 .01v5.98l-6 .01v-6zm32 0l2.15.01v5.98l-2.15.01v-6zm16.16 0l6 .01v5.98l-6 .01v-6zm19 0l6 .01v5.98l-6 .01v-6zm19 0l2.15.01v5.98l-2.15.01v-6zm16.15 0l2.15.01v5.98l-2.15.01v-6zm28.15 0l6 .01v5.98l-6 .01v-6zm32 0l2.15.01v5.98l-2.15.01v-6zm16.16 0l6 .01v5.98l-6 .01v-6zm19 0l6 .01v5.98l-6 .01v-6zm30.99 0l6 .01v5.98l-6 .01v-6zm32.01 0l2.15.01v5.98l-2.15.01v-6zm16.15 0l6 .01v5.98l-6 .01v-6zm19 0l6 .01v5.98l-6 .01v-6zm19 0l2.15.01v5.98l-2.15.01v-6zm16.15 0l2.15.01v5.98l-2.15.01v-6zm28.15 0l6 .01v5.98l-6 .01v-6zM2 81l2.15.01v5.98L2 87v-6zm16.152 0l6 .01v5.98l-6 .01v-6zm19 0l6 .01v5.98l-6 .01v-6zm30.998 0l6 .01v5.98l-6 .01v-6zm32.004 0l2.15.01v5.98l-2.15.01v-6zm16.153 0l6 .01v5.98l-6 .01v-6zm19 0l6 .01v5.98l-6 .01v-6zm18.998 0l2.15.01v5.98l-2.15.01v-6zm16.152 0l2.15.01v5.98l-2.15.01v-6zm28.152 0l6 .01v5.98l-6 .01v-6zm32.004 0l2.15.01v5.98l-2.15.01v-6zm16.153 0l6 .01v5.98l-6 .01v-6zm19 0l6 .01v5.98l-6 .01v-6zm30.998 0l6 .01v5.98l-6 .01v-6zm32.004 0l2.15.01v5.98l-2.15.01v-6zm16.152 0l6 .01v5.98l-6 .01v-6zm19 0l6 .01v5.98l-6 .01v-6zm18.998 0l2.15.01v5.98l-2.15.01v-6zm16.152 0l2.15.01v5.98l-2.15.01v-6zm28.153 0l6 .01v5.98l-6 .01v-6zm32.004 0l2.15.01v5.98l-2.15.01v-6zm16.152 0l6 .01v5.98l-6 .01v-6zm19 0l6 .01v5.98l-6 .01v-6zm30.998 0l6 .01v5.98l-6 .01v-6zm32.004 0l2.15.01v5.98l-2.15.01v-6zm16.152 0l6 .01v5.98l-6 .01v-6zm19 0l6 .01v5.98l-6 .01v-6zm18.998 0l2.15.01v5.98l-2.15.01v-6zm16.153 0l2.15.01v5.98l-2.15.01v-6zm28.152 0l6 .01v5.98l-6 .01v-6zm32.004 0l2.15.01v5.98l-2.15.01v-6zm16.152 0l6 .01v5.98l-6 .01v-6zm19 0l6 .01v5.98l-6 .01v-6zm30.998 0l6 .01v5.98l-6 .01v-6zm32.004 0l2.15.01v5.98l-2.15.01v-6zm16.152 0l6 .01v5.98l-6 .01v-6zm19 0l6 .01v5.98l-6 .01v-6zm18.999 0l2.15.01v5.98l-2.15.01v-6zm16.152 0l2.15.01v5.98l-2.15.01v-6zm28.152 0l6 .01v5.98l-6 .01v-6zm32.004 0l2.15.01v5.98l-2.15.01v-6zm16.152 0l6 .01v5.98l-6 .01v-6zm19 0l6 .01v5.98l-6 .01v-6zm30.999 0l6 .01v5.98l-6 .01v-6zm32.006 0l2.15.01v5.98l-2.15.01v-6zm16.15 0l6 .01v5.98l-6 .01v-6zm19 0l6 .01v5.98l-6 .01v-6zm19 0l2.15.01v5.98l-2.15.01v-6zm16.15 0l2.15.01v5.98l-2.15.01v-6zm28.15 0l6 .01v5.98l-6 .01v-6zm32.01 0l2.15.01v5.98l-2.15.01v-6zm16.15 0l6 .01v5.98l-6 .01v-6zm19 0l6 .01v5.98l-6 .01v-6zm31 0l6 .01v5.98l-6 .01v-6zm32 0l2.15.01v5.98l-2.15.01v-6zm16.15 0l6 .01v5.98l-6 .01v-6zm19 0l6 .01v5.98l-6 .01v-6zm19 0l2.15.01v5.98l-2.15.01v-6zm16.15 0l2.15.01v5.98l-2.15.01v-6zm28.16 0l6 .01v5.98l-6 .01v-6zm32 0l2.15.01v5.98l-2.15.01v-6zm16.15 0l6 .01v5.98l-6 .01v-6zm19 0l6 .01v5.98l-6 .01v-6zm31 0l6 .01v5.98l-6 .01v-6zm32 0l2.15.01v5.98l-2.15.01v-6zm16.16 0l6 .01v5.98l-6 .01v-6zm19 0l6 .01v5.98l-6 .01v-6zm18.99 0l2.15.01v5.98l-2.15.01v-6zm16.16 0l2.15.01v5.98l-2.15.01v-6zm28.15 0l6 .01v5.98l-6 .01v-6zm32 0l2.15.01v5.98l-2.15.01v-6zm16.16 0l6 .01v5.98l-6 .01v-6zM1 96l6 .01v5.98L1 102v-6zm30.998 0l6 .01v5.98l-6 .01v-6zm32.004 0l2.15.01v5.98l-2.15.01v-6zm16.152 0l6 .01v5.98l-6 .01v-6zm19 0l6 .01v5.98l-6 .01v-6zm18.998 0l2.15.01v5.98l-2.15.01v-6zm16.153 0l2.15.01v5.98l-2.15.01v-6zm28.152 0l6 .01v5.98l-6 .01v-6zm32.004 0l2.15.01v5.98l-2.15.01v-6zm16.152 0l6 .01v5.98l-6 .01v-6zm19 0l6 .01v5.98l-6 .01v-6zm30.998 0l6 .01v5.98l-6 .01v-6zm32.004 0l2.15.01v5.98l-2.15.01v-6zm16.153 0l6 .01v5.98l-6 .01v-6zm19 0l6 .01v5.98l-6 .01v-6zm18.998 0l2.15.01v5.98l-2.15.01v-6zm16.152 0l2.15.01v5.98l-2.15.01v-6zm28.152 0l6 .01v5.98l-6 .01v-6zm32.004 0l2.15.01v5.98l-2.15.01v-6zm16.153 0l6 .01v5.98l-6 .01v-6zm19 0l6 .01v5.98l-6 .01v-6zm30.998 0l6 .01v5.98l-6 .01v-6zm32.004 0l2.15.01v5.98l-2.15.01v-6zm16.152 0l6 .01v5.98l-6 .01v-6zm19 0l6 .01v5.98l-6 .01v-6zm18.998 0l2.15.01v5.98l-2.15.01v-6zm16.152 0l2.15.01v5.98l-2.15.01v-6zm28.153 0l6 .01v5.98l-6 .01v-6zm32.004 0l2.15.01v5.98l-2.15.01v-6zm16.152 0l6 .01v5.98l-6 .01v-6zm19 0l6 .01v5.98l-6 .01v-6zm30.998 0l6 .01v5.98l-6 .01v-6zm32.004 0l2.15.01v5.98l-2.15.01v-6zm16.152 0l6 .01v5.98l-6 .01v-6zm19 0l6 .01v5.98l-6 .01v-6zm18.998 0l2.15.01v5.98l-2.15.01v-6zm16.153 0l2.15.01v5.98l-2.15.01v-6zm28.152 0l6 .01v5.98l-6 .01v-6zm32.004 0l2.15.01v5.98l-2.15.01v-6zm16.152 0l6 .01v5.98l-6 .01v-6zm19 0l6 .01v5.98l-6 .01v-6zm30.998 0l6 .01v5.98l-6 .01v-6zm32.004 0l2.15.01v5.98l-2.15.01v-6zm16.152 0l6.003.01v5.98l-6.003.01v-6zm19.003 0l6 .01v5.98l-6 .01v-6zm19 0l2.15.01v5.98l-2.15.01v-6zm16.15 0l2.15.01v5.98l-2.15.01v-6zm28.15 0l6 .01v5.98l-6 .01v-6zm32 0l2.15.01v5.98l-2.15.01v-6zm16.16 0l6 .01v5.98l-6 .01v-6zm19 0l6 .01v5.98l-6 .01v-6zm30.99 0l6 .01v5.98l-6 .01v-6zm32.01 0l2.15.01v5.98l-2.15.01v-6zm16.15 0l6 .01v5.98l-6 .01v-6zm19 0l6 .01v5.98l-6 .01v-6zm19 0l2.15.01v5.98l-2.15.01v-6zm16.15 0l2.15.01v5.98l-2.15.01v-6zm28.15 0l6 .01v5.98l-6 .01v-6zm32.01 0l2.15.01v5.98l-2.15.01v-6zm16.15 0l6 .01v5.98l-6 .01v-6zm19 0l6 .01v5.98l-6 .01v-6zm31 0l6 .01v5.98l-6 .01v-6zm32 0l2.15.01v5.98l-2.15.01v-6zm16.15 0l6 .01v5.98l-6 .01v-6zm19 0l6 .01v5.98l-6 .01v-6zm19 0l2.15.01v5.98l-2.15.01v-6zm16.15 0l2.15.01v5.98l-2.15.01v-6zm28.16 0l6 .01v5.98l-6 .01v-6zm32 0l2.15.01v5.98l-2.15.01v-6zm16.15 0l6 .01v5.98l-6 .01v-6zm19 0l6 .01v5.98l-6 .01v-6zM14 111l6 .01v5.98l-6 .01v-6zm32.004 0l2.15.01v5.98l-2.15.01v-6zm16.152 0l6 .01v5.98l-6 .01v-6zm19 0l6 .01v5.98l-6 .01v-6zm18.998 0l2.15.01v5.98l-2.15.01v-6zm16.153 0l2.15.01v5.98l-2.15.01v-6zm28.152 0l6 .01v5.98l-6 .01v-6zm32.004 0l2.15.01v5.98l-2.15.01v-6zm16.152 0l6 .01v5.98l-6 .01v-6zm19 0l6 .01v5.98l-6 .01v-6zm30.998 0l6 .01v5.98l-6 .01v-6zm32.004 0l2.15.01v5.98l-2.15.01v-6zm16.153 0l6 .01v5.98l-6 .01v-6zm19 0l6 .01v5.98l-6 .01v-6zm18.998 0l2.15.01v5.98l-2.15.01v-6zm16.152 0l2.15.01v5.98l-2.15.01v-6zm28.152 0l6 .01v5.98l-6 .01v-6zm32.004 0l2.15.01v5.98l-2.15.01v-6zm16.153 0l6 .01v5.98l-6 .01v-6zm19 0l6 .01v5.98l-6 .01v-6zm30.998 0l6 .01v5.98l-6 .01v-6zm32.003 0l2.15.01v5.98l-2.15.01v-6zm16.153 0l6 .01v5.98l-6 .01v-6zm19 0l6 .01v5.98l-6 .01v-6zm18.998 0l2.15.01v5.98l-2.15.01v-6zm16.152 0l2.15.01v5.98l-2.15.01v-6zm28.153 0l6 .01v5.98l-6 .01v-6zm32.003 0l2.15.01v5.98l-2.15.01v-6zm16.153 0l6 .01v5.98l-6 .01v-6zm19 0l6 .01v5.98l-6 .01v-6zm30.998 0l6 .01v5.98l-6 .01v-6zm32.004 0l2.15.01v5.98l-2.15.01v-6zm16.152 0l6 .01v5.98l-6 .01v-6zm19 0l6 .01v5.98l-6 .01v-6zm18.998 0l2.15.01v5.98l-2.15.01v-6zm16.152 0l2.15.01v5.98l-2.15.01v-6zm28.153 0l6 .01v5.98l-6 .01v-6zm32.004 0l2.15.01v5.98l-2.15.01v-6zm16.152 0l6 .01v5.98l-6 .01v-6zm19 0l6 .01v5.98l-6 .01v-6zm30.998 0l6 .01v5.98l-6 .01v-6zm32.004 0l2.15.01v5.98l-2.15.01v-6zm16.152 0l6 .01v5.98l-6 .01v-6zm19 0l6.001.01v5.98l-6.001.01v-6zm19.001 0l2.15.01v5.98l-2.15.01v-6zm16.15 0l2.15.01v5.98l-2.15.01v-6zm28.15 0l6 .01v5.98l-6 .01v-6zm32.01 0l2.15.01v5.98l-2.15.01v-6zm16.15 0l6 .01v5.98l-6 .01v-6zm19 0l6 .01v5.98l-6 .01v-6zm31 0l6 .01v5.98l-6 .01v-6zm32 0l2.15.01v5.98l-2.15.01v-6zm16.15 0l6 .01v5.98l-6 .01v-6zm19 0l6 .01v5.98l-6 .01v-6zm19 0l2.15.01v5.98l-2.15.01v-6zm16.15 0l2.15.01v5.98l-2.15.01v-6zm28.16 0l6 .01v5.98l-6 .01v-6zm32 0l2.15.01v5.98l-2.15.01v-6zm16.15 0l6 .01v5.98l-6 .01v-6zm19 0l6 .01v5.98l-6 .01v-6zm31 0l6 .01v5.98l-6 .01v-6zm32 0l2.15.01v5.98l-2.15.01v-6zm16.16 0l6 .01v5.98l-6 .01v-6zm19 0l6 .01v5.98l-6 .01v-6zm18.99 0l2.15.01v5.98l-2.15.01v-6zm16.16 0l2.15.01v5.98l-2.15.01v-6zm28.15 0l6 .01v5.98l-6 .01v-6zm32 0l2.15.01v5.98l-2.15.01v-6zm16.15 0l6 .01v5.98l-6 .01v-6zm19 0l6 .01v5.98l-6 .01v-6zm31 0l6 .01v5.98l-6 .01v-6zM2 126l2.15.01v5.98L2 132v-6zm16.152 0l6 .01v5.98l-6 .01v-6zm19 0l6 .01v5.98l-6 .01v-6zm18.998 0l2.15.01v5.98l-2.15.01v-6zm16.153 0l2.15.01v5.98l-2.15.01v-6zm28.152 0l6 .01v5.98l-6 .01v-6zm32.004 0l2.15.01v5.98l-2.15.01v-6zm16.152 0l6 .01v5.98l-6 .01v-6zm19 0l6 .01v5.98l-6 .01v-6zm30.998 0l6 .01v5.98l-6 .01v-6zm32.004 0l2.15.01v5.98l-2.15.01v-6zm16.153 0l6 .01v5.98l-6 .01v-6zm19 0l6 .01v5.98l-6 .01v-6zm18.998 0l2.15.01v5.98l-2.15.01v-6zm16.152 0l2.15.01v5.98l-2.15.01v-6zm28.152 0l6 .01v5.98l-6 .01v-6zm32.004 0l2.15.01v5.98l-2.15.01v-6zm16.153 0l6 .01v5.98l-6 .01v-6zm19 0l6 .01v5.98l-6 .01v-6zm30.998 0l6 .01v5.98l-6 .01v-6zm32.004 0l2.15.01v5.98l-2.15.01v-6zm16.152 0l6 .01v5.98l-6 .01v-6zm19 0l6 .01v5.98l-6 .01v-6zm18.998 0l2.15.01v5.98l-2.15.01v-6zm16.152 0l2.15.01v5.98l-2.15.01v-6zm28.153 0l6 .01v5.98l-6 .01v-6zm32.004 0l2.15.01v5.98l-2.15.01v-6zm16.152 0l6 .01v5.98l-6 .01v-6zm19 0l6 .01v5.98l-6 .01v-6zm30.998 0l6 .01v5.98l-6 .01v-6zm32.004 0l2.15.01v5.98l-2.15.01v-6zm16.152 0l6 .01v5.98l-6 .01v-6zm19 0l6 .01v5.98l-6 .01v-6zm18.998 0l2.15.01v5.98l-2.15.01v-6zm16.153 0l2.15.01v5.98l-2.15.01v-6zm28.152 0l6 .01v5.98l-6 .01v-6zm32.004 0l2.15.01v5.98l-2.15.01v-6zm16.152 0l6 .01v5.98l-6 .01v-6zm19 0l6 .01v5.98l-6 .01v-6zm30.998 0l6 .01v5.98l-6 .01v-6zm32.004 0l2.15.01v5.98l-2.15.01v-6zm16.152 0l6 .01v5.98l-6 .01v-6zm19 0l6 .01v5.98l-6 .01v-6zm18.999 0l2.15.01v5.98l-2.15.01v-6zm16.152 0l2.15.01v5.98l-2.15.01v-6zm28.154 0l6 .01v5.98l-6 .01v-6zm32 0l2.15.01v5.98l-2.15.01v-6zm16.15 0l6 .01v5.98l-6 .01v-6zm19 0l6 .01v5.98l-6 .01v-6zm31 0l6 .01v5.98l-6 .01v-6zm32.01 0l2.15.01v5.98l-2.15.01v-6zm16.15 0l6 .01v5.98l-6 .01v-6zm19 0l6 .01v5.98l-6 .01v-6zm19 0l2.15.01v5.98l-2.15.01v-6zm16.15 0l2.15.01v5.98l-2.15.01v-6zm28.15 0l6 .01v5.98l-6 .01v-6zm32.01 0l2.15.01v5.98l-2.15.01v-6zm16.15 0l6 .01v5.98l-6 .01v-6zm19 0l6 .01v5.98l-6 .01v-6zm31 0l6 .01v5.98l-6 .01v-6zm32 0l2.15.01v5.98l-2.15.01v-6zm16.15 0l6 .01v5.98l-6 .01v-6zm19 0l6 .01v5.98l-6 .01v-6zm19 0l2.15.01v5.98l-2.15.01v-6zm16.15 0l2.15.01v5.98l-2.15.01v-6zm28.15 0l6 .01v5.98l-6 .01v-6zm32.01 0l2.15.01v5.98l-2.15.01v-6zm16.15 0l6 .01v5.98l-6 .01v-6zm19 0l6 .01v5.98l-6 .01v-6zm31 0l6 .01v5.98l-6 .01v-6zm32 0l2.15.01v5.98l-2.15.01v-6zm16.16 0l6 .01v5.98l-6 .01v-6zM1 141l6 .01v5.98L1 147v-6zm18.998 0l2.15.01v5.98l-2.15.01v-6zm16.152 0l2.15.01v5.98l-2.15.01v-6zm28.153 0l6 .01v5.98l-6 .01v-6zm32.004 0l2.15.01v5.98l-2.15.01v-6zm16.152 0l6 .01v5.98l-6 .01v-6zm19 0l6 .01v5.98l-6 .01v-6zm30.998 0l6 .01v5.98l-6 .01v-6zm32.004 0l2.15.01v5.98l-2.15.01v-6zm16.152 0l6 .01v5.98l-6 .01v-6zm19 0l6 .01v5.98l-6 .01v-6zm18.998 0l2.15.01v5.98l-2.15.01v-6zm16.153 0l2.15.01v5.98l-2.15.01v-6zm28.152 0l6 .01v5.98l-6 .01v-6zm32.004 0l2.15.01v5.98l-2.15.01v-6zm16.152 0l6 .01v5.98l-6 .01v-6zm19 0l6 .01v5.98l-6 .01v-6zm30.998 0l6 .01v5.98l-6 .01v-6zm32.004 0l2.15.01v5.98l-2.15.01v-6zm16.153 0l6 .01v5.98l-6 .01v-6zm19 0l6 .01v5.98l-6 .01v-6zm18.998 0l2.15.01v5.98l-2.15.01v-6zm16.152 0l2.15.01v5.98l-2.15.01v-6zm28.152 0l6 .01v5.98l-6 .01v-6zm32.004 0l2.15.01v5.98l-2.15.01v-6zm16.153 0l6 .01v5.98l-6 .01v-6zm19 0l6 .01v5.98l-6 .01v-6zm30.998 0l6 .01v5.98l-6 .01v-6zm32.004 0l2.15.01v5.98l-2.15.01v-6zm16.152 0l6 .01v5.98l-6 .01v-6zm19 0l6 .01v5.98l-6 .01v-6zm18.998 0l2.15.01v5.98l-2.15.01v-6zm16.152 0l2.15.01v5.98l-2.15.01v-6zm28.153 0l6 .01v5.98l-6 .01v-6zm32.003 0l2.15.01v5.98l-2.15.01v-6zm16.153 0l6 .01v5.98l-6 .01v-6zm19 0l6 .01v5.98l-6 .01v-6zm30.998 0l6 .01v5.98l-6 .01v-6zm32.004 0l2.15.01v5.98l-2.15.01v-6zm16.152 0l6 .01v5.98l-6 .01v-6zm19 0l6 .01v5.98l-6 .01v-6zm18.998 0l2.15.01v5.98l-2.15.01v-6zm16.153 0l2.15.01v5.98l-2.15.01v-6zm28.152 0l6 .01v5.98l-6 .01v-6zm32.004 0l2.15.01v5.98l-2.15.01v-6zm16.15 0l6 .01v5.98l-6 .01v-6zm19 0l6 .01v5.98l-6 .01v-6zm31 0l6 .01v5.98l-6 .01v-6zm32 0l2.15.01v5.98l-2.15.01v-6zm16.16 0l6 .01v5.98l-6 .01v-6zm19 0l6 .01v5.98l-6 .01v-6zm18.99 0l2.15.01v5.98l-2.15.01v-6zm16.16 0l2.15.01v5.98l-2.15.01v-6zm28.15 0l6 .01v5.98l-6 .01v-6zm32 0l2.15.01v5.98l-2.15.01v-6zm16.16 0l6 .01v5.98l-6 .01v-6zm19 0l6 .01v5.98l-6 .01v-6zm30.99 0l6 .01v5.98l-6 .01v-6zm32.01 0l2.15.01v5.98l-2.15.01v-6zm16.15 0l6 .01v5.98l-6 .01v-6zm19 0l6 .01v5.98l-6 .01v-6zm19 0l2.15.01v5.98l-2.15.01v-6zm16.15 0l2.15.01v5.98l-2.15.01v-6zm28.15 0l6 .01v5.98l-6 .01v-6zm32.01 0l2.15.01v5.98l-2.15.01v-6zm16.15 0l6 .01v5.98l-6 .01v-6zm19 0l6 .01v5.98l-6 .01v-6zm31 0l6 .01v5.98l-6 .01v-6zm32 0l2.15.01v5.98l-2.15.01v-6zm16.15 0l6 .01v5.98l-6 .01v-6zm19 0l6 .01v5.98l-6 .01v-6zm19 0l2.15.01v5.98l-2.15.01v-6zM2 156l2.15.01v5.98L2 162v-6zm28.152 0l6 .01v5.98l-6 .01v-6zm32.004 0l2.15.01v5.98l-2.15.01v-6zm16.153 0l6 .01v5.98l-6 .01v-6zm19 0l6 .01v5.98l-6 .01v-6zm30.998 0l6 .01v5.98l-6 .01v-6zm32.004 0l2.15.01v5.98l-2.15.01v-6zm16.152 0l6 .01v5.98l-6 .01v-6zm19 0l6 .01v5.98l-6 .01v-6zm18.998 0l2.15.01v5.98l-2.15.01v-6zm16.152 0l2.15.01v5.98l-2.15.01v-6zm28.153 0l6 .01v5.98l-6 .01v-6zm32.004 0l2.15.01v5.98l-2.15.01v-6zm16.152 0l6 .01v5.98l-6 .01v-6zm19 0l6 .01v5.98l-6 .01v-6zm30.998 0l6 .01v5.98l-6 .01v-6zm32.004 0l2.15.01v5.98l-2.15.01v-6zm16.152 0l6 .01v5.98l-6 .01v-6zm19 0l6 .01v5.98l-6 .01v-6zm18.998 0l2.15.01v5.98l-2.15.01v-6zm16.153 0l2.15.01v5.98l-2.15.01v-6zm28.152 0l6 .01v5.98l-6 .01v-6zm32.004 0l2.15.01v5.98l-2.15.01v-6zm16.152 0l6 .01v5.98l-6 .01v-6zm19 0l6 .01v5.98l-6 .01v-6zm30.998 0l6 .01v5.98l-6 .01v-6zm32.004 0l2.15.01v5.98l-2.15.01v-6zm16.152 0l6 .01v5.98l-6 .01v-6zm19 0l6 .01v5.98l-6 .01v-6zm18.999 0l2.15.01v5.98l-2.15.01v-6zm16.152 0l2.15.01v5.98l-2.15.01v-6zm28.152 0l6 .01v5.98l-6 .01v-6zm32.004 0l2.15.01v5.98l-2.15.01v-6zm16.152 0l6 .01v5.98l-6 .01v-6zm19 0l6 .01v5.98l-6 .01v-6zm30.998 0l6 .01v5.98l-6 .01v-6zm32.004 0l2.15.01v5.98l-2.15.01v-6zm16.153 0l6 .01v5.98l-6 .01v-6zm19 0l6 .01v5.98l-6 .01v-6zm18.998 0l2.15.01v5.98l-2.15.01v-6zm16.152 0l2.15.01v5.98l-2.15.01v-6zm28.152 0l6 .01v5.98l-6 .01v-6zm32.004 0l2.15.01v5.98l-2.15.01v-6zm16.153 0l6 .01v5.98l-6 .01v-6zm18.998 0l6 .01v5.98l-6 .01v-6zm31 0l6 .01v5.98l-6 .01v-6zm32 0l2.15.01v5.98l-2.15.01v-6zm16.16 0l6 .01v5.98l-6 .01v-6zm19 0l6 .01v5.98l-6 .01v-6zm18.99 0l2.15.01v5.98l-2.15.01v-6zm16.16 0l2.15.01v5.98l-2.15.01v-6zm28.15 0l6 .01v5.98l-6 .01v-6zm32 0l2.15.01v5.98l-2.15.01v-6zm16.16 0l6 .01v5.98l-6 .01v-6zm19 0l6 .01v5.98l-6 .01v-6zm30.99 0l6 .01v5.98l-6 .01v-6zm32.01 0l2.15.01v5.98l-2.15.01v-6zm16.15 0l6 .01v5.98l-6 .01v-6zm19 0l6 .01v5.98l-6 .01v-6zm19 0l2.15.01v5.98l-2.15.01v-6zm16.15 0l2.15.01v5.98l-2.15.01v-6zm28.15 0l6 .01v5.98l-6 .01v-6zm32.01 0l2.15.01v5.98l-2.15.01v-6zm16.15 0l6 .01v5.98l-6 .01v-6zm19 0l6 .01v5.98l-6 .01v-6zm31 0l6 .01v5.98l-6 .01v-6zm32 0l2.15.01v5.98l-2.15.01v-6zm16.15 0l6 .01v5.98l-6 .01v-6zm19 0l6 .01v5.98l-6 .01v-6zm19 0l2.15.01v5.98l-2.15.01v-6zm16.15 0l2.15.01v5.98l-2.15.01v-6zM14 171l6 .01v5.98l-6 .01v-6zm32.004 0l2.15.01v5.98l-2.15.01v-6zm16.152 0l6 .01v5.98l-6 .01v-6zm19 0l6 .01v5.98l-6 .01v-6zm30.998 0l6 .01v5.98l-6 .01v-6zm32.004 0l2.15.01v5.98l-2.15.01v-6zm16.153 0l6 .01v5.98l-6 .01v-6zm19 0l6 .01v5.98l-6 .01v-6zm18.998 0l2.15.01v5.98l-2.15.01v-6zm16.152 0l2.15.01v5.98l-2.15.01v-6zm28.152 0l6 .01v5.98l-6 .01v-6zm32.004 0l2.15.01v5.98l-2.15.01v-6zm16.153 0l6 .01v5.98l-6 .01v-6zm19 0l6 .01v5.98l-6 .01v-6zm30.998 0l6 .01v5.98l-6 .01v-6zm32.003 0l2.15.01v5.98l-2.15.01v-6zm16.153 0l6 .01v5.98l-6 .01v-6zm19 0l6 .01v5.98l-6 .01v-6zm18.998 0l2.15.01v5.98l-2.15.01v-6zm16.152 0l2.15.01v5.98l-2.15.01v-6zm28.153 0l6 .01v5.98l-6 .01v-6zm32.003 0l2.15.01v5.98l-2.15.01v-6zm16.153 0l6 .01v5.98l-6 .01v-6zm19 0l6 .01v5.98l-6 .01v-6zm30.998 0l6 .01v5.98l-6 .01v-6zm32.004 0l2.15.01v5.98l-2.15.01v-6zm16.152 0l6 .01v5.98l-6 .01v-6zm19 0l6 .01v5.98l-6 .01v-6zm18.998 0l2.15.01v5.98l-2.15.01v-6zm16.153 0l2.15.01v5.98l-2.15.01v-6zm28.152 0l6 .01v5.98l-6 .01v-6zm32.004 0l2.15.01v5.98l-2.15.01v-6zm16.152 0l6 .01v5.98l-6 .01v-6zm19 0l6 .01v5.98l-6 .01v-6zm30.998 0l6 .01v5.98l-6 .01v-6zm32.004 0l2.15.01v5.98l-2.15.01v-6zm16.152 0l6 .01v5.98l-6 .01v-6zm19 0l6 .01v5.98l-6 .01v-6zm18.998 0l2.15.01v5.98l-2.15.01v-6zm16.153 0l2.15.01v5.98l-2.15.01v-6zm28.152 0l6 .01v5.98l-6 .01v-6zm32.004 0l2.15.01v5.98l-2.15.01v-6zm16.152 0l6 .01v5.98l-6 .01v-6zm19 0l6.001.01v5.98l-6.001.01v-6zm31.001 0l6 .01v5.98l-6 .01v-6zm32 0l2.15.01v5.98l-2.15.01v-6zm16.15 0l6 .01v5.98l-6 .01v-6zm19 0l6 .01v5.98l-6 .01v-6zm19 0l2.15.01v5.98l-2.15.01v-6zm16.15 0l2.15.01v5.98l-2.15.01v-6zm28.16 0l6 .01v5.98l-6 .01v-6zm32 0l2.15.01v5.98l-2.15.01v-6zm16.15 0l6 .01v5.98l-6 .01v-6zm19 0l6 .01v5.98l-6 .01v-6zm31 0l6 .01v5.98l-6 .01v-6zm32 0l2.15.01v5.98l-2.15.01v-6zm16.16 0l6 .01v5.98l-6 .01v-6zm19 0l6 .01v5.98l-6 .01v-6zm19 0l2.15.01v5.98l-2.15.01v-6zm16.15 0l2.15.01v5.98l-2.15.01v-6zm28.15 0l6 .01v5.98l-6 .01v-6zm32 0l2.15.01v5.98l-2.15.01v-6zm16.16 0l6 .01v5.98l-6 .01v-6zm19 0l6 .01v5.98l-6 .01v-6zm30.99 0l6 .01v5.98l-6 .01v-6zm32.01 0l2.15.01v5.98l-2.15.01v-6zm16.15 0l6 .01v5.98l-6 .01v-6zm19 0l6 .01v5.98l-6 .01v-6zm19 0l2.15.01v5.98l-2.15.01v-6zm16.15 0l2.15.01v5.98l-2.15.01v-6zm28.15 0l6 .01v5.98l-6 .01v-6zM2 186l2.15.01v5.98L2 192v-6zm16.152 0l6 .01v5.98l-6 .01v-6zm19 0l6 .01v5.98l-6 .01v-6zm30.998 0l6 .01v5.98l-6 .01v-6zm32.004 0l2.15.01v5.98l-2.15.01v-6zm16.153 0l6 .01v5.98l-6 .01v-6zm19 0l6 .01v5.98l-6 .01v-6zm18.998 0l2.15.01v5.98l-2.15.01v-6zm16.152 0l2.15.01v5.98l-2.15.01v-6zm28.152 0l6 .01v5.98l-6 .01v-6zm32.004 0l2.15.01v5.98l-2.15.01v-6zm16.153 0l6 .01v5.98l-6 .01v-6zm19 0l6 .01v5.98l-6 .01v-6zm30.998 0l6 .01v5.98l-6 .01v-6zm32.004 0l2.15.01v5.98l-2.15.01v-6zm16.152 0l6 .01v5.98l-6 .01v-6zm19 0l6 .01v5.98l-6 .01v-6zm18.998 0l2.15.01v5.98l-2.15.01v-6zm16.152 0l2.15.01v5.98l-2.15.01v-6zm28.153 0l6 .01v5.98l-6 .01v-6zm32.004 0l2.15.01v5.98l-2.15.01v-6zm16.152 0l6 .01v5.98l-6 .01v-6zm19 0l6 .01v5.98l-6 .01v-6zm30.998 0l6 .01v5.98l-6 .01v-6zm32.004 0l2.15.01v5.98l-2.15.01v-6zm16.152 0l6 .01v5.98l-6 .01v-6zm19 0l6 .01v5.98l-6 .01v-6zm18.998 0l2.15.01v5.98l-2.15.01v-6zm16.153 0l2.15.01v5.98l-2.15.01v-6zm28.152 0l6 .01v5.98l-6 .01v-6zm32.004 0l2.15.01v5.98l-2.15.01v-6zm16.152 0l6 .01v5.98l-6 .01v-6zm19 0l6 .01v5.98l-6 .01v-6zm30.998 0l6 .01v5.98l-6 .01v-6zm32.004 0l2.15.01v5.98l-2.15.01v-6zm16.152 0l6 .01v5.98l-6 .01v-6zm19 0l6 .01v5.98l-6 .01v-6zm18.999 0l2.15.01v5.98l-2.15.01v-6zm16.152 0l2.15.01v5.98l-2.15.01v-6zm28.152 0l6 .01v5.98l-6 .01v-6zm32.004 0l2.15.01v5.98l-2.15.01v-6zm16.152 0l6 .01v5.98l-6 .01v-6zm19 0l6 .01v5.98l-6 .01v-6zm30.999 0l6 .01v5.98l-6 .01v-6zm32.006 0l2.15.01v5.98l-2.15.01v-6zm16.15 0l6 .01v5.98l-6 .01v-6zm19 0l6 .01v5.98l-6 .01v-6zm19 0l2.15.01v5.98l-2.15.01v-6zm16.15 0l2.15.01v5.98l-2.15.01v-6zm28.15 0l6 .01v5.98l-6 .01v-6zm32.01 0l2.15.01v5.98l-2.15.01v-6zm16.15 0l6 .01v5.98l-6 .01v-6zm19 0l6 .01v5.98l-6 .01v-6zm31 0l6 .01v5.98l-6 .01v-6zm32 0l2.15.01v5.98l-2.15.01v-6zm16.15 0l6 .01v5.98l-6 .01v-6zm19 0l6 .01v5.98l-6 .01v-6zm19 0l2.15.01v5.98l-2.15.01v-6zm16.15 0l2.15.01v5.98l-2.15.01v-6zm28.16 0l6 .01v5.98l-6 .01v-6zm32 0l2.15.01v5.98l-2.15.01v-6zm16.15 0l6 .01v5.98l-6 .01v-6zm19 0l6 .01v5.98l-6 .01v-6zm31 0l6 .01v5.98l-6 .01v-6zm32 0l2.15.01v5.98l-2.15.01v-6zm16.16 0l6 .01v5.98l-6 .01v-6zm19 0l6 .01v5.98l-6 .01v-6zm18.99 0l2.15.01v5.98l-2.15.01v-6zm16.16 0l2.15.01v5.98l-2.15.01v-6zm28.15 0l6 .01v5.98l-6 .01v-6zm32 0l2.15.01v5.98l-2.15.01v-6zm16.16 0l6 .01v5.98l-6 .01v-6zM1 201l6 .01v5.98L1 207v-6zm30.998 0l6 .01v5.98l-6 .01v-6zm32.004 0l2.15.01v5.98l-2.15.01v-6zm16.152 0l6 .01v5.98l-6 .01v-6zm19 0l6 .01v5.98l-6 .01v-6zm18.998 0l2.15.01v5.98l-2.15.01v-6zm16.153 0l2.15.01v5.98l-2.15.01v-6zm28.152 0l6 .01v5.98l-6 .01v-6zm32.004 0l2.15.01v5.98l-2.15.01v-6zm16.152 0l6 .01v5.98l-6 .01v-6zm19 0l6 .01v5.98l-6 .01v-6zm30.998 0l6 .01v5.98l-6 .01v-6zm32.004 0l2.15.01v5.98l-2.15.01v-6zm16.153 0l6 .01v5.98l-6 .01v-6zm19 0l6 .01v5.98l-6 .01v-6zm18.998 0l2.15.01v5.98l-2.15.01v-6zm16.152 0l2.15.01v5.98l-2.15.01v-6zm28.152 0l6 .01v5.98l-6 .01v-6zm32.004 0l2.15.01v5.98l-2.15.01v-6zm16.153 0l6 .01v5.98l-6 .01v-6zm19 0l6 .01v5.98l-6 .01v-6zm30.998 0l6 .01v5.98l-6 .01v-6zm32.004 0l2.15.01v5.98l-2.15.01v-6zm16.152 0l6 .01v5.98l-6 .01v-6zm19 0l6 .01v5.98l-6 .01v-6zm18.998 0l2.15.01v5.98l-2.15.01v-6zm16.152 0l2.15.01v5.98l-2.15.01v-6zm28.153 0l6 .01v5.98l-6 .01v-6zm32.004 0l2.15.01v5.98l-2.15.01v-6zm16.152 0l6 .01v5.98l-6 .01v-6zm19 0l6 .01v5.98l-6 .01v-6zm30.998 0l6 .01v5.98l-6 .01v-6zm32.004 0l2.15.01v5.98l-2.15.01v-6zm16.152 0l6 .01v5.98l-6 .01v-6zm19 0l6 .01v5.98l-6 .01v-6zm18.998 0l2.15.01v5.98l-2.15.01v-6zm16.153 0l2.15.01v5.98l-2.15.01v-6zm28.152 0l6 .01v5.98l-6 .01v-6zm32.004 0l2.15.01v5.98l-2.15.01v-6zm16.152 0l6 .01v5.98l-6 .01v-6zm19 0l6 .01v5.98l-6 .01v-6zm30.998 0l6 .01v5.98l-6 .01v-6zm32.004 0l2.15.01v5.98l-2.15.01v-6zm16.152 0l6.003.01v5.98l-6.003.01v-6zm19.003 0l6 .01v5.98l-6 .01v-6zm19 0l2.15.01v5.98l-2.15.01v-6zm16.15 0l2.15.01v5.98l-2.15.01v-6zm28.15 0l6 .01v5.98l-6 .01v-6zm32 0l2.15.01v5.98l-2.15.01v-6zm16.16 0l6 .01v5.98l-6 .01v-6zm19 0l6 .01v5.98l-6 .01v-6zm30.99 0l6 .01v5.98l-6 .01v-6zm32.01 0l2.15.01v5.98l-2.15.01v-6zm16.15 0l6 .01v5.98l-6 .01v-6zm19 0l6 .01v5.98l-6 .01v-6zm19 0l2.15.01v5.98l-2.15.01v-6zm16.15 0l2.15.01v5.98l-2.15.01v-6zm28.15 0l6 .01v5.98l-6 .01v-6zm32.01 0l2.15.01v5.98l-2.15.01v-6zm16.15 0l6 .01v5.98l-6 .01v-6zm19 0l6 .01v5.98l-6 .01v-6zm31 0l6 .01v5.98l-6 .01v-6zm32 0l2.15.01v5.98l-2.15.01v-6zm16.15 0l6 .01v5.98l-6 .01v-6zm19 0l6 .01v5.98l-6 .01v-6zm19 0l2.15.01v5.98l-2.15.01v-6zm16.15 0l2.15.01v5.98l-2.15.01v-6zm28.16 0l6 .01v5.98l-6 .01v-6zm32 0l2.15.01v5.98l-2.15.01v-6zm16.15 0l6 .01v5.98l-6 .01v-6zm19 0l6 .01v5.98l-6 .01v-6zM14 216l6 .01v5.98l-6 .01v-6zm32.004 0l2.15.01v5.98l-2.15.01v-6zm16.152 0l6 .01v5.98l-6 .01v-6zm19 0l6 .01v5.98l-6 .01v-6zm18.998 0l2.15.01v5.98l-2.15.01v-6zm16.153 0l2.15.01v5.98l-2.15.01v-6zm28.152 0l6 .01v5.98l-6 .01v-6zm32.004 0l2.15.01v5.98l-2.15.01v-6zm16.152 0l6 .01v5.98l-6 .01v-6zm19 0l6 .01v5.98l-6 .01v-6zm30.998 0l6 .01v5.98l-6 .01v-6zm32.004 0l2.15.01v5.98l-2.15.01v-6zm16.153 0l6 .01v5.98l-6 .01v-6zm19 0l6 .01v5.98l-6 .01v-6zm18.998 0l2.15.01v5.98l-2.15.01v-6zm16.152 0l2.15.01v5.98l-2.15.01v-6zm28.152 0l6 .01v5.98l-6 .01v-6zm32.004 0l2.15.01v5.98l-2.15.01v-6zm16.153 0l6 .01v5.98l-6 .01v-6zm19 0l6 .01v5.98l-6 .01v-6zm30.998 0l6 .01v5.98l-6 .01v-6zm32.003 0l2.15.01v5.98l-2.15.01v-6zm16.153 0l6 .01v5.98l-6 .01v-6zm19 0l6 .01v5.98l-6 .01v-6zm18.998 0l2.15.01v5.98l-2.15.01v-6zm16.152 0l2.15.01v5.98l-2.15.01v-6zm28.153 0l6 .01v5.98l-6 .01v-6zm32.003 0l2.15.01v5.98l-2.15.01v-6zm16.153 0l6 .01v5.98l-6 .01v-6zm19 0l6 .01v5.98l-6 .01v-6zm30.998 0l6 .01v5.98l-6 .01v-6zm32.004 0l2.15.01v5.98l-2.15.01v-6zm16.152 0l6 .01v5.98l-6 .01v-6zm19 0l6 .01v5.98l-6 .01v-6zm18.998 0l2.15.01v5.98l-2.15.01v-6zm16.152 0l2.15.01v5.98l-2.15.01v-6zm28.153 0l6 .01v5.98l-6 .01v-6zm32.004 0l2.15.01v5.98l-2.15.01v-6zm16.152 0l6 .01v5.98l-6 .01v-6zm19 0l6 .01v5.98l-6 .01v-6zm30.998 0l6 .01v5.98l-6 .01v-6zm32.004 0l2.15.01v5.98l-2.15.01v-6zm16.152 0l6 .01v5.98l-6 .01v-6zm19 0l6.001.01v5.98l-6.001.01v-6zm19.001 0l2.15.01v5.98l-2.15.01v-6zm16.15 0l2.15.01v5.98l-2.15.01v-6zm28.15 0l6 .01v5.98l-6 .01v-6zm32.01 0l2.15.01v5.98l-2.15.01v-6zm16.15 0l6 .01v5.98l-6 .01v-6zm19 0l6 .01v5.98l-6 .01v-6zm31 0l6 .01v5.98l-6 .01v-6zm32 0l2.15.01v5.98l-2.15.01v-6zm16.15 0l6 .01v5.98l-6 .01v-6zm19 0l6 .01v5.98l-6 .01v-6zm19 0l2.15.01v5.98l-2.15.01v-6zm16.15 0l2.15.01v5.98l-2.15.01v-6zm28.16 0l6 .01v5.98l-6 .01v-6zm32 0l2.15.01v5.98l-2.15.01v-6zm16.15 0l6 .01v5.98l-6 .01v-6zm19 0l6 .01v5.98l-6 .01v-6zm31 0l6 .01v5.98l-6 .01v-6zm32 0l2.15.01v5.98l-2.15.01v-6zm16.16 0l6 .01v5.98l-6 .01v-6zm19 0l6 .01v5.98l-6 .01v-6zm18.99 0l2.15.01v5.98l-2.15.01v-6zm16.16 0l2.15.01v5.98l-2.15.01v-6zm28.15 0l6 .01v5.98l-6 .01v-6zm32 0l2.15.01v5.98l-2.15.01v-6zm16.15 0l6 .01v5.98l-6 .01v-6zm19 0l6 .01v5.98l-6 .01v-6zm31 0l6 .01v5.98l-6 .01v-6zM2 231l2.15.01v5.98L2 237v-6zm16.152 0l6 .01v5.98l-6 .01v-6zm19 0l6 .01v5.98l-6 .01v-6zm18.998 0l2.15.01v5.98l-2.15.01v-6zm16.153 0l2.15.01v5.98l-2.15.01v-6zm28.152 0l6 .01v5.98l-6 .01v-6zm32.004 0l2.15.01v5.98l-2.15.01v-6zm16.152 0l6 .01v5.98l-6 .01v-6zm19 0l6 .01v5.98l-6 .01v-6zm30.998 0l6 .01v5.98l-6 .01v-6zm32.004 0l2.15.01v5.98l-2.15.01v-6zm16.153 0l6 .01v5.98l-6 .01v-6zm19 0l6 .01v5.98l-6 .01v-6zm18.998 0l2.15.01v5.98l-2.15.01v-6zm16.152 0l2.15.01v5.98l-2.15.01v-6zm28.152 0l6 .01v5.98l-6 .01v-6zm32.004 0l2.15.01v5.98l-2.15.01v-6zm16.153 0l6 .01v5.98l-6 .01v-6zm19 0l6 .01v5.98l-6 .01v-6zm30.998 0l6 .01v5.98l-6 .01v-6zm32.004 0l2.15.01v5.98l-2.15.01v-6zm16.152 0l6 .01v5.98l-6 .01v-6zm19 0l6 .01v5.98l-6 .01v-6zm18.998 0l2.15.01v5.98l-2.15.01v-6zm16.152 0l2.15.01v5.98l-2.15.01v-6zm28.153 0l6 .01v5.98l-6 .01v-6zm32.004 0l2.15.01v5.98l-2.15.01v-6zm16.152 0l6 .01v5.98l-6 .01v-6zm19 0l6 .01v5.98l-6 .01v-6zm30.998 0l6 .01v5.98l-6 .01v-6zm32.004 0l2.15.01v5.98l-2.15.01v-6zm16.152 0l6 .01v5.98l-6 .01v-6zm19 0l6 .01v5.98l-6 .01v-6zm18.998 0l2.15.01v5.98l-2.15.01v-6zm16.153 0l2.15.01v5.98l-2.15.01v-6zm28.152 0l6 .01v5.98l-6 .01v-6zm32.004 0l2.15.01v5.98l-2.15.01v-6zm16.152 0l6 .01v5.98l-6 .01v-6zm19 0l6 .01v5.98l-6 .01v-6zm30.998 0l6 .01v5.98l-6 .01v-6zm32.004 0l2.15.01v5.98l-2.15.01v-6zm16.152 0l6 .01v5.98l-6 .01v-6zm19 0l6 .01v5.98l-6 .01v-6zm18.999 0l2.15.01v5.98l-2.15.01v-6zm16.152 0l2.15.01v5.98l-2.15.01v-6zm28.154 0l6 .01v5.98l-6 .01v-6zm32 0l2.15.01v5.98l-2.15.01v-6zm16.15 0l6 .01v5.98l-6 .01v-6zm19 0l6 .01v5.98l-6 .01v-6zm31 0l6 .01v5.98l-6 .01v-6zm32.01 0l2.15.01v5.98l-2.15.01v-6zm16.15 0l6 .01v5.98l-6 .01v-6zm19 0l6 .01v5.98l-6 .01v-6zm19 0l2.15.01v5.98l-2.15.01v-6zm16.15 0l2.15.01v5.98l-2.15.01v-6zm28.15 0l6 .01v5.98l-6 .01v-6zm32.01 0l2.15.01v5.98l-2.15.01v-6zm16.15 0l6 .01v5.98l-6 .01v-6zm19 0l6 .01v5.98l-6 .01v-6zm31 0l6 .01v5.98l-6 .01v-6zm32 0l2.15.01v5.98l-2.15.01v-6zm16.15 0l6 .01v5.98l-6 .01v-6zm19 0l6 .01v5.98l-6 .01v-6zm19 0l2.15.01v5.98l-2.15.01v-6zm16.15 0l2.15.01v5.98l-2.15.01v-6zm28.15 0l6 .01v5.98l-6 .01v-6zm32.01 0l2.15.01v5.98l-2.15.01v-6zm16.15 0l6 .01v5.98l-6 .01v-6zm19 0l6 .01v5.98l-6 .01v-6zm31 0l6 .01v5.98l-6 .01v-6zm32 0l2.15.01v5.98l-2.15.01v-6zm16.16 0l6 .01v5.98l-6 .01v-6zM1 246l6 .01v5.98L1 252v-6zm18.998 0l2.15.01v5.98l-2.15.01v-6zm16.152 0l2.15.01v5.98l-2.15.01v-6zm28.153 0l6 .01v5.98l-6 .01v-6zm32.004 0l2.15.01v5.98l-2.15.01v-6zm16.152 0l6 .01v5.98l-6 .01v-6zm19 0l6 .01v5.98l-6 .01v-6zm30.998 0l6 .01v5.98l-6 .01v-6zm32.004 0l2.15.01v5.98l-2.15.01v-6zm16.152 0l6 .01v5.98l-6 .01v-6zm19 0l6 .01v5.98l-6 .01v-6zm18.998 0l2.15.01v5.98l-2.15.01v-6zm16.153 0l2.15.01v5.98l-2.15.01v-6zm28.152 0l6 .01v5.98l-6 .01v-6zm32.004 0l2.15.01v5.98l-2.15.01v-6zm16.152 0l6 .01v5.98l-6 .01v-6zm19 0l6 .01v5.98l-6 .01v-6zm30.998 0l6 .01v5.98l-6 .01v-6zm32.004 0l2.15.01v5.98l-2.15.01v-6zm16.153 0l6 .01v5.98l-6 .01v-6zm19 0l6 .01v5.98l-6 .01v-6zm18.998 0l2.15.01v5.98l-2.15.01v-6zm16.152 0l2.15.01v5.98l-2.15.01v-6zm28.152 0l6 .01v5.98l-6 .01v-6zm32.004 0l2.15.01v5.98l-2.15.01v-6zm16.153 0l6 .01v5.98l-6 .01v-6zm19 0l6 .01v5.98l-6 .01v-6zm30.998 0l6 .01v5.98l-6 .01v-6zm32.004 0l2.15.01v5.98l-2.15.01v-6zm16.152 0l6 .01v5.98l-6 .01v-6zm19 0l6 .01v5.98l-6 .01v-6zm18.998 0l2.15.01v5.98l-2.15.01v-6zm16.152 0l2.15.01v5.98l-2.15.01v-6zm28.153 0l6 .01v5.98l-6 .01v-6zm32.003 0l2.15.01v5.98l-2.15.01v-6zm16.153 0l6 .01v5.98l-6 .01v-6zm19 0l6 .01v5.98l-6 .01v-6zm30.998 0l6 .01v5.98l-6 .01v-6zm32.004 0l2.15.01v5.98l-2.15.01v-6zm16.152 0l6 .01v5.98l-6 .01v-6zm19 0l6 .01v5.98l-6 .01v-6zm18.998 0l2.15.01v5.98l-2.15.01v-6zm16.153 0l2.15.01v5.98l-2.15.01v-6zm28.152 0l6 .01v5.98l-6 .01v-6zm32.004 0l2.15.01v5.98l-2.15.01v-6zm16.15 0l6 .01v5.98l-6 .01v-6zm19 0l6 .01v5.98l-6 .01v-6zm31 0l6 .01v5.98l-6 .01v-6zm32 0l2.15.01v5.98l-2.15.01v-6zm16.16 0l6 .01v5.98l-6 .01v-6zm19 0l6 .01v5.98l-6 .01v-6zm18.99 0l2.15.01v5.98l-2.15.01v-6zm16.16 0l2.15.01v5.98l-2.15.01v-6zm28.15 0l6 .01v5.98l-6 .01v-6zm32 0l2.15.01v5.98l-2.15.01v-6zm16.16 0l6 .01v5.98l-6 .01v-6zm19 0l6 .01v5.98l-6 .01v-6zm30.99 0l6 .01v5.98l-6 .01v-6zm32.01 0l2.15.01v5.98l-2.15.01v-6zm16.15 0l6 .01v5.98l-6 .01v-6zm19 0l6 .01v5.98l-6 .01v-6zm19 0l2.15.01v5.98l-2.15.01v-6zm16.15 0l2.15.01v5.98l-2.15.01v-6zm28.15 0l6 .01v5.98l-6 .01v-6zm32.01 0l2.15.01v5.98l-2.15.01v-6zm16.15 0l6 .01v5.98l-6 .01v-6zm19 0l6 .01v5.98l-6 .01v-6zm31 0l6 .01v5.98l-6 .01v-6zm32 0l2.15.01v5.98l-2.15.01v-6zm16.15 0l6 .01v5.98l-6 .01v-6zm19 0l6 .01v5.98l-6 .01v-6zm19 0l2.15.01v5.98l-2.15.01v-6zM2 261l2.15.01v5.98L2 267v-6zm28.152 0l6 .01v5.98l-6 .01v-6zm32.004 0l2.15.01v5.98l-2.15.01v-6zm16.153 0l6 .01v5.98l-6 .01v-6zm19 0l6 .01v5.98l-6 .01v-6zm30.998 0l6 .01v5.98l-6 .01v-6zm32.004 0l2.15.01v5.98l-2.15.01v-6zm16.152 0l6 .01v5.98l-6 .01v-6zm19 0l6 .01v5.98l-6 .01v-6zm18.998 0l2.15.01v5.98l-2.15.01v-6zm16.152 0l2.15.01v5.98l-2.15.01v-6zm28.153 0l6 .01v5.98l-6 .01v-6zm32.004 0l2.15.01v5.98l-2.15.01v-6zm16.152 0l6 .01v5.98l-6 .01v-6zm19 0l6 .01v5.98l-6 .01v-6zm30.998 0l6 .01v5.98l-6 .01v-6zm32.004 0l2.15.01v5.98l-2.15.01v-6zm16.152 0l6 .01v5.98l-6 .01v-6zm19 0l6 .01v5.98l-6 .01v-6zm18.998 0l2.15.01v5.98l-2.15.01v-6zm16.153 0l2.15.01v5.98l-2.15.01v-6zm28.152 0l6 .01v5.98l-6 .01v-6zm32.004 0l2.15.01v5.98l-2.15.01v-6zm16.152 0l6 .01v5.98l-6 .01v-6zm19 0l6 .01v5.98l-6 .01v-6zm30.998 0l6 .01v5.98l-6 .01v-6zm32.004 0l2.15.01v5.98l-2.15.01v-6zm16.152 0l6 .01v5.98l-6 .01v-6zm19 0l6 .01v5.98l-6 .01v-6zm18.999 0l2.15.01v5.98l-2.15.01v-6zm16.152 0l2.15.01v5.98l-2.15.01v-6zm28.152 0l6 .01v5.98l-6 .01v-6zm32.004 0l2.15.01v5.98l-2.15.01v-6zm16.152 0l6 .01v5.98l-6 .01v-6zm19 0l6 .01v5.98l-6 .01v-6zm30.998 0l6 .01v5.98l-6 .01v-6zm32.004 0l2.15.01v5.98l-2.15.01v-6zm16.153 0l6 .01v5.98l-6 .01v-6zm19 0l6 .01v5.98l-6 .01v-6zm18.998 0l2.15.01v5.98l-2.15.01v-6zm16.152 0l2.15.01v5.98l-2.15.01v-6zm28.152 0l6 .01v5.98l-6 .01v-6zm32.004 0l2.15.01v5.98l-2.15.01v-6zm16.153 0l6 .01v5.98l-6 .01v-6zm18.998 0l6 .01v5.98l-6 .01v-6zm31 0l6 .01v5.98l-6 .01v-6zm32 0l2.15.01v5.98l-2.15.01v-6zm16.16 0l6 .01v5.98l-6 .01v-6zm19 0l6 .01v5.98l-6 .01v-6zm18.99 0l2.15.01v5.98l-2.15.01v-6zm16.16 0l2.15.01v5.98l-2.15.01v-6zm28.15 0l6 .01v5.98l-6 .01v-6zm32 0l2.15.01v5.98l-2.15.01v-6zm16.16 0l6 .01v5.98l-6 .01v-6zm19 0l6 .01v5.98l-6 .01v-6zm30.99 0l6 .01v5.98l-6 .01v-6zm32.01 0l2.15.01v5.98l-2.15.01v-6zm16.15 0l6 .01v5.98l-6 .01v-6zm19 0l6 .01v5.98l-6 .01v-6zm19 0l2.15.01v5.98l-2.15.01v-6zm16.15 0l2.15.01v5.98l-2.15.01v-6zm28.15 0l6 .01v5.98l-6 .01v-6zm32.01 0l2.15.01v5.98l-2.15.01v-6zm16.15 0l6 .01v5.98l-6 .01v-6zm19 0l6 .01v5.98l-6 .01v-6zm31 0l6 .01v5.98l-6 .01v-6zm32 0l2.15.01v5.98l-2.15.01v-6zm16.15 0l6 .01v5.98l-6 .01v-6zm19 0l6 .01v5.98l-6 .01v-6zm19 0l2.15.01v5.98l-2.15.01v-6zm16.15 0l2.15.01v5.98l-2.15.01v-6zM14 276l6 .01v5.98l-6 .01v-6zm32.004 0l2.15.01v5.98l-2.15.01v-6zm16.152 0l6 .01v5.98l-6 .01v-6zm19 0l6 .01v5.98l-6 .01v-6zm30.998 0l6 .01v5.98l-6 .01v-6zm32.004 0l2.15.01v5.98l-2.15.01v-6zm16.153 0l6 .01v5.98l-6 .01v-6zm19 0l6 .01v5.98l-6 .01v-6zm18.998 0l2.15.01v5.98l-2.15.01v-6zm16.152 0l2.15.01v5.98l-2.15.01v-6zm28.152 0l6 .01v5.98l-6 .01v-6zm32.004 0l2.15.01v5.98l-2.15.01v-6zm16.153 0l6 .01v5.98l-6 .01v-6zm19 0l6 .01v5.98l-6 .01v-6zm30.998 0l6 .01v5.98l-6 .01v-6zm32.003 0l2.15.01v5.98l-2.15.01v-6zm16.153 0l6 .01v5.98l-6 .01v-6zm19 0l6 .01v5.98l-6 .01v-6zm18.998 0l2.15.01v5.98l-2.15.01v-6zm16.152 0l2.15.01v5.98l-2.15.01v-6zm28.153 0l6 .01v5.98l-6 .01v-6zm32.003 0l2.15.01v5.98l-2.15.01v-6zm16.153 0l6 .01v5.98l-6 .01v-6zm19 0l6 .01v5.98l-6 .01v-6zm30.998 0l6 .01v5.98l-6 .01v-6zm32.004 0l2.15.01v5.98l-2.15.01v-6zm16.152 0l6 .01v5.98l-6 .01v-6zm19 0l6 .01v5.98l-6 .01v-6zm18.998 0l2.15.01v5.98l-2.15.01v-6zm16.153 0l2.15.01v5.98l-2.15.01v-6zm28.152 0l6 .01v5.98l-6 .01v-6zm32.004 0l2.15.01v5.98l-2.15.01v-6zm16.152 0l6 .01v5.98l-6 .01v-6zm19 0l6 .01v5.98l-6 .01v-6zm30.998 0l6 .01v5.98l-6 .01v-6zm32.004 0l2.15.01v5.98l-2.15.01v-6zm16.152 0l6 .01v5.98l-6 .01v-6zm19 0l6 .01v5.98l-6 .01v-6zm18.998 0l2.15.01v5.98l-2.15.01v-6zm16.153 0l2.15.01v5.98l-2.15.01v-6zm28.152 0l6 .01v5.98l-6 .01v-6zm32.004 0l2.15.01v5.98l-2.15.01v-6zm16.152 0l6 .01v5.98l-6 .01v-6zm19 0l6.001.01v5.98l-6.001.01v-6zm31.001 0l6 .01v5.98l-6 .01v-6zm32 0l2.15.01v5.98l-2.15.01v-6zm16.15 0l6 .01v5.98l-6 .01v-6zm19 0l6 .01v5.98l-6 .01v-6zm19 0l2.15.01v5.98l-2.15.01v-6zm16.15 0l2.15.01v5.98l-2.15.01v-6zm28.16 0l6 .01v5.98l-6 .01v-6zm32 0l2.15.01v5.98l-2.15.01v-6zm16.15 0l6 .01v5.98l-6 .01v-6zm19 0l6 .01v5.98l-6 .01v-6zm31 0l6 .01v5.98l-6 .01v-6zm32 0l2.15.01v5.98l-2.15.01v-6zm16.16 0l6 .01v5.98l-6 .01v-6zm19 0l6 .01v5.98l-6 .01v-6zm19 0l2.15.01v5.98l-2.15.01v-6zm16.15 0l2.15.01v5.98l-2.15.01v-6zm28.15 0l6 .01v5.98l-6 .01v-6zm32 0l2.15.01v5.98l-2.15.01v-6zm16.16 0l6 .01v5.98l-6 .01v-6zm19 0l6 .01v5.98l-6 .01v-6zm30.99 0l6 .01v5.98l-6 .01v-6zm32.01 0l2.15.01v5.98l-2.15.01v-6zm16.15 0l6 .01v5.98l-6 .01v-6zm19 0l6 .01v5.98l-6 .01v-6zm19 0l2.15.01v5.98l-2.15.01v-6zm16.15 0l2.15.01v5.98l-2.15.01v-6zm28.15 0l6 .01v5.98l-6 .01v-6zM2 291l2.15.01v5.98L2 297v-6zm16.152 0l6 .01v5.98l-6 .01v-6zm19 0l6 .01v5.98l-6 .01v-6zm30.998 0l6 .01v5.98l-6 .01v-6zm32.004 0l2.15.01v5.98l-2.15.01v-6zm16.153 0l6 .01v5.98l-6 .01v-6zm19 0l6 .01v5.98l-6 .01v-6zm18.998 0l2.15.01v5.98l-2.15.01v-6zm16.152 0l2.15.01v5.98l-2.15.01v-6zm28.152 0l6 .01v5.98l-6 .01v-6zm32.004 0l2.15.01v5.98l-2.15.01v-6zm16.153 0l6 .01v5.98l-6 .01v-6zm19 0l6 .01v5.98l-6 .01v-6zm30.998 0l6 .01v5.98l-6 .01v-6zm32.004 0l2.15.01v5.98l-2.15.01v-6zm16.152 0l6 .01v5.98l-6 .01v-6zm19 0l6 .01v5.98l-6 .01v-6zm18.998 0l2.15.01v5.98l-2.15.01v-6zm16.152 0l2.15.01v5.98l-2.15.01v-6zm28.153 0l6 .01v5.98l-6 .01v-6zm32.004 0l2.15.01v5.98l-2.15.01v-6zm16.152 0l6 .01v5.98l-6 .01v-6zm19 0l6 .01v5.98l-6 .01v-6zm30.998 0l6 .01v5.98l-6 .01v-6zm32.004 0l2.15.01v5.98l-2.15.01v-6zm16.152 0l6 .01v5.98l-6 .01v-6zm19 0l6 .01v5.98l-6 .01v-6zm18.998 0l2.15.01v5.98l-2.15.01v-6zm16.153 0l2.15.01v5.98l-2.15.01v-6zm28.152 0l6 .01v5.98l-6 .01v-6zm32.004 0l2.15.01v5.98l-2.15.01v-6zm16.152 0l6 .01v5.98l-6 .01v-6zm19 0l6 .01v5.98l-6 .01v-6zm30.998 0l6 .01v5.98l-6 .01v-6zm32.004 0l2.15.01v5.98l-2.15.01v-6zm16.152 0l6 .01v5.98l-6 .01v-6zm19 0l6 .01v5.98l-6 .01v-6zm18.999 0l2.15.01v5.98l-2.15.01v-6zm16.152 0l2.15.01v5.98l-2.15.01v-6zm28.152 0l6 .01v5.98l-6 .01v-6zm32.004 0l2.15.01v5.98l-2.15.01v-6zm16.152 0l6 .01v5.98l-6 .01v-6zm19 0l6 .01v5.98l-6 .01v-6zm30.999 0l6 .01v5.98l-6 .01v-6zm32.006 0l2.15.01v5.98l-2.15.01v-6zm16.15 0l6 .01v5.98l-6 .01v-6zm19 0l6 .01v5.98l-6 .01v-6zm19 0l2.15.01v5.98l-2.15.01v-6zm16.15 0l2.15.01v5.98l-2.15.01v-6zm28.15 0l6 .01v5.98l-6 .01v-6zm32.01 0l2.15.01v5.98l-2.15.01v-6zm16.15 0l6 .01v5.98l-6 .01v-6zm19 0l6 .01v5.98l-6 .01v-6zm31 0l6 .01v5.98l-6 .01v-6zm32 0l2.15.01v5.98l-2.15.01v-6zm16.15 0l6 .01v5.98l-6 .01v-6zm19 0l6 .01v5.98l-6 .01v-6zm19 0l2.15.01v5.98l-2.15.01v-6zm16.15 0l2.15.01v5.98l-2.15.01v-6zm28.16 0l6 .01v5.98l-6 .01v-6zm32 0l2.15.01v5.98l-2.15.01v-6zm16.15 0l6 .01v5.98l-6 .01v-6zm19 0l6 .01v5.98l-6 .01v-6zm31 0l6 .01v5.98l-6 .01v-6zm32 0l2.15.01v5.98l-2.15.01v-6zm16.16 0l6 .01v5.98l-6 .01v-6zm19 0l6 .01v5.98l-6 .01v-6zm18.99 0l2.15.01v5.98l-2.15.01v-6zm16.16 0l2.15.01v5.98l-2.15.01v-6zm28.15 0l6 .01v5.98l-6 .01v-6zm32 0l2.15.01v5.98l-2.15.01v-6zm16.16 0l6 .01v5.98l-6 .01v-6zM1 306l6 .01v5.98L1 312v-6zm30.998 0l6 .01v5.98l-6 .01v-6zm32.004 0l2.15.01v5.98l-2.15.01v-6zm16.152 0l6 .01v5.98l-6 .01v-6zm19 0l6 .01v5.98l-6 .01v-6zm18.998 0l2.15.01v5.98l-2.15.01v-6zm16.153 0l2.15.01v5.98l-2.15.01v-6zm28.152 0l6 .01v5.98l-6 .01v-6zm32.004 0l2.15.01v5.98l-2.15.01v-6zm16.152 0l6 .01v5.98l-6 .01v-6zm19 0l6 .01v5.98l-6 .01v-6zm30.998 0l6 .01v5.98l-6 .01v-6zm32.004 0l2.15.01v5.98l-2.15.01v-6zm16.153 0l6 .01v5.98l-6 .01v-6zm19 0l6 .01v5.98l-6 .01v-6zm18.998 0l2.15.01v5.98l-2.15.01v-6zm16.152 0l2.15.01v5.98l-2.15.01v-6zm28.152 0l6 .01v5.98l-6 .01v-6zm32.004 0l2.15.01v5.98l-2.15.01v-6zm16.153 0l6 .01v5.98l-6 .01v-6zm19 0l6 .01v5.98l-6 .01v-6zm30.998 0l6 .01v5.98l-6 .01v-6zm32.004 0l2.15.01v5.98l-2.15.01v-6zm16.152 0l6 .01v5.98l-6 .01v-6zm19 0l6 .01v5.98l-6 .01v-6zm18.998 0l2.15.01v5.98l-2.15.01v-6zm16.152 0l2.15.01v5.98l-2.15.01v-6zm28.153 0l6 .01v5.98l-6 .01v-6zm32.004 0l2.15.01v5.98l-2.15.01v-6zm16.152 0l6 .01v5.98l-6 .01v-6zm19 0l6 .01v5.98l-6 .01v-6zm30.998 0l6 .01v5.98l-6 .01v-6zm32.004 0l2.15.01v5.98l-2.15.01v-6zm16.152 0l6 .01v5.98l-6 .01v-6zm19 0l6 .01v5.98l-6 .01v-6zm18.998 0l2.15.01v5.98l-2.15.01v-6zm16.153 0l2.15.01v5.98l-2.15.01v-6zm28.152 0l6 .01v5.98l-6 .01v-6zm32.004 0l2.15.01v5.98l-2.15.01v-6zm16.152 0l6 .01v5.98l-6 .01v-6zm19 0l6 .01v5.98l-6 .01v-6zm30.998 0l6 .01v5.98l-6 .01v-6zm32.004 0l2.15.01v5.98l-2.15.01v-6zm16.152 0l6.003.01v5.98l-6.003.01v-6zm19.003 0l6 .01v5.98l-6 .01v-6zm19 0l2.15.01v5.98l-2.15.01v-6zm16.15 0l2.15.01v5.98l-2.15.01v-6zm28.15 0l6 .01v5.98l-6 .01v-6zm32 0l2.15.01v5.98l-2.15.01v-6zm16.16 0l6 .01v5.98l-6 .01v-6zm19 0l6 .01v5.98l-6 .01v-6zm30.99 0l6 .01v5.98l-6 .01v-6zm32.01 0l2.15.01v5.98l-2.15.01v-6zm16.15 0l6 .01v5.98l-6 .01v-6zm19 0l6 .01v5.98l-6 .01v-6zm19 0l2.15.01v5.98l-2.15.01v-6zm16.15 0l2.15.01v5.98l-2.15.01v-6zm28.15 0l6 .01v5.98l-6 .01v-6zm32.01 0l2.15.01v5.98l-2.15.01v-6zm16.15 0l6 .01v5.98l-6 .01v-6zm19 0l6 .01v5.98l-6 .01v-6zm31 0l6 .01v5.98l-6 .01v-6zm32 0l2.15.01v5.98l-2.15.01v-6zm16.15 0l6 .01v5.98l-6 .01v-6zm19 0l6 .01v5.98l-6 .01v-6zm19 0l2.15.01v5.98l-2.15.01v-6zm16.15 0l2.15.01v5.98l-2.15.01v-6zm28.16 0l6 .01v5.98l-6 .01v-6zm32 0l2.15.01v5.98l-2.15.01v-6zm16.15 0l6 .01v5.98l-6 .01v-6zm19 0l6 .01v5.98l-6 .01v-6zM14 321l6 .01v5.98l-6 .01v-6zm32.004 0l2.15.01v5.98l-2.15.01v-6zm16.152 0l6 .01v5.98l-6 .01v-6zm19 0l6 .01v5.98l-6 .01v-6zm18.998 0l2.15.01v5.98l-2.15.01v-6zm16.153 0l2.15.01v5.98l-2.15.01v-6zm28.152 0l6 .01v5.98l-6 .01v-6zm32.004 0l2.15.01v5.98l-2.15.01v-6zm16.152 0l6 .01v5.98l-6 .01v-6zm19 0l6 .01v5.98l-6 .01v-6zm30.998 0l6 .01v5.98l-6 .01v-6zm32.004 0l2.15.01v5.98l-2.15.01v-6zm16.153 0l6 .01v5.98l-6 .01v-6zm19 0l6 .01v5.98l-6 .01v-6zm18.998 0l2.15.01v5.98l-2.15.01v-6zm16.152 0l2.15.01v5.98l-2.15.01v-6zm28.152 0l6 .01v5.98l-6 .01v-6zm32.004 0l2.15.01v5.98l-2.15.01v-6zm16.153 0l6 .01v5.98l-6 .01v-6zm19 0l6 .01v5.98l-6 .01v-6zm30.998 0l6 .01v5.98l-6 .01v-6zm32.003 0l2.15.01v5.98l-2.15.01v-6zm16.153 0l6 .01v5.98l-6 .01v-6zm19 0l6 .01v5.98l-6 .01v-6zm18.998 0l2.15.01v5.98l-2.15.01v-6zm16.152 0l2.15.01v5.98l-2.15.01v-6zm28.153 0l6 .01v5.98l-6 .01v-6zm32.003 0l2.15.01v5.98l-2.15.01v-6zm16.153 0l6 .01v5.98l-6 .01v-6zm19 0l6 .01v5.98l-6 .01v-6zm30.998 0l6 .01v5.98l-6 .01v-6zm32.004 0l2.15.01v5.98l-2.15.01v-6zm16.152 0l6 .01v5.98l-6 .01v-6zm19 0l6 .01v5.98l-6 .01v-6zm18.998 0l2.15.01v5.98l-2.15.01v-6zm16.152 0l2.15.01v5.98l-2.15.01v-6zm28.153 0l6 .01v5.98l-6 .01v-6zm32.004 0l2.15.01v5.98l-2.15.01v-6zm16.152 0l6 .01v5.98l-6 .01v-6zm19 0l6 .01v5.98l-6 .01v-6zm30.998 0l6 .01v5.98l-6 .01v-6zm32.004 0l2.15.01v5.98l-2.15.01v-6zm16.152 0l6 .01v5.98l-6 .01v-6zm19 0l6.001.01v5.98l-6.001.01v-6zm19.001 0l2.15.01v5.98l-2.15.01v-6zm16.15 0l2.15.01v5.98l-2.15.01v-6zm28.15 0l6 .01v5.98l-6 .01v-6zm32.01 0l2.15.01v5.98l-2.15.01v-6zm16.15 0l6 .01v5.98l-6 .01v-6zm19 0l6 .01v5.98l-6 .01v-6zm31 0l6 .01v5.98l-6 .01v-6zm32 0l2.15.01v5.98l-2.15.01v-6zm16.15 0l6 .01v5.98l-6 .01v-6zm19 0l6 .01v5.98l-6 .01v-6zm19 0l2.15.01v5.98l-2.15.01v-6zm16.15 0l2.15.01v5.98l-2.15.01v-6zm28.16 0l6 .01v5.98l-6 .01v-6zm32 0l2.15.01v5.98l-2.15.01v-6zm16.15 0l6 .01v5.98l-6 .01v-6zm19 0l6 .01v5.98l-6 .01v-6zm31 0l6 .01v5.98l-6 .01v-6zm32 0l2.15.01v5.98l-2.15.01v-6zm16.16 0l6 .01v5.98l-6 .01v-6zm19 0l6 .01v5.98l-6 .01v-6zm18.99 0l2.15.01v5.98l-2.15.01v-6zm16.16 0l2.15.01v5.98l-2.15.01v-6zm28.15 0l6 .01v5.98l-6 .01v-6zm32 0l2.15.01v5.98l-2.15.01v-6zm16.15 0l6 .01v5.98l-6 .01v-6zm19 0l6 .01v5.98l-6 .01v-6zm31 0l6 .01v5.98l-6 .01v-6zM2 336l2.15.01v5.98L2 342v-6zm16.152 0l6 .01v5.98l-6 .01v-6zm19 0l6 .01v5.98l-6 .01v-6zm18.998 0l2.15.01v5.98l-2.15.01v-6zm16.153 0l2.15.01v5.98l-2.15.01v-6zm28.152 0l6 .01v5.98l-6 .01v-6zm32.004 0l2.15.01v5.98l-2.15.01v-6zm16.152 0l6 .01v5.98l-6 .01v-6zm19 0l6 .01v5.98l-6 .01v-6zm30.998 0l6 .01v5.98l-6 .01v-6zm32.004 0l2.15.01v5.98l-2.15.01v-6zm16.153 0l6 .01v5.98l-6 .01v-6zm19 0l6 .01v5.98l-6 .01v-6zm18.998 0l2.15.01v5.98l-2.15.01v-6zm16.152 0l2.15.01v5.98l-2.15.01v-6zm28.152 0l6 .01v5.98l-6 .01v-6zm32.004 0l2.15.01v5.98l-2.15.01v-6zm16.153 0l6 .01v5.98l-6 .01v-6zm19 0l6 .01v5.98l-6 .01v-6zm30.998 0l6 .01v5.98l-6 .01v-6zm32.004 0l2.15.01v5.98l-2.15.01v-6zm16.152 0l6 .01v5.98l-6 .01v-6zm19 0l6 .01v5.98l-6 .01v-6zm18.998 0l2.15.01v5.98l-2.15.01v-6zm16.152 0l2.15.01v5.98l-2.15.01v-6zm28.153 0l6 .01v5.98l-6 .01v-6zm32.004 0l2.15.01v5.98l-2.15.01v-6zm16.152 0l6 .01v5.98l-6 .01v-6zm19 0l6 .01v5.98l-6 .01v-6zm30.998 0l6 .01v5.98l-6 .01v-6zm32.004 0l2.15.01v5.98l-2.15.01v-6zm16.152 0l6 .01v5.98l-6 .01v-6zm19 0l6 .01v5.98l-6 .01v-6zm18.998 0l2.15.01v5.98l-2.15.01v-6zm16.153 0l2.15.01v5.98l-2.15.01v-6zm28.152 0l6 .01v5.98l-6 .01v-6zm32.004 0l2.15.01v5.98l-2.15.01v-6zm16.152 0l6 .01v5.98l-6 .01v-6zm19 0l6 .01v5.98l-6 .01v-6zm30.998 0l6 .01v5.98l-6 .01v-6zm32.004 0l2.15.01v5.98l-2.15.01v-6zm16.152 0l6 .01v5.98l-6 .01v-6zm19 0l6 .01v5.98l-6 .01v-6zm18.999 0l2.15.01v5.98l-2.15.01v-6zm16.152 0l2.15.01v5.98l-2.15.01v-6zm28.154 0l6 .01v5.98l-6 .01v-6zm32 0l2.15.01v5.98l-2.15.01v-6zm16.15 0l6 .01v5.98l-6 .01v-6zm19 0l6 .01v5.98l-6 .01v-6zm31 0l6 .01v5.98l-6 .01v-6zm32.01 0l2.15.01v5.98l-2.15.01v-6zm16.15 0l6 .01v5.98l-6 .01v-6zm19 0l6 .01v5.98l-6 .01v-6zm19 0l2.15.01v5.98l-2.15.01v-6zm16.15 0l2.15.01v5.98l-2.15.01v-6zm28.15 0l6 .01v5.98l-6 .01v-6zm32.01 0l2.15.01v5.98l-2.15.01v-6zm16.15 0l6 .01v5.98l-6 .01v-6zm19 0l6 .01v5.98l-6 .01v-6zm31 0l6 .01v5.98l-6 .01v-6zm32 0l2.15.01v5.98l-2.15.01v-6zm16.15 0l6 .01v5.98l-6 .01v-6zm19 0l6 .01v5.98l-6 .01v-6zm19 0l2.15.01v5.98l-2.15.01v-6zm16.15 0l2.15.01v5.98l-2.15.01v-6zm28.15 0l6 .01v5.98l-6 .01v-6zm32.01 0l2.15.01v5.98l-2.15.01v-6zm16.15 0l6 .01v5.98l-6 .01v-6zm19 0l6 .01v5.98l-6 .01v-6zm31 0l6 .01v5.98l-6 .01v-6zm32 0l2.15.01v5.98l-2.15.01v-6zm16.16 0l6 .01v5.98l-6 .01v-6zM1 351l6 .01v5.98L1 357v-6zm18.998 0l2.15.01v5.98l-2.15.01v-6zm16.152 0l2.15.01v5.98l-2.15.01v-6zm28.153 0l6 .01v5.98l-6 .01v-6zm32.004 0l2.15.01v5.98l-2.15.01v-6zm16.152 0l6 .01v5.98l-6 .01v-6zm19 0l6 .01v5.98l-6 .01v-6zm30.998 0l6 .01v5.98l-6 .01v-6zm32.004 0l2.15.01v5.98l-2.15.01v-6zm16.152 0l6 .01v5.98l-6 .01v-6zm19 0l6 .01v5.98l-6 .01v-6zm18.998 0l2.15.01v5.98l-2.15.01v-6zm16.153 0l2.15.01v5.98l-2.15.01v-6zm28.152 0l6 .01v5.98l-6 .01v-6zm32.004 0l2.15.01v5.98l-2.15.01v-6zm16.152 0l6 .01v5.98l-6 .01v-6zm19 0l6 .01v5.98l-6 .01v-6zm30.998 0l6 .01v5.98l-6 .01v-6zm32.004 0l2.15.01v5.98l-2.15.01v-6zm16.153 0l6 .01v5.98l-6 .01v-6zm19 0l6 .01v5.98l-6 .01v-6zm18.998 0l2.15.01v5.98l-2.15.01v-6zm16.152 0l2.15.01v5.98l-2.15.01v-6zm28.152 0l6 .01v5.98l-6 .01v-6zm32.004 0l2.15.01v5.98l-2.15.01v-6zm16.153 0l6 .01v5.98l-6 .01v-6zm19 0l6 .01v5.98l-6 .01v-6zm30.998 0l6 .01v5.98l-6 .01v-6zm32.004 0l2.15.01v5.98l-2.15.01v-6zm16.152 0l6 .01v5.98l-6 .01v-6zm19 0l6 .01v5.98l-6 .01v-6zm18.998 0l2.15.01v5.98l-2.15.01v-6zm16.152 0l2.15.01v5.98l-2.15.01v-6zm28.153 0l6 .01v5.98l-6 .01v-6zm32.003 0l2.15.01v5.98l-2.15.01v-6zm16.153 0l6 .01v5.98l-6 .01v-6zm19 0l6 .01v5.98l-6 .01v-6zm30.998 0l6 .01v5.98l-6 .01v-6zm32.004 0l2.15.01v5.98l-2.15.01v-6zm16.152 0l6 .01v5.98l-6 .01v-6zm19 0l6 .01v5.98l-6 .01v-6zm18.998 0l2.15.01v5.98l-2.15.01v-6zm16.153 0l2.15.01v5.98l-2.15.01v-6zm28.152 0l6 .01v5.98l-6 .01v-6zm32.004 0l2.15.01v5.98l-2.15.01v-6zm16.15 0l6 .01v5.98l-6 .01v-6zm19 0l6 .01v5.98l-6 .01v-6zm31 0l6 .01v5.98l-6 .01v-6zm32 0l2.15.01v5.98l-2.15.01v-6zm16.16 0l6 .01v5.98l-6 .01v-6zm19 0l6 .01v5.98l-6 .01v-6zm18.99 0l2.15.01v5.98l-2.15.01v-6zm16.16 0l2.15.01v5.98l-2.15.01v-6zm28.15 0l6 .01v5.98l-6 .01v-6zm32 0l2.15.01v5.98l-2.15.01v-6zm16.16 0l6 .01v5.98l-6 .01v-6zm19 0l6 .01v5.98l-6 .01v-6zm30.99 0l6 .01v5.98l-6 .01v-6zm32.01 0l2.15.01v5.98l-2.15.01v-6zm16.15 0l6 .01v5.98l-6 .01v-6zm19 0l6 .01v5.98l-6 .01v-6zm19 0l2.15.01v5.98l-2.15.01v-6zm16.15 0l2.15.01v5.98l-2.15.01v-6zm28.15 0l6 .01v5.98l-6 .01v-6zm32.01 0l2.15.01v5.98l-2.15.01v-6zm16.15 0l6 .01v5.98l-6 .01v-6zm19 0l6 .01v5.98l-6 .01v-6zm31 0l6 .01v5.98l-6 .01v-6zm32 0l2.15.01v5.98l-2.15.01v-6zm16.15 0l6 .01v5.98l-6 .01v-6zm19 0l6 .01v5.98l-6 .01v-6zm19 0l2.15.01v5.98l-2.15.01v-6zM2 366l2.15.01v5.98L2 372v-6zm28.152 0l6 .01v5.98l-6 .01v-6zm32.004 0l2.15.01v5.98l-2.15.01v-6zm16.153 0l6 .01v5.98l-6 .01v-6zm19 0l6 .01v5.98l-6 .01v-6zm30.998 0l6 .01v5.98l-6 .01v-6zm32.004 0l2.15.01v5.98l-2.15.01v-6zm16.152 0l6 .01v5.98l-6 .01v-6zm19 0l6 .01v5.98l-6 .01v-6zm18.998 0l2.15.01v5.98l-2.15.01v-6zm16.152 0l2.15.01v5.98l-2.15.01v-6zm28.153 0l6 .01v5.98l-6 .01v-6zm32.004 0l2.15.01v5.98l-2.15.01v-6zm16.152 0l6 .01v5.98l-6 .01v-6zm19 0l6 .01v5.98l-6 .01v-6zm30.998 0l6 .01v5.98l-6 .01v-6zm32.004 0l2.15.01v5.98l-2.15.01v-6zm16.152 0l6 .01v5.98l-6 .01v-6zm19 0l6 .01v5.98l-6 .01v-6zm18.998 0l2.15.01v5.98l-2.15.01v-6zm16.153 0l2.15.01v5.98l-2.15.01v-6zm28.152 0l6 .01v5.98l-6 .01v-6zm32.004 0l2.15.01v5.98l-2.15.01v-6zm16.152 0l6 .01v5.98l-6 .01v-6zm19 0l6 .01v5.98l-6 .01v-6zm30.998 0l6 .01v5.98l-6 .01v-6zm32.004 0l2.15.01v5.98l-2.15.01v-6zm16.152 0l6 .01v5.98l-6 .01v-6zm19 0l6 .01v5.98l-6 .01v-6zm18.999 0l2.15.01v5.98l-2.15.01v-6zm16.152 0l2.15.01v5.98l-2.15.01v-6zm28.152 0l6 .01v5.98l-6 .01v-6zm32.004 0l2.15.01v5.98l-2.15.01v-6zm16.152 0l6 .01v5.98l-6 .01v-6zm19 0l6 .01v5.98l-6 .01v-6zm30.998 0l6 .01v5.98l-6 .01v-6zm32.004 0l2.15.01v5.98l-2.15.01v-6zm16.153 0l6 .01v5.98l-6 .01v-6zm19 0l6 .01v5.98l-6 .01v-6zm18.998 0l2.15.01v5.98l-2.15.01v-6zm16.152 0l2.15.01v5.98l-2.15.01v-6zm28.152 0l6 .01v5.98l-6 .01v-6zm32.004 0l2.15.01v5.98l-2.15.01v-6zm16.153 0l6 .01v5.98l-6 .01v-6zm18.998 0l6 .01v5.98l-6 .01v-6zm31 0l6 .01v5.98l-6 .01v-6zm32 0l2.15.01v5.98l-2.15.01v-6zm16.16 0l6 .01v5.98l-6 .01v-6zm19 0l6 .01v5.98l-6 .01v-6zm18.99 0l2.15.01v5.98l-2.15.01v-6zm16.16 0l2.15.01v5.98l-2.15.01v-6zm28.15 0l6 .01v5.98l-6 .01v-6zm32 0l2.15.01v5.98l-2.15.01v-6zm16.16 0l6 .01v5.98l-6 .01v-6zm19 0l6 .01v5.98l-6 .01v-6zm30.99 0l6 .01v5.98l-6 .01v-6zm32.01 0l2.15.01v5.98l-2.15.01v-6zm16.15 0l6 .01v5.98l-6 .01v-6zm19 0l6 .01v5.98l-6 .01v-6zm19 0l2.15.01v5.98l-2.15.01v-6zm16.15 0l2.15.01v5.98l-2.15.01v-6zm28.15 0l6 .01v5.98l-6 .01v-6zm32.01 0l2.15.01v5.98l-2.15.01v-6zm16.15 0l6 .01v5.98l-6 .01v-6zm19 0l6 .01v5.98l-6 .01v-6zm31 0l6 .01v5.98l-6 .01v-6zm32 0l2.15.01v5.98l-2.15.01v-6zm16.15 0l6 .01v5.98l-6 .01v-6zm19 0l6 .01v5.98l-6 .01v-6zm19 0l2.15.01v5.98l-2.15.01v-6zm16.15 0l2.15.01v5.98l-2.15.01v-6zM14 381l6 .01v5.98l-6 .01v-6zm32.004 0l2.15.01v5.98l-2.15.01v-6zm16.152 0l6 .01v5.98l-6 .01v-6zm19 0l6 .01v5.98l-6 .01v-6zm30.998 0l6 .01v5.98l-6 .01v-6zm32.004 0l2.15.01v5.98l-2.15.01v-6zm16.153 0l6 .01v5.98l-6 .01v-6zm19 0l6 .01v5.98l-6 .01v-6zm18.998 0l2.15.01v5.98l-2.15.01v-6zm16.152 0l2.15.01v5.98l-2.15.01v-6zm28.152 0l6 .01v5.98l-6 .01v-6zm32.004 0l2.15.01v5.98l-2.15.01v-6zm16.153 0l6 .01v5.98l-6 .01v-6zm19 0l6 .01v5.98l-6 .01v-6zm30.998 0l6 .01v5.98l-6 .01v-6zm32.003 0l2.15.01v5.98l-2.15.01v-6zm16.153 0l6 .01v5.98l-6 .01v-6zm19 0l6 .01v5.98l-6 .01v-6zm18.998 0l2.15.01v5.98l-2.15.01v-6zm16.152 0l2.15.01v5.98l-2.15.01v-6zm28.153 0l6 .01v5.98l-6 .01v-6zm32.003 0l2.15.01v5.98l-2.15.01v-6zm16.153 0l6 .01v5.98l-6 .01v-6zm19 0l6 .01v5.98l-6 .01v-6zm30.998 0l6 .01v5.98l-6 .01v-6zm32.004 0l2.15.01v5.98l-2.15.01v-6zm16.152 0l6 .01v5.98l-6 .01v-6zm19 0l6 .01v5.98l-6 .01v-6zm18.998 0l2.15.01v5.98l-2.15.01v-6zm16.153 0l2.15.01v5.98l-2.15.01v-6zm28.152 0l6 .01v5.98l-6 .01v-6zm32.004 0l2.15.01v5.98l-2.15.01v-6zm16.152 0l6 .01v5.98l-6 .01v-6zm19 0l6 .01v5.98l-6 .01v-6zm30.998 0l6 .01v5.98l-6 .01v-6zm32.004 0l2.15.01v5.98l-2.15.01v-6zm16.152 0l6 .01v5.98l-6 .01v-6zm19 0l6 .01v5.98l-6 .01v-6zm18.998 0l2.15.01v5.98l-2.15.01v-6zm16.153 0l2.15.01v5.98l-2.15.01v-6zm28.152 0l6 .01v5.98l-6 .01v-6zm32.004 0l2.15.01v5.98l-2.15.01v-6zm16.152 0l6 .01v5.98l-6 .01v-6zm19 0l6.001.01v5.98l-6.001.01v-6zm31.001 0l6 .01v5.98l-6 .01v-6zm32 0l2.15.01v5.98l-2.15.01v-6zm16.15 0l6 .01v5.98l-6 .01v-6zm19 0l6 .01v5.98l-6 .01v-6zm19 0l2.15.01v5.98l-2.15.01v-6zm16.15 0l2.15.01v5.98l-2.15.01v-6zm28.16 0l6 .01v5.98l-6 .01v-6zm32 0l2.15.01v5.98l-2.15.01v-6zm16.15 0l6 .01v5.98l-6 .01v-6zm19 0l6 .01v5.98l-6 .01v-6zm31 0l6 .01v5.98l-6 .01v-6zm32 0l2.15.01v5.98l-2.15.01v-6zm16.16 0l6 .01v5.98l-6 .01v-6zm19 0l6 .01v5.98l-6 .01v-6zm19 0l2.15.01v5.98l-2.15.01v-6zm16.15 0l2.15.01v5.98l-2.15.01v-6zm28.15 0l6 .01v5.98l-6 .01v-6zm32 0l2.15.01v5.98l-2.15.01v-6zm16.16 0l6 .01v5.98l-6 .01v-6zm19 0l6 .01v5.98l-6 .01v-6zm30.99 0l6 .01v5.98l-6 .01v-6zm32.01 0l2.15.01v5.98l-2.15.01v-6zm16.15 0l6 .01v5.98l-6 .01v-6zm19 0l6 .01v5.98l-6 .01v-6zm19 0l2.15.01v5.98l-2.15.01v-6zm16.15 0l2.15.01v5.98l-2.15.01v-6zm28.15 0l6 .01v5.98l-6 .01v-6zM2 396l2.15.01v5.98L2 402v-6zm16.152 0l6 .01v5.98l-6 .01v-6zm19 0l6 .01v5.98l-6 .01v-6zm30.998 0l6 .01v5.98l-6 .01v-6zm32.004 0l2.15.01v5.98l-2.15.01v-6zm16.153 0l6 .01v5.98l-6 .01v-6zm19 0l6 .01v5.98l-6 .01v-6zm18.998 0l2.15.01v5.98l-2.15.01v-6zm16.152 0l2.15.01v5.98l-2.15.01v-6zm28.152 0l6 .01v5.98l-6 .01v-6zm32.004 0l2.15.01v5.98l-2.15.01v-6zm16.153 0l6 .01v5.98l-6 .01v-6zm19 0l6 .01v5.98l-6 .01v-6zm30.998 0l6 .01v5.98l-6 .01v-6zm32.004 0l2.15.01v5.98l-2.15.01v-6zm16.152 0l6 .01v5.98l-6 .01v-6zm19 0l6 .01v5.98l-6 .01v-6zm18.998 0l2.15.01v5.98l-2.15.01v-6zm16.152 0l2.15.01v5.98l-2.15.01v-6zm28.153 0l6 .01v5.98l-6 .01v-6zm32.004 0l2.15.01v5.98l-2.15.01v-6zm16.152 0l6 .01v5.98l-6 .01v-6zm19 0l6 .01v5.98l-6 .01v-6zm30.998 0l6 .01v5.98l-6 .01v-6zm32.004 0l2.15.01v5.98l-2.15.01v-6zm16.152 0l6 .01v5.98l-6 .01v-6zm19 0l6 .01v5.98l-6 .01v-6zm18.998 0l2.15.01v5.98l-2.15.01v-6zm16.153 0l2.15.01v5.98l-2.15.01v-6zm28.152 0l6 .01v5.98l-6 .01v-6zm32.004 0l2.15.01v5.98l-2.15.01v-6zm16.152 0l6 .01v5.98l-6 .01v-6zm19 0l6 .01v5.98l-6 .01v-6zm30.998 0l6 .01v5.98l-6 .01v-6zm32.004 0l2.15.01v5.98l-2.15.01v-6zm16.152 0l6 .01v5.98l-6 .01v-6zm19 0l6 .01v5.98l-6 .01v-6zm18.999 0l2.15.01v5.98l-2.15.01v-6zm16.152 0l2.15.01v5.98l-2.15.01v-6zm28.152 0l6 .01v5.98l-6 .01v-6zm32.004 0l2.15.01v5.98l-2.15.01v-6zm16.152 0l6 .01v5.98l-6 .01v-6zm19 0l6 .01v5.98l-6 .01v-6zm30.999 0l6 .01v5.98l-6 .01v-6zm32.006 0l2.15.01v5.98l-2.15.01v-6zm16.15 0l6 .01v5.98l-6 .01v-6zm19 0l6 .01v5.98l-6 .01v-6zm19 0l2.15.01v5.98l-2.15.01v-6zm16.15 0l2.15.01v5.98l-2.15.01v-6zm28.15 0l6 .01v5.98l-6 .01v-6zm32.01 0l2.15.01v5.98l-2.15.01v-6zm16.15 0l6 .01v5.98l-6 .01v-6zm19 0l6 .01v5.98l-6 .01v-6zm31 0l6 .01v5.98l-6 .01v-6zm32 0l2.15.01v5.98l-2.15.01v-6zm16.15 0l6 .01v5.98l-6 .01v-6zm19 0l6 .01v5.98l-6 .01v-6zm19 0l2.15.01v5.98l-2.15.01v-6zm16.15 0l2.15.01v5.98l-2.15.01v-6zm28.16 0l6 .01v5.98l-6 .01v-6zm32 0l2.15.01v5.98l-2.15.01v-6zm16.15 0l6 .01v5.98l-6 .01v-6zm19 0l6 .01v5.98l-6 .01v-6z" fill="#F23F27"/></g><defs><clipPath id="fclip0_691_1975"><path fill="#fff" d="M0 0h100v100H0z"/></clipPath></defs></symbol><symbol fill="none" viewBox="0 0 118 77" id="logo" xmlns="http://www.w3.org/2000/svg"><path d="M51.07 0H0v51.128h51.058V0h.011zM118.002 0H99.57v51.128h18.432V0zM83.394 51.128H51.062L67.228 0H99.56L83.394 51.128zM5.51 76.973H0V64.129h3.398v10.61h.095l6.643-10.61h5.51v12.844h-3.398v-10.61h-.094L5.51 76.972zM23.375 76.973h-3.398V64.129h5.604l3.753 7.444h.094l3.847-7.444h5.475v12.844h-3.398v-10.61h-.095l-4.07 7.892h-3.718l-4-7.893h-.094v10.611zM43.094 76.973V64.129h14.148v2.777h-10.75v2.044h6.643c1.794 0 3.104.33 3.918.98.814.662 1.215 1.667 1.215 3.037 0 1.371-.413 2.364-1.227 3.025-.814.662-2.124.981-3.906.981H43.094zm3.386-5.388v2.611h8.19v-2.611h-8.19zM70.452 64.129h-4.98l-6.277 12.75v.094h3.623l1.239-2.588h7.788l1.239 2.588h3.693v-.094l-6.325-12.75zm-5.05 7.48l2.62-5.247 2.513 5.247h-5.133zM89.385 76.973h-5.51V64.129h3.398v10.61h.095l6.643-10.61h5.51v12.844h-3.398v-10.61h-.094l-6.644 10.61zM111.626 76.973h-3.399v-9.878h-6.36v-2.966h16.107v2.966h-6.36l.012 9.878z" fill="#fff"/></symbol><symbol fill="none" viewBox="0 0 7 12" id="menu-arrow" xmlns="http://www.w3.org/2000/svg"><path d="M1.182 0L0 1.093l4.814 4.895L0 10.884 1.182 12 7 5.988 1.182 0z" fill="#F23F27"/></symbol><symbol fill="none" viewBox="0 0 40 104" id="news-arrow-1" xmlns="http://www.w3.org/2000/svg"><path fill-rule="evenodd" clip-rule="evenodd" d="M40 0L0 52l40 52v-6.941L4.902 52 40 5.439V0z" fill="currentColor"/></symbol><symbol fill="none" viewBox="0 0 105 370" id="news-arrow-2" xmlns="http://www.w3.org/2000/svg"><path fill-rule="evenodd" clip-rule="evenodd" d="M0 0l105 185L0 370v-5.354L101.186 185 0 5.895V0z" fill="currentColor"/></symbol></svg>