<svg width="118" height="77" viewBox="0 0 118 77" fill="none" xmlns="http://www.w3.org/2000/svg">
<path d="M51.0694 0H0V51.1283H51.0576V0H51.0694Z" fill="white"/>
<path d="M118.002 0H99.5703V51.1283H118.002V0Z" fill="white"/>
<path d="M83.3938 51.1283H51.0625L67.2282 0H99.5595L83.3938 51.1283Z" fill="white"/>
<path d="M5.51049 76.973H0V64.1289H3.39833V74.7398H3.49273L10.136 64.1289H15.6465V76.973H12.2482V66.3622H12.1538L5.51049 76.973Z" fill="white"/>
<path d="M23.3749 76.973H19.9766V64.1289H25.5814L29.3338 71.573H29.4282L33.2749 64.1289H38.75V76.973H35.3517V66.3622H35.2573L31.1863 74.2553H27.4694L23.4693 66.3622H23.3749V76.973Z" fill="white"/>
<path d="M43.0938 76.973V64.1289H57.2417V66.9057H46.4921V68.9499H53.1353C54.9289 68.9499 56.2387 69.2807 57.0529 69.9306C57.867 70.5923 58.2682 71.5967 58.2682 72.9673C58.2682 74.338 57.8553 75.3306 57.0411 75.9923C56.2269 76.654 54.9171 76.973 53.1353 76.973H43.0938ZM46.4803 71.5849V74.1962H54.6693V71.5849H46.4803Z" fill="white"/>
<path d="M70.4523 64.1289H65.4728L59.1953 76.8785V76.973H62.8178L64.0568 74.3853H71.8447L73.0836 76.973H76.777V76.8785L70.4523 64.1289ZM65.402 71.6085L68.0215 66.3622L70.5349 71.6085H65.402Z" fill="white"/>
<path d="M89.3855 76.973H83.875V64.1289H87.2733V74.7398H87.3677L94.011 64.1289H99.5215V76.973H96.1232V66.3622H96.0288L89.3855 76.973Z" fill="white"/>
<path d="M111.626 76.973H108.227V67.0947H101.867V64.1289H117.974V67.0947H111.614L111.626 76.973Z" fill="white"/>
</svg>
